<mxfile host="app.diagrams.net" agent="Mozilla/5.0 (Windows NT 10.0; Win64; x64) AppleWebKit/537.36 (KHTML, like Gecko) Chrome/141.0.0.0 Safari/537.36" version="28.2.8">
  <diagram name="Página-1" id="RQt8iuJqbT9cStQgdcwt">
    <mxGraphModel dx="1389" dy="1964" grid="1" gridSize="10" guides="1" tooltips="1" connect="1" arrows="1" fold="1" page="1" pageScale="1" pageWidth="827" pageHeight="1169" math="0" shadow="0">
      <root>
        <mxCell id="0" />
        <mxCell id="1" parent="0" />
        <mxCell id="kG0N8SlaPU2TVyJFACg0-3" value="" style="rounded=0;whiteSpace=wrap;html=1;fillColor=none;" parent="1" vertex="1">
          <mxGeometry x="118" y="70" width="422" height="220" as="geometry" />
        </mxCell>
        <mxCell id="kG0N8SlaPU2TVyJFACg0-5" value="" style="edgeStyle=orthogonalEdgeStyle;rounded=0;orthogonalLoop=1;jettySize=auto;html=1;" parent="1" source="kG0N8SlaPU2TVyJFACg0-6" target="kG0N8SlaPU2TVyJFACg0-10" edge="1">
          <mxGeometry relative="1" as="geometry" />
        </mxCell>
        <mxCell id="kG0N8SlaPU2TVyJFACg0-6" value="Energía" style="text;html=1;whiteSpace=wrap;strokeColor=none;fillColor=none;align=center;verticalAlign=middle;rounded=0;" parent="1" vertex="1">
          <mxGeometry x="20" y="103.74000000000001" width="60" height="30" as="geometry" />
        </mxCell>
        <mxCell id="kG0N8SlaPU2TVyJFACg0-7" value="&lt;span style=&quot;&quot;&gt;Acondicionar&amp;nbsp;&lt;/span&gt;&lt;div style=&quot;&quot;&gt;Sensores&lt;/div&gt;" style="whiteSpace=wrap;html=1;align=center;" parent="1" vertex="1">
          <mxGeometry x="165.75" y="172.62" width="78.5" height="34.76" as="geometry" />
        </mxCell>
        <mxCell id="kG0N8SlaPU2TVyJFACg0-8" value="Señal&amp;nbsp;&lt;div&gt;ON / OFF&lt;/div&gt;" style="text;html=1;whiteSpace=wrap;strokeColor=none;fillColor=none;align=center;verticalAlign=middle;rounded=0;" parent="1" vertex="1">
          <mxGeometry x="20" y="145.24" width="60" height="30" as="geometry" />
        </mxCell>
        <mxCell id="kG0N8SlaPU2TVyJFACg0-9" value="" style="edgeStyle=orthogonalEdgeStyle;rounded=0;orthogonalLoop=1;jettySize=auto;html=1;" parent="1" source="kG0N8SlaPU2TVyJFACg0-10" target="kG0N8SlaPU2TVyJFACg0-15" edge="1">
          <mxGeometry relative="1" as="geometry" />
        </mxCell>
        <mxCell id="kG0N8SlaPU2TVyJFACg0-10" value="Recibir Energía" style="whiteSpace=wrap;html=1;" parent="1" vertex="1">
          <mxGeometry x="160" y="101.74" width="90" height="35" as="geometry" />
        </mxCell>
        <mxCell id="kG0N8SlaPU2TVyJFACg0-14" value="" style="edgeStyle=orthogonalEdgeStyle;rounded=0;orthogonalLoop=1;jettySize=auto;html=1;" parent="1" source="kG0N8SlaPU2TVyJFACg0-15" target="kG0N8SlaPU2TVyJFACg0-17" edge="1">
          <mxGeometry relative="1" as="geometry" />
        </mxCell>
        <mxCell id="kG0N8SlaPU2TVyJFACg0-15" value="&lt;span style=&quot;text-align: left;&quot;&gt;Permitir flujo de energía&lt;/span&gt;" style="whiteSpace=wrap;html=1;" parent="1" vertex="1">
          <mxGeometry x="288.5" y="98.74" width="82" height="40" as="geometry" />
        </mxCell>
        <mxCell id="kG0N8SlaPU2TVyJFACg0-43" style="edgeStyle=orthogonalEdgeStyle;rounded=0;orthogonalLoop=1;jettySize=auto;html=1;entryX=1;entryY=0.5;entryDx=0;entryDy=0;" parent="1" source="kG0N8SlaPU2TVyJFACg0-17" target="kG0N8SlaPU2TVyJFACg0-23" edge="1">
          <mxGeometry relative="1" as="geometry">
            <Array as="points">
              <mxPoint x="450" y="190" />
            </Array>
          </mxGeometry>
        </mxCell>
        <mxCell id="kG0N8SlaPU2TVyJFACg0-17" value="Común&lt;div&gt;AC / DC&lt;/div&gt;" style="whiteSpace=wrap;html=1;" parent="1" vertex="1">
          <mxGeometry x="408" y="97.74000000000001" width="70" height="43" as="geometry" />
        </mxCell>
        <mxCell id="kG0N8SlaPU2TVyJFACg0-44" style="edgeStyle=orthogonalEdgeStyle;rounded=0;orthogonalLoop=1;jettySize=auto;html=1;entryX=0;entryY=0.25;entryDx=0;entryDy=0;exitX=0.784;exitY=1.016;exitDx=0;exitDy=0;exitPerimeter=0;" parent="1" source="kG0N8SlaPU2TVyJFACg0-23" target="kG0N8SlaPU2TVyJFACg0-40" edge="1">
          <mxGeometry relative="1" as="geometry" />
        </mxCell>
        <mxCell id="kG0N8SlaPU2TVyJFACg0-46" value="" style="edgeStyle=orthogonalEdgeStyle;rounded=0;orthogonalLoop=1;jettySize=auto;html=1;" parent="1" source="kG0N8SlaPU2TVyJFACg0-23" target="kG0N8SlaPU2TVyJFACg0-7" edge="1">
          <mxGeometry relative="1" as="geometry" />
        </mxCell>
        <mxCell id="kG0N8SlaPU2TVyJFACg0-23" value="Almacenar" style="whiteSpace=wrap;html=1;" parent="1" vertex="1">
          <mxGeometry x="310" y="170" width="70" height="40" as="geometry" />
        </mxCell>
        <mxCell id="kG0N8SlaPU2TVyJFACg0-29" value="F" style="ellipse;whiteSpace=wrap;html=1;aspect=fixed;" parent="1" vertex="1">
          <mxGeometry x="500" y="150.86" width="18.75" height="18.75" as="geometry" />
        </mxCell>
        <mxCell id="kG0N8SlaPU2TVyJFACg0-34" value="&lt;font style=&quot;font-size: 10px;&quot;&gt;Dominio Energía&lt;/font&gt;" style="rounded=0;whiteSpace=wrap;html=1;" parent="1" vertex="1">
          <mxGeometry x="118" y="70" width="82" height="20" as="geometry" />
        </mxCell>
        <mxCell id="kG0N8SlaPU2TVyJFACg0-40" value="Acondicionar Control" style="whiteSpace=wrap;html=1;align=center;" parent="1" vertex="1">
          <mxGeometry x="403.75" y="234.48" width="78.5" height="34.76" as="geometry" />
        </mxCell>
        <mxCell id="kG0N8SlaPU2TVyJFACg0-45" value="Acondicionar Actuadores" style="whiteSpace=wrap;html=1;align=center;" parent="1" vertex="1">
          <mxGeometry x="210" y="234.48" width="78.5" height="34.76" as="geometry" />
        </mxCell>
        <mxCell id="kG0N8SlaPU2TVyJFACg0-47" style="edgeStyle=orthogonalEdgeStyle;rounded=0;orthogonalLoop=1;jettySize=auto;html=1;entryX=0.998;entryY=0.304;entryDx=0;entryDy=0;entryPerimeter=0;" parent="1" source="kG0N8SlaPU2TVyJFACg0-23" target="kG0N8SlaPU2TVyJFACg0-45" edge="1">
          <mxGeometry relative="1" as="geometry">
            <Array as="points">
              <mxPoint x="320" y="245" />
            </Array>
          </mxGeometry>
        </mxCell>
        <mxCell id="kG0N8SlaPU2TVyJFACg0-48" value="" style="edgeStyle=orthogonalEdgeStyle;rounded=0;orthogonalLoop=1;jettySize=auto;html=1;dashed=1;entryX=-0.149;entryY=0.497;entryDx=0;entryDy=0;entryPerimeter=0;exitX=0.75;exitY=0;exitDx=0;exitDy=0;" parent="1" source="kG0N8SlaPU2TVyJFACg0-23" target="kG0N8SlaPU2TVyJFACg0-29" edge="1">
          <mxGeometry relative="1" as="geometry">
            <mxPoint x="370.5" y="155.86" as="sourcePoint" />
            <mxPoint x="435.5" y="175.86" as="targetPoint" />
            <Array as="points">
              <mxPoint x="363" y="160" />
              <mxPoint x="497" y="160" />
            </Array>
          </mxGeometry>
        </mxCell>
        <mxCell id="kG0N8SlaPU2TVyJFACg0-50" value="" style="edgeStyle=orthogonalEdgeStyle;rounded=0;orthogonalLoop=1;jettySize=auto;html=1;dashed=1;entryX=0.25;entryY=1.043;entryDx=0;entryDy=0;entryPerimeter=0;" parent="1" target="kG0N8SlaPU2TVyJFACg0-10" edge="1">
          <mxGeometry relative="1" as="geometry">
            <mxPoint x="80" y="160" as="sourcePoint" />
            <mxPoint x="145" y="180" as="targetPoint" />
          </mxGeometry>
        </mxCell>
        <mxCell id="kG0N8SlaPU2TVyJFACg0-51" value="" style="rounded=0;whiteSpace=wrap;html=1;fillColor=none;" parent="1" vertex="1">
          <mxGeometry x="134" y="335" width="146" height="295" as="geometry" />
        </mxCell>
        <mxCell id="kG0N8SlaPU2TVyJFACg0-52" value="&lt;font style=&quot;font-size: 10px;&quot;&gt;Dominio Sensores&lt;/font&gt;" style="rounded=0;whiteSpace=wrap;html=1;" parent="1" vertex="1">
          <mxGeometry x="134" y="335" width="100" height="20" as="geometry" />
        </mxCell>
        <mxCell id="kG0N8SlaPU2TVyJFACg0-56" value="Señal de Ph" style="text;html=1;whiteSpace=wrap;strokeColor=none;fillColor=none;align=center;verticalAlign=middle;rounded=0;" parent="1" vertex="1">
          <mxGeometry x="30" y="369" width="60" height="30" as="geometry" />
        </mxCell>
        <mxCell id="kG0N8SlaPU2TVyJFACg0-58" value="Señal de Cond" style="text;html=1;whiteSpace=wrap;strokeColor=none;fillColor=none;align=center;verticalAlign=middle;rounded=0;" parent="1" vertex="1">
          <mxGeometry x="30" y="468" width="60" height="30" as="geometry" />
        </mxCell>
        <mxCell id="kG0N8SlaPU2TVyJFACg0-60" value="Señal de Turb" style="text;html=1;whiteSpace=wrap;strokeColor=none;fillColor=none;align=center;verticalAlign=middle;rounded=0;" parent="1" vertex="1">
          <mxGeometry x="30" y="417.5" width="60" height="30" as="geometry" />
        </mxCell>
        <mxCell id="kG0N8SlaPU2TVyJFACg0-62" value="Señal de O.D" style="text;html=1;whiteSpace=wrap;strokeColor=none;fillColor=none;align=center;verticalAlign=middle;rounded=0;" parent="1" vertex="1">
          <mxGeometry x="30" y="520" width="60" height="30" as="geometry" />
        </mxCell>
        <mxCell id="kG0N8SlaPU2TVyJFACg0-64" value="Señal de Temp" style="text;html=1;whiteSpace=wrap;strokeColor=none;fillColor=none;align=center;verticalAlign=middle;rounded=0;" parent="1" vertex="1">
          <mxGeometry x="30" y="570" width="60" height="30" as="geometry" />
        </mxCell>
        <mxCell id="kG0N8SlaPU2TVyJFACg0-65" value="Sensar&lt;div&gt;Ph&lt;/div&gt;" style="whiteSpace=wrap;html=1;" parent="1" vertex="1">
          <mxGeometry x="175" y="364" width="75" height="40" as="geometry" />
        </mxCell>
        <mxCell id="kG0N8SlaPU2TVyJFACg0-66" value="Sensar&lt;div&gt;Turbidez&lt;/div&gt;" style="whiteSpace=wrap;html=1;" parent="1" vertex="1">
          <mxGeometry x="173.75" y="414" width="77.5" height="37" as="geometry" />
        </mxCell>
        <mxCell id="kG0N8SlaPU2TVyJFACg0-67" value="Sensar&lt;div&gt;Conductividad&lt;/div&gt;" style="whiteSpace=wrap;html=1;" parent="1" vertex="1">
          <mxGeometry x="170.25" y="462" width="84.5" height="42" as="geometry" />
        </mxCell>
        <mxCell id="kG0N8SlaPU2TVyJFACg0-68" value="Sensar&lt;div&gt;O.D&lt;/div&gt;" style="whiteSpace=wrap;html=1;" parent="1" vertex="1">
          <mxGeometry x="174.5" y="515" width="76" height="40" as="geometry" />
        </mxCell>
        <mxCell id="kG0N8SlaPU2TVyJFACg0-69" value="Sensar&lt;div&gt;Temperatura&lt;/div&gt;" style="whiteSpace=wrap;html=1;" parent="1" vertex="1">
          <mxGeometry x="175.5" y="562.5" width="75" height="45" as="geometry" />
        </mxCell>
        <mxCell id="kG0N8SlaPU2TVyJFACg0-81" value="A" style="ellipse;whiteSpace=wrap;html=1;" parent="1" vertex="1">
          <mxGeometry x="320" y="369" width="26.5" height="30" as="geometry" />
        </mxCell>
        <mxCell id="kG0N8SlaPU2TVyJFACg0-93" value="" style="edgeStyle=orthogonalEdgeStyle;rounded=0;orthogonalLoop=1;jettySize=auto;html=1;dashed=1;" parent="1" edge="1">
          <mxGeometry relative="1" as="geometry">
            <mxPoint x="370" y="-770" as="sourcePoint" />
            <mxPoint x="455.94" y="-770" as="targetPoint" />
            <Array as="points">
              <mxPoint x="389.94" y="-770" />
            </Array>
          </mxGeometry>
        </mxCell>
        <mxCell id="kG0N8SlaPU2TVyJFACg0-94" value="B" style="ellipse;whiteSpace=wrap;html=1;" parent="1" vertex="1">
          <mxGeometry x="320" y="417.5" width="26.5" height="30" as="geometry" />
        </mxCell>
        <mxCell id="kG0N8SlaPU2TVyJFACg0-95" value="C" style="ellipse;whiteSpace=wrap;html=1;" parent="1" vertex="1">
          <mxGeometry x="320" y="468" width="26.5" height="30" as="geometry" />
        </mxCell>
        <mxCell id="kG0N8SlaPU2TVyJFACg0-96" value="D" style="ellipse;whiteSpace=wrap;html=1;" parent="1" vertex="1">
          <mxGeometry x="320" y="520" width="26.5" height="30" as="geometry" />
        </mxCell>
        <mxCell id="kG0N8SlaPU2TVyJFACg0-97" value="E" style="ellipse;whiteSpace=wrap;html=1;" parent="1" vertex="1">
          <mxGeometry x="320" y="570" width="26.5" height="30" as="geometry" />
        </mxCell>
        <mxCell id="kG0N8SlaPU2TVyJFACg0-99" value="" style="edgeStyle=orthogonalEdgeStyle;rounded=0;orthogonalLoop=1;jettySize=auto;html=1;dashed=1;entryX=0;entryY=0.5;entryDx=0;entryDy=0;" parent="1" target="kG0N8SlaPU2TVyJFACg0-65" edge="1">
          <mxGeometry relative="1" as="geometry">
            <mxPoint x="103" y="383.83" as="sourcePoint" />
            <mxPoint x="156" y="383.83" as="targetPoint" />
            <Array as="points">
              <mxPoint x="90" y="384" />
            </Array>
          </mxGeometry>
        </mxCell>
        <mxCell id="kG0N8SlaPU2TVyJFACg0-100" value="" style="edgeStyle=orthogonalEdgeStyle;rounded=0;orthogonalLoop=1;jettySize=auto;html=1;dashed=1;entryX=0;entryY=0.5;entryDx=0;entryDy=0;exitX=1;exitY=0.5;exitDx=0;exitDy=0;" parent="1" source="kG0N8SlaPU2TVyJFACg0-60" target="kG0N8SlaPU2TVyJFACg0-66" edge="1">
          <mxGeometry relative="1" as="geometry">
            <mxPoint x="103" y="432.38" as="sourcePoint" />
            <mxPoint x="156" y="432.38" as="targetPoint" />
            <Array as="points" />
          </mxGeometry>
        </mxCell>
        <mxCell id="kG0N8SlaPU2TVyJFACg0-101" value="" style="edgeStyle=orthogonalEdgeStyle;rounded=0;orthogonalLoop=1;jettySize=auto;html=1;dashed=1;entryX=0;entryY=0.5;entryDx=0;entryDy=0;exitX=1;exitY=0.5;exitDx=0;exitDy=0;" parent="1" edge="1">
          <mxGeometry relative="1" as="geometry">
            <mxPoint x="86.25" y="482.88" as="sourcePoint" />
            <mxPoint x="170.25" y="482.88" as="targetPoint" />
            <Array as="points" />
          </mxGeometry>
        </mxCell>
        <mxCell id="kG0N8SlaPU2TVyJFACg0-102" value="" style="edgeStyle=orthogonalEdgeStyle;rounded=0;orthogonalLoop=1;jettySize=auto;html=1;dashed=1;entryX=0;entryY=0.5;entryDx=0;entryDy=0;exitX=1;exitY=0.5;exitDx=0;exitDy=0;" parent="1" edge="1">
          <mxGeometry relative="1" as="geometry">
            <mxPoint x="89.75" y="534.88" as="sourcePoint" />
            <mxPoint x="173.75" y="534.88" as="targetPoint" />
            <Array as="points" />
          </mxGeometry>
        </mxCell>
        <mxCell id="kG0N8SlaPU2TVyJFACg0-103" value="" style="edgeStyle=orthogonalEdgeStyle;rounded=0;orthogonalLoop=1;jettySize=auto;html=1;dashed=1;entryX=0;entryY=0.5;entryDx=0;entryDy=0;exitX=1;exitY=0.5;exitDx=0;exitDy=0;" parent="1" edge="1">
          <mxGeometry relative="1" as="geometry">
            <mxPoint x="91" y="584" as="sourcePoint" />
            <mxPoint x="175" y="584" as="targetPoint" />
            <Array as="points" />
          </mxGeometry>
        </mxCell>
        <mxCell id="kG0N8SlaPU2TVyJFACg0-104" value="" style="edgeStyle=orthogonalEdgeStyle;rounded=0;orthogonalLoop=1;jettySize=auto;html=1;dashed=1;exitX=1;exitY=0.5;exitDx=0;exitDy=0;" parent="1" edge="1">
          <mxGeometry relative="1" as="geometry">
            <mxPoint x="250" y="383.88" as="sourcePoint" />
            <mxPoint x="320" y="384" as="targetPoint" />
            <Array as="points" />
          </mxGeometry>
        </mxCell>
        <mxCell id="kG0N8SlaPU2TVyJFACg0-105" value="" style="edgeStyle=orthogonalEdgeStyle;rounded=0;orthogonalLoop=1;jettySize=auto;html=1;dashed=1;exitX=1;exitY=0.5;exitDx=0;exitDy=0;" parent="1" edge="1">
          <mxGeometry relative="1" as="geometry">
            <mxPoint x="251.25" y="432.38" as="sourcePoint" />
            <mxPoint x="321.25" y="432.5" as="targetPoint" />
            <Array as="points" />
          </mxGeometry>
        </mxCell>
        <mxCell id="kG0N8SlaPU2TVyJFACg0-106" value="" style="edgeStyle=orthogonalEdgeStyle;rounded=0;orthogonalLoop=1;jettySize=auto;html=1;dashed=1;exitX=1;exitY=0.5;exitDx=0;exitDy=0;" parent="1" edge="1">
          <mxGeometry relative="1" as="geometry">
            <mxPoint x="254.75" y="482.88" as="sourcePoint" />
            <mxPoint x="320" y="483" as="targetPoint" />
            <Array as="points" />
          </mxGeometry>
        </mxCell>
        <mxCell id="kG0N8SlaPU2TVyJFACg0-107" value="" style="edgeStyle=orthogonalEdgeStyle;rounded=0;orthogonalLoop=1;jettySize=auto;html=1;dashed=1;exitX=1;exitY=0.5;exitDx=0;exitDy=0;" parent="1" source="kG0N8SlaPU2TVyJFACg0-68" edge="1">
          <mxGeometry relative="1" as="geometry">
            <mxPoint x="249.25" y="534.88" as="sourcePoint" />
            <mxPoint x="319.25" y="535" as="targetPoint" />
            <Array as="points" />
          </mxGeometry>
        </mxCell>
        <mxCell id="kG0N8SlaPU2TVyJFACg0-108" value="" style="edgeStyle=orthogonalEdgeStyle;rounded=0;orthogonalLoop=1;jettySize=auto;html=1;dashed=1;exitX=1;exitY=0.5;exitDx=0;exitDy=0;" parent="1" edge="1">
          <mxGeometry relative="1" as="geometry">
            <mxPoint x="250" y="584" as="sourcePoint" />
            <mxPoint x="320" y="584.12" as="targetPoint" />
            <Array as="points" />
          </mxGeometry>
        </mxCell>
        <mxCell id="kG0N8SlaPU2TVyJFACg0-109" value="A" style="ellipse;whiteSpace=wrap;html=1;" parent="1" vertex="1">
          <mxGeometry x="580" y="90" width="26.5" height="30" as="geometry" />
        </mxCell>
        <mxCell id="kG0N8SlaPU2TVyJFACg0-110" value="B" style="ellipse;whiteSpace=wrap;html=1;" parent="1" vertex="1">
          <mxGeometry x="580" y="138.5" width="26.5" height="30" as="geometry" />
        </mxCell>
        <mxCell id="kG0N8SlaPU2TVyJFACg0-111" value="C" style="ellipse;whiteSpace=wrap;html=1;" parent="1" vertex="1">
          <mxGeometry x="580" y="189" width="26.5" height="30" as="geometry" />
        </mxCell>
        <mxCell id="kG0N8SlaPU2TVyJFACg0-112" value="D" style="ellipse;whiteSpace=wrap;html=1;" parent="1" vertex="1">
          <mxGeometry x="580" y="241" width="26.5" height="30" as="geometry" />
        </mxCell>
        <mxCell id="kG0N8SlaPU2TVyJFACg0-113" value="E" style="ellipse;whiteSpace=wrap;html=1;" parent="1" vertex="1">
          <mxGeometry x="580" y="291" width="26.5" height="30" as="geometry" />
        </mxCell>
        <mxCell id="kG0N8SlaPU2TVyJFACg0-114" value="Recibir Señales" style="whiteSpace=wrap;html=1;" parent="1" vertex="1">
          <mxGeometry x="660" y="90.74" width="100" height="43" as="geometry" />
        </mxCell>
        <mxCell id="kG0N8SlaPU2TVyJFACg0-115" value="" style="edgeStyle=orthogonalEdgeStyle;rounded=0;orthogonalLoop=1;jettySize=auto;html=1;dashed=1;" parent="1" edge="1">
          <mxGeometry relative="1" as="geometry">
            <mxPoint x="619.47" y="104.66" as="sourcePoint" />
            <mxPoint x="660" y="105" as="targetPoint" />
            <Array as="points">
              <mxPoint x="606.47" y="104.66" />
            </Array>
          </mxGeometry>
        </mxCell>
        <mxCell id="kG0N8SlaPU2TVyJFACg0-116" value="" style="edgeStyle=orthogonalEdgeStyle;rounded=0;orthogonalLoop=1;jettySize=auto;html=1;dashed=1;exitX=1;exitY=0.5;exitDx=0;exitDy=0;entryX=0;entryY=0.68;entryDx=0;entryDy=0;entryPerimeter=0;" parent="1" source="kG0N8SlaPU2TVyJFACg0-110" target="kG0N8SlaPU2TVyJFACg0-114" edge="1">
          <mxGeometry relative="1" as="geometry">
            <mxPoint x="619.5" y="153.32999999999998" as="sourcePoint" />
            <mxPoint x="650" y="120" as="targetPoint" />
            <Array as="points">
              <mxPoint x="630" y="154" />
              <mxPoint x="630" y="120" />
            </Array>
          </mxGeometry>
        </mxCell>
        <mxCell id="kG0N8SlaPU2TVyJFACg0-117" value="" style="edgeStyle=orthogonalEdgeStyle;rounded=0;orthogonalLoop=1;jettySize=auto;html=1;dashed=1;entryX=0.121;entryY=1.009;entryDx=0;entryDy=0;entryPerimeter=0;exitX=1;exitY=0.5;exitDx=0;exitDy=0;" parent="1" source="kG0N8SlaPU2TVyJFACg0-111" target="kG0N8SlaPU2TVyJFACg0-114" edge="1">
          <mxGeometry relative="1" as="geometry">
            <mxPoint x="619.5" y="203.82999999999998" as="sourcePoint" />
            <mxPoint x="690" y="160" as="targetPoint" />
            <Array as="points">
              <mxPoint x="630" y="204" />
              <mxPoint x="630" y="170" />
              <mxPoint x="672" y="170" />
            </Array>
          </mxGeometry>
        </mxCell>
        <mxCell id="kG0N8SlaPU2TVyJFACg0-119" value="" style="edgeStyle=orthogonalEdgeStyle;rounded=0;orthogonalLoop=1;jettySize=auto;html=1;dashed=1;entryX=0.25;entryY=1;entryDx=0;entryDy=0;exitX=1;exitY=0.5;exitDx=0;exitDy=0;" parent="1" source="kG0N8SlaPU2TVyJFACg0-112" target="kG0N8SlaPU2TVyJFACg0-114" edge="1">
          <mxGeometry relative="1" as="geometry">
            <mxPoint x="610" y="259" as="sourcePoint" />
            <mxPoint x="675" y="189" as="targetPoint" />
            <Array as="points">
              <mxPoint x="640" y="256" />
              <mxPoint x="640" y="180" />
              <mxPoint x="685" y="180" />
            </Array>
          </mxGeometry>
        </mxCell>
        <mxCell id="kG0N8SlaPU2TVyJFACg0-120" value="" style="edgeStyle=orthogonalEdgeStyle;rounded=0;orthogonalLoop=1;jettySize=auto;html=1;dashed=1;entryX=0.25;entryY=1;entryDx=0;entryDy=0;exitX=1;exitY=0.5;exitDx=0;exitDy=0;" parent="1" source="kG0N8SlaPU2TVyJFACg0-113" edge="1">
          <mxGeometry relative="1" as="geometry">
            <mxPoint x="620" y="255.74" as="sourcePoint" />
            <mxPoint x="698" y="133.74" as="targetPoint" />
            <Array as="points">
              <mxPoint x="653" y="306" />
              <mxPoint x="653" y="190" />
              <mxPoint x="698" y="190" />
            </Array>
          </mxGeometry>
        </mxCell>
        <mxCell id="kG0N8SlaPU2TVyJFACg0-121" value="Comparar variables" style="whiteSpace=wrap;html=1;" parent="1" vertex="1">
          <mxGeometry x="760" y="150.86" width="100" height="43" as="geometry" />
        </mxCell>
        <mxCell id="kG0N8SlaPU2TVyJFACg0-122" value="Establecer&amp;nbsp;&lt;div&gt;alertas&lt;/div&gt;" style="whiteSpace=wrap;html=1;" parent="1" vertex="1">
          <mxGeometry x="805" y="210" width="100" height="43" as="geometry" />
        </mxCell>
        <mxCell id="kG0N8SlaPU2TVyJFACg0-123" value="" style="edgeStyle=orthogonalEdgeStyle;rounded=0;orthogonalLoop=1;jettySize=auto;html=1;dashed=1;entryX=0;entryY=0.5;entryDx=0;entryDy=0;exitX=0.75;exitY=1;exitDx=0;exitDy=0;" parent="1" source="kG0N8SlaPU2TVyJFACg0-114" target="kG0N8SlaPU2TVyJFACg0-121" edge="1">
          <mxGeometry relative="1" as="geometry">
            <mxPoint x="730" y="60" as="sourcePoint" />
            <mxPoint x="785.97" y="40" as="targetPoint" />
            <Array as="points">
              <mxPoint x="735" y="172" />
            </Array>
          </mxGeometry>
        </mxCell>
        <mxCell id="kG0N8SlaPU2TVyJFACg0-124" value="" style="edgeStyle=orthogonalEdgeStyle;rounded=0;orthogonalLoop=1;jettySize=auto;html=1;dashed=1;entryX=0;entryY=0.5;entryDx=0;entryDy=0;exitX=0.75;exitY=1;exitDx=0;exitDy=0;" parent="1" edge="1">
          <mxGeometry relative="1" as="geometry">
            <mxPoint x="780" y="193.86" as="sourcePoint" />
            <mxPoint x="805" y="231.86" as="targetPoint" />
            <Array as="points">
              <mxPoint x="780" y="231.86" />
            </Array>
          </mxGeometry>
        </mxCell>
        <mxCell id="kG0N8SlaPU2TVyJFACg0-125" value="" style="edgeStyle=orthogonalEdgeStyle;rounded=0;orthogonalLoop=1;jettySize=auto;html=1;dashed=1;entryX=0.507;entryY=-0.038;entryDx=0;entryDy=0;entryPerimeter=0;exitX=0.5;exitY=1;exitDx=0;exitDy=0;" parent="1" source="kG0N8SlaPU2TVyJFACg0-114" target="kG0N8SlaPU2TVyJFACg0-126" edge="1">
          <mxGeometry relative="1" as="geometry">
            <mxPoint x="692.97" y="219" as="sourcePoint" />
            <mxPoint x="730" y="240" as="targetPoint" />
            <Array as="points">
              <mxPoint x="710" y="219" />
              <mxPoint x="731" y="219" />
            </Array>
          </mxGeometry>
        </mxCell>
        <mxCell id="kG0N8SlaPU2TVyJFACg0-126" value="Establecer conexión IoT" style="whiteSpace=wrap;html=1;" parent="1" vertex="1">
          <mxGeometry x="680" y="269.24" width="100" height="43" as="geometry" />
        </mxCell>
        <mxCell id="kG0N8SlaPU2TVyJFACg0-127" value="" style="rounded=0;whiteSpace=wrap;html=1;fillColor=none;" parent="1" vertex="1">
          <mxGeometry x="560" y="70" width="370" height="260" as="geometry" />
        </mxCell>
        <mxCell id="kG0N8SlaPU2TVyJFACg0-128" value="&lt;font style=&quot;font-size: 10px;&quot;&gt;Control&lt;/font&gt;" style="rounded=0;whiteSpace=wrap;html=1;" parent="1" vertex="1">
          <mxGeometry x="848" y="70" width="82" height="20" as="geometry" />
        </mxCell>
        <mxCell id="kG0N8SlaPU2TVyJFACg0-130" value="" style="edgeStyle=orthogonalEdgeStyle;rounded=0;orthogonalLoop=1;jettySize=auto;html=1;dashed=1;" parent="1" edge="1">
          <mxGeometry relative="1" as="geometry">
            <mxPoint x="760" y="104.8" as="sourcePoint" />
            <mxPoint x="800.53" y="105.14" as="targetPoint" />
            <Array as="points">
              <mxPoint x="780" y="104.8" />
            </Array>
          </mxGeometry>
        </mxCell>
        <mxCell id="kG0N8SlaPU2TVyJFACg0-131" value="G" style="ellipse;whiteSpace=wrap;html=1;" parent="1" vertex="1">
          <mxGeometry x="801" y="90.74" width="26.5" height="30" as="geometry" />
        </mxCell>
        <mxCell id="kG0N8SlaPU2TVyJFACg0-132" value="Indicar datos" style="whiteSpace=wrap;html=1;" parent="1" vertex="1">
          <mxGeometry x="506.5" y="399" width="100" height="43" as="geometry" />
        </mxCell>
        <mxCell id="kG0N8SlaPU2TVyJFACg0-133" value="Indicar nivel de batería" style="whiteSpace=wrap;html=1;" parent="1" vertex="1">
          <mxGeometry x="506.5" y="477" width="100" height="43" as="geometry" />
        </mxCell>
        <mxCell id="kG0N8SlaPU2TVyJFACg0-135" value="Indicar Alertas" style="whiteSpace=wrap;html=1;" parent="1" vertex="1">
          <mxGeometry x="730" y="477" width="100" height="43" as="geometry" />
        </mxCell>
        <mxCell id="kG0N8SlaPU2TVyJFACg0-136" value="" style="rounded=0;whiteSpace=wrap;html=1;fillColor=none;" parent="1" vertex="1">
          <mxGeometry x="470" y="352" width="420" height="228" as="geometry" />
        </mxCell>
        <mxCell id="kG0N8SlaPU2TVyJFACg0-137" value="&lt;font style=&quot;font-size: 10px;&quot;&gt;Dominio Actuadores&lt;/font&gt;" style="rounded=0;whiteSpace=wrap;html=1;" parent="1" vertex="1">
          <mxGeometry x="470" y="352.5" width="110" height="20" as="geometry" />
        </mxCell>
        <mxCell id="kG0N8SlaPU2TVyJFACg0-138" value="G" style="ellipse;whiteSpace=wrap;html=1;" parent="1" vertex="1">
          <mxGeometry x="400" y="405.5" width="26.5" height="30" as="geometry" />
        </mxCell>
        <mxCell id="kG0N8SlaPU2TVyJFACg0-139" value="F" style="ellipse;whiteSpace=wrap;html=1;" parent="1" vertex="1">
          <mxGeometry x="400" y="483.5" width="26.5" height="30" as="geometry" />
        </mxCell>
        <mxCell id="kG0N8SlaPU2TVyJFACg0-140" value="" style="edgeStyle=orthogonalEdgeStyle;rounded=0;orthogonalLoop=1;jettySize=auto;html=1;dashed=1;exitX=1;exitY=0.5;exitDx=0;exitDy=0;entryX=0;entryY=0.5;entryDx=0;entryDy=0;" parent="1" target="kG0N8SlaPU2TVyJFACg0-132" edge="1">
          <mxGeometry relative="1" as="geometry">
            <mxPoint x="426.5" y="420.3" as="sourcePoint" />
            <mxPoint x="496.5" y="420.42" as="targetPoint" />
            <Array as="points" />
          </mxGeometry>
        </mxCell>
        <mxCell id="kG0N8SlaPU2TVyJFACg0-142" value="" style="edgeStyle=orthogonalEdgeStyle;rounded=0;orthogonalLoop=1;jettySize=auto;html=1;dashed=1;exitX=1;exitY=0.5;exitDx=0;exitDy=0;entryX=0;entryY=0.5;entryDx=0;entryDy=0;" parent="1" edge="1">
          <mxGeometry relative="1" as="geometry">
            <mxPoint x="426.5" y="498" as="sourcePoint" />
            <mxPoint x="507" y="498.7" as="targetPoint" />
            <Array as="points" />
          </mxGeometry>
        </mxCell>
        <mxCell id="kG0N8SlaPU2TVyJFACg0-143" value="Ejecutar datos" style="whiteSpace=wrap;html=1;" parent="1" vertex="1">
          <mxGeometry x="810" y="269.24" width="100" height="43" as="geometry" />
        </mxCell>
        <mxCell id="kG0N8SlaPU2TVyJFACg0-144" value="" style="edgeStyle=orthogonalEdgeStyle;rounded=0;orthogonalLoop=1;jettySize=auto;html=1;dashed=1;exitX=1;exitY=0.5;exitDx=0;exitDy=0;" parent="1" edge="1">
          <mxGeometry relative="1" as="geometry">
            <mxPoint x="779.5" y="290" as="sourcePoint" />
            <mxPoint x="810" y="290" as="targetPoint" />
            <Array as="points" />
          </mxGeometry>
        </mxCell>
        <mxCell id="kG0N8SlaPU2TVyJFACg0-146" value="" style="edgeStyle=orthogonalEdgeStyle;rounded=0;orthogonalLoop=1;jettySize=auto;html=1;dashed=1;exitX=0.996;exitY=0.48;exitDx=0;exitDy=0;exitPerimeter=0;" parent="1" source="kG0N8SlaPU2TVyJFACg0-122" edge="1">
          <mxGeometry relative="1" as="geometry">
            <mxPoint x="930" y="220" as="sourcePoint" />
            <mxPoint x="950" y="230" as="targetPoint" />
            <Array as="points">
              <mxPoint x="920" y="231" />
            </Array>
          </mxGeometry>
        </mxCell>
        <mxCell id="kG0N8SlaPU2TVyJFACg0-149" value="" style="rounded=0;whiteSpace=wrap;html=1;fillColor=none;strokeColor=default;" parent="1" vertex="1">
          <mxGeometry x="110" y="60" width="890" height="640" as="geometry" />
        </mxCell>
        <mxCell id="kG0N8SlaPU2TVyJFACg0-150" value="" style="edgeStyle=orthogonalEdgeStyle;rounded=0;orthogonalLoop=1;jettySize=auto;html=1;dashed=1;exitX=0.75;exitY=0;exitDx=0;exitDy=0;entryX=0;entryY=0.5;entryDx=0;entryDy=0;" parent="1" source="kG0N8SlaPU2TVyJFACg0-132" target="kG0N8SlaPU2TVyJFACg0-151" edge="1">
          <mxGeometry relative="1" as="geometry">
            <mxPoint x="607" y="384" as="sourcePoint" />
            <mxPoint x="990" y="220" as="targetPoint" />
            <Array as="points">
              <mxPoint x="580" y="399" />
              <mxPoint x="580" y="380" />
              <mxPoint x="1030" y="380" />
              <mxPoint x="1030" y="219" />
              <mxPoint x="1121" y="219" />
            </Array>
          </mxGeometry>
        </mxCell>
        <mxCell id="kG0N8SlaPU2TVyJFACg0-151" value="Señal de conclusión de medición" style="text;html=1;whiteSpace=wrap;strokeColor=none;fillColor=none;align=center;verticalAlign=middle;rounded=0;" parent="1" vertex="1">
          <mxGeometry x="1121" y="203" width="120" height="30" as="geometry" />
        </mxCell>
        <mxCell id="kG0N8SlaPU2TVyJFACg0-154" value="" style="edgeStyle=orthogonalEdgeStyle;rounded=0;orthogonalLoop=1;jettySize=auto;html=1;dashed=1;entryX=0;entryY=0.5;entryDx=0;entryDy=0;exitX=1;exitY=0.5;exitDx=0;exitDy=0;" parent="1" source="kG0N8SlaPU2TVyJFACg0-134" target="kG0N8SlaPU2TVyJFACg0-156" edge="1">
          <mxGeometry relative="1" as="geometry">
            <mxPoint x="930" y="440" as="sourcePoint" />
            <mxPoint x="1070" y="280" as="targetPoint" />
            <Array as="points">
              <mxPoint x="1050" y="421" />
              <mxPoint x="1050" y="276" />
              <mxPoint x="1121" y="276" />
            </Array>
          </mxGeometry>
        </mxCell>
        <mxCell id="kG0N8SlaPU2TVyJFACg0-156" value="Señal de información" style="text;html=1;whiteSpace=wrap;strokeColor=none;fillColor=none;align=center;verticalAlign=middle;rounded=0;" parent="1" vertex="1">
          <mxGeometry x="1121" y="260" width="120" height="30" as="geometry" />
        </mxCell>
        <mxCell id="kG0N8SlaPU2TVyJFACg0-157" value="" style="edgeStyle=orthogonalEdgeStyle;rounded=0;orthogonalLoop=1;jettySize=auto;html=1;dashed=1;exitX=0.75;exitY=0;exitDx=0;exitDy=0;entryX=0;entryY=0.5;entryDx=0;entryDy=0;" parent="1" source="kG0N8SlaPU2TVyJFACg0-135" target="kG0N8SlaPU2TVyJFACg0-158" edge="1">
          <mxGeometry relative="1" as="geometry">
            <mxPoint x="774.5" y="504" as="sourcePoint" />
            <mxPoint x="1050" y="310" as="targetPoint" />
            <Array as="points">
              <mxPoint x="805" y="460" />
              <mxPoint x="1070" y="460" />
              <mxPoint x="1070" y="315" />
              <mxPoint x="1121" y="315" />
            </Array>
          </mxGeometry>
        </mxCell>
        <mxCell id="kG0N8SlaPU2TVyJFACg0-158" value="Señal de alertas" style="text;html=1;whiteSpace=wrap;strokeColor=none;fillColor=none;align=center;verticalAlign=middle;rounded=0;" parent="1" vertex="1">
          <mxGeometry x="1121" y="299" width="120" height="30" as="geometry" />
        </mxCell>
        <mxCell id="kG0N8SlaPU2TVyJFACg0-159" value="H" style="ellipse;whiteSpace=wrap;html=1;" parent="1" vertex="1">
          <mxGeometry x="950" y="216.5" width="26.5" height="30" as="geometry" />
        </mxCell>
        <mxCell id="kG0N8SlaPU2TVyJFACg0-160" value="" style="edgeStyle=orthogonalEdgeStyle;rounded=0;orthogonalLoop=1;jettySize=auto;html=1;dashed=1;exitX=0.996;exitY=0.48;exitDx=0;exitDy=0;exitPerimeter=0;entryX=0;entryY=0.5;entryDx=0;entryDy=0;" parent="1" target="kG0N8SlaPU2TVyJFACg0-161" edge="1">
          <mxGeometry relative="1" as="geometry">
            <mxPoint x="910" y="291" as="sourcePoint" />
            <mxPoint x="955" y="290" as="targetPoint" />
            <Array as="points">
              <mxPoint x="925" y="291" />
            </Array>
          </mxGeometry>
        </mxCell>
        <mxCell id="kG0N8SlaPU2TVyJFACg0-161" value="I" style="ellipse;whiteSpace=wrap;html=1;" parent="1" vertex="1">
          <mxGeometry x="957" y="275.74" width="26.5" height="30" as="geometry" />
        </mxCell>
        <mxCell id="kG0N8SlaPU2TVyJFACg0-162" value="" style="edgeStyle=orthogonalEdgeStyle;rounded=0;orthogonalLoop=1;jettySize=auto;html=1;dashed=1;exitX=1;exitY=0.5;exitDx=0;exitDy=0;entryX=0;entryY=0.5;entryDx=0;entryDy=0;" parent="1" target="kG0N8SlaPU2TVyJFACg0-134" edge="1">
          <mxGeometry relative="1" as="geometry">
            <mxPoint x="770" y="419.5" as="sourcePoint" />
            <mxPoint x="1080" y="276" as="targetPoint" />
            <Array as="points" />
          </mxGeometry>
        </mxCell>
        <mxCell id="kG0N8SlaPU2TVyJFACg0-134" value="Enviar datos IoT" style="whiteSpace=wrap;html=1;" parent="1" vertex="1">
          <mxGeometry x="730" y="399" width="100" height="43" as="geometry" />
        </mxCell>
        <mxCell id="kG0N8SlaPU2TVyJFACg0-164" value="I" style="ellipse;whiteSpace=wrap;html=1;" parent="1" vertex="1">
          <mxGeometry x="653.5" y="404" width="26.5" height="30" as="geometry" />
        </mxCell>
        <mxCell id="kG0N8SlaPU2TVyJFACg0-165" value="H" style="ellipse;whiteSpace=wrap;html=1;" parent="1" vertex="1">
          <mxGeometry x="653.5" y="483.5" width="26.5" height="30" as="geometry" />
        </mxCell>
        <mxCell id="kG0N8SlaPU2TVyJFACg0-166" value="" style="edgeStyle=orthogonalEdgeStyle;rounded=0;orthogonalLoop=1;jettySize=auto;html=1;dashed=1;exitX=0.996;exitY=0.48;exitDx=0;exitDy=0;exitPerimeter=0;entryX=0;entryY=0.5;entryDx=0;entryDy=0;" parent="1" target="kG0N8SlaPU2TVyJFACg0-134" edge="1">
          <mxGeometry relative="1" as="geometry">
            <mxPoint x="680" y="421" as="sourcePoint" />
            <mxPoint x="725" y="420" as="targetPoint" />
            <Array as="points">
              <mxPoint x="695" y="421" />
            </Array>
          </mxGeometry>
        </mxCell>
        <mxCell id="kG0N8SlaPU2TVyJFACg0-167" value="" style="edgeStyle=orthogonalEdgeStyle;rounded=0;orthogonalLoop=1;jettySize=auto;html=1;dashed=1;exitX=0.996;exitY=0.48;exitDx=0;exitDy=0;exitPerimeter=0;entryX=0;entryY=0.5;entryDx=0;entryDy=0;" parent="1" edge="1">
          <mxGeometry relative="1" as="geometry">
            <mxPoint x="680" y="498.21" as="sourcePoint" />
            <mxPoint x="730" y="498.21" as="targetPoint" />
            <Array as="points">
              <mxPoint x="695" y="498.21" />
            </Array>
          </mxGeometry>
        </mxCell>
        <mxCell id="kG0N8SlaPU2TVyJFACg0-168" value="" style="edgeStyle=orthogonalEdgeStyle;rounded=0;orthogonalLoop=1;jettySize=auto;html=1;dashed=1;exitX=0.75;exitY=1;exitDx=0;exitDy=0;entryX=0;entryY=0.5;entryDx=0;entryDy=0;" parent="1" source="kG0N8SlaPU2TVyJFACg0-133" target="kG0N8SlaPU2TVyJFACg0-169" edge="1">
          <mxGeometry relative="1" as="geometry">
            <mxPoint x="730" y="585" as="sourcePoint" />
            <mxPoint x="1005" y="423" as="targetPoint" />
            <Array as="points">
              <mxPoint x="582" y="540" />
              <mxPoint x="1090" y="540" />
              <mxPoint x="1090" y="350" />
              <mxPoint x="1121" y="350" />
            </Array>
          </mxGeometry>
        </mxCell>
        <mxCell id="kG0N8SlaPU2TVyJFACg0-169" value="Señal indicador de batería" style="text;html=1;whiteSpace=wrap;strokeColor=none;fillColor=none;align=center;verticalAlign=middle;rounded=0;" parent="1" vertex="1">
          <mxGeometry x="1121" y="334" width="120" height="30" as="geometry" />
        </mxCell>
        <mxCell id="2RuyVWujvj97jNvMUF2P-4" value="Señal de conclusión de medición" style="text;html=1;whiteSpace=wrap;strokeColor=none;fillColor=none;align=center;verticalAlign=middle;rounded=0;" parent="1" vertex="1">
          <mxGeometry x="1260" y="-684.97" width="120" height="30" as="geometry" />
        </mxCell>
        <mxCell id="2RuyVWujvj97jNvMUF2P-5" value="Señal de información" style="text;html=1;whiteSpace=wrap;strokeColor=none;fillColor=none;align=center;verticalAlign=middle;rounded=0;" parent="1" vertex="1">
          <mxGeometry x="1260" y="-627.97" width="120" height="30" as="geometry" />
        </mxCell>
        <mxCell id="2RuyVWujvj97jNvMUF2P-6" value="Señal de alertas" style="text;html=1;whiteSpace=wrap;strokeColor=none;fillColor=none;align=center;verticalAlign=middle;rounded=0;" parent="1" vertex="1">
          <mxGeometry x="1260" y="-588.97" width="120" height="30" as="geometry" />
        </mxCell>
        <mxCell id="2RuyVWujvj97jNvMUF2P-7" value="Señal indicador de batería" style="text;html=1;whiteSpace=wrap;strokeColor=none;fillColor=none;align=center;verticalAlign=middle;rounded=0;" parent="1" vertex="1">
          <mxGeometry x="1260" y="-553.97" width="120" height="30" as="geometry" />
        </mxCell>
        <mxCell id="2RuyVWujvj97jNvMUF2P-8" value="" style="edgeStyle=orthogonalEdgeStyle;rounded=0;orthogonalLoop=1;jettySize=auto;html=1;dashed=1;exitX=0.75;exitY=0;exitDx=0;exitDy=0;entryX=0;entryY=0.5;entryDx=0;entryDy=0;" parent="1" edge="1">
          <mxGeometry relative="1" as="geometry">
            <mxPoint x="721" y="-494" as="sourcePoint" />
            <mxPoint x="1260" y="-675" as="targetPoint" />
            <Array as="points">
              <mxPoint x="721" y="-520.03" />
              <mxPoint x="719" y="-520.03" />
              <mxPoint x="719" y="-513.03" />
              <mxPoint x="1169" y="-513.03" />
              <mxPoint x="1169" y="-674.03" />
            </Array>
          </mxGeometry>
        </mxCell>
        <mxCell id="2RuyVWujvj97jNvMUF2P-9" value="" style="edgeStyle=orthogonalEdgeStyle;rounded=0;orthogonalLoop=1;jettySize=auto;html=1;dashed=1;entryX=0;entryY=0.5;entryDx=0;entryDy=0;exitX=1;exitY=0.5;exitDx=0;exitDy=0;" parent="1" edge="1">
          <mxGeometry relative="1" as="geometry">
            <mxPoint x="960" y="-465.97" as="sourcePoint" />
            <mxPoint x="1251" y="-611.97" as="targetPoint" />
            <Array as="points">
              <mxPoint x="1180" y="-465.97" />
              <mxPoint x="1180" y="-610.97" />
              <mxPoint x="1251" y="-610.97" />
            </Array>
          </mxGeometry>
        </mxCell>
        <mxCell id="2RuyVWujvj97jNvMUF2P-10" value="" style="edgeStyle=orthogonalEdgeStyle;rounded=0;orthogonalLoop=1;jettySize=auto;html=1;dashed=1;exitX=0.75;exitY=0;exitDx=0;exitDy=0;entryX=0;entryY=0.5;entryDx=0;entryDy=0;" parent="1" edge="1">
          <mxGeometry relative="1" as="geometry">
            <mxPoint x="940" y="-407" as="sourcePoint" />
            <mxPoint x="1256" y="-570" as="targetPoint" />
            <Array as="points">
              <mxPoint x="940" y="-424" />
              <mxPoint x="1205" y="-424" />
              <mxPoint x="1205" y="-569" />
              <mxPoint x="1256" y="-569" />
            </Array>
          </mxGeometry>
        </mxCell>
        <mxCell id="2RuyVWujvj97jNvMUF2P-11" value="" style="edgeStyle=orthogonalEdgeStyle;rounded=0;orthogonalLoop=1;jettySize=auto;html=1;dashed=1;exitX=0.75;exitY=1;exitDx=0;exitDy=0;entryX=0;entryY=0.5;entryDx=0;entryDy=0;" parent="1" edge="1">
          <mxGeometry relative="1" as="geometry">
            <mxPoint x="721" y="-369" as="sourcePoint" />
            <mxPoint x="1260" y="-540" as="targetPoint" />
            <Array as="points">
              <mxPoint x="721" y="-349" />
              <mxPoint x="1229" y="-349" />
              <mxPoint x="1229" y="-539" />
              <mxPoint x="1260" y="-539" />
            </Array>
          </mxGeometry>
        </mxCell>
        <mxCell id="2RuyVWujvj97jNvMUF2P-12" value="Energía" style="text;html=1;whiteSpace=wrap;strokeColor=none;fillColor=none;align=center;verticalAlign=middle;rounded=0;" parent="1" vertex="1">
          <mxGeometry x="299" y="-822.1" width="60" height="30" as="geometry" />
        </mxCell>
        <mxCell id="2RuyVWujvj97jNvMUF2P-13" value="Señal&amp;nbsp;&lt;div&gt;ON / OFF&lt;/div&gt;" style="text;html=1;whiteSpace=wrap;strokeColor=none;fillColor=none;align=center;verticalAlign=middle;rounded=0;" parent="1" vertex="1">
          <mxGeometry x="299" y="-780.6" width="60" height="30" as="geometry" />
        </mxCell>
        <mxCell id="2RuyVWujvj97jNvMUF2P-14" value="Señal de Ph" style="text;html=1;whiteSpace=wrap;strokeColor=none;fillColor=none;align=center;verticalAlign=middle;rounded=0;" parent="1" vertex="1">
          <mxGeometry x="288.5" y="-550" width="60" height="30" as="geometry" />
        </mxCell>
        <mxCell id="2RuyVWujvj97jNvMUF2P-15" value="Señal de Cond" style="text;html=1;whiteSpace=wrap;strokeColor=none;fillColor=none;align=center;verticalAlign=middle;rounded=0;" parent="1" vertex="1">
          <mxGeometry x="290" y="-435.84000000000003" width="60" height="30" as="geometry" />
        </mxCell>
        <mxCell id="2RuyVWujvj97jNvMUF2P-16" value="Señal de Turb" style="text;html=1;whiteSpace=wrap;strokeColor=none;fillColor=none;align=center;verticalAlign=middle;rounded=0;" parent="1" vertex="1">
          <mxGeometry x="288.5" y="-487.84000000000003" width="60" height="30" as="geometry" />
        </mxCell>
        <mxCell id="2RuyVWujvj97jNvMUF2P-17" value="Señal de O.D" style="text;html=1;whiteSpace=wrap;strokeColor=none;fillColor=none;align=center;verticalAlign=middle;rounded=0;" parent="1" vertex="1">
          <mxGeometry x="290" y="-385.84000000000003" width="60" height="30" as="geometry" />
        </mxCell>
        <mxCell id="2RuyVWujvj97jNvMUF2P-18" value="Señal de Temp" style="text;html=1;whiteSpace=wrap;strokeColor=none;fillColor=none;align=center;verticalAlign=middle;rounded=0;" parent="1" vertex="1">
          <mxGeometry x="290" y="-340.00000000000006" width="60" height="30" as="geometry" />
        </mxCell>
        <mxCell id="2RuyVWujvj97jNvMUF2P-20" value="" style="edgeStyle=orthogonalEdgeStyle;rounded=0;orthogonalLoop=1;jettySize=auto;html=1;dashed=1;exitX=1;exitY=0.5;exitDx=0;exitDy=0;entryX=0;entryY=0.594;entryDx=0;entryDy=0;entryPerimeter=0;" parent="1" edge="1">
          <mxGeometry relative="1" as="geometry">
            <mxPoint x="345" y="-526.7900000000001" as="sourcePoint" />
            <mxPoint x="465" y="-526.8363" as="targetPoint" />
            <Array as="points" />
          </mxGeometry>
        </mxCell>
        <mxCell id="2RuyVWujvj97jNvMUF2P-22" value="" style="edgeStyle=orthogonalEdgeStyle;rounded=0;orthogonalLoop=1;jettySize=auto;html=1;dashed=1;exitX=1;exitY=0.5;exitDx=0;exitDy=0;entryX=0;entryY=0.594;entryDx=0;entryDy=0;entryPerimeter=0;" parent="1" edge="1">
          <mxGeometry relative="1" as="geometry">
            <mxPoint x="345" y="-469.9537" as="sourcePoint" />
            <mxPoint x="465" y="-470" as="targetPoint" />
            <Array as="points" />
          </mxGeometry>
        </mxCell>
        <mxCell id="2RuyVWujvj97jNvMUF2P-23" value="" style="edgeStyle=orthogonalEdgeStyle;rounded=0;orthogonalLoop=1;jettySize=auto;html=1;dashed=1;exitX=1;exitY=0.5;exitDx=0;exitDy=0;entryX=0;entryY=0.594;entryDx=0;entryDy=0;entryPerimeter=0;" parent="1" edge="1">
          <mxGeometry relative="1" as="geometry">
            <mxPoint x="345" y="-419.9537" as="sourcePoint" />
            <mxPoint x="465" y="-420" as="targetPoint" />
            <Array as="points" />
          </mxGeometry>
        </mxCell>
        <mxCell id="2RuyVWujvj97jNvMUF2P-24" value="" style="edgeStyle=orthogonalEdgeStyle;rounded=0;orthogonalLoop=1;jettySize=auto;html=1;dashed=1;exitX=1;exitY=0.5;exitDx=0;exitDy=0;entryX=0;entryY=0.594;entryDx=0;entryDy=0;entryPerimeter=0;" parent="1" edge="1">
          <mxGeometry relative="1" as="geometry">
            <mxPoint x="345" y="-369.9537" as="sourcePoint" />
            <mxPoint x="465" y="-370" as="targetPoint" />
            <Array as="points" />
          </mxGeometry>
        </mxCell>
        <mxCell id="2RuyVWujvj97jNvMUF2P-25" value="" style="edgeStyle=orthogonalEdgeStyle;rounded=0;orthogonalLoop=1;jettySize=auto;html=1;dashed=1;exitX=1;exitY=0.5;exitDx=0;exitDy=0;entryX=0;entryY=0.594;entryDx=0;entryDy=0;entryPerimeter=0;" parent="1" edge="1">
          <mxGeometry relative="1" as="geometry">
            <mxPoint x="345" y="-319.9537" as="sourcePoint" />
            <mxPoint x="465" y="-320" as="targetPoint" />
            <Array as="points" />
          </mxGeometry>
        </mxCell>
        <mxCell id="2RuyVWujvj97jNvMUF2P-26" value="" style="edgeStyle=orthogonalEdgeStyle;rounded=0;orthogonalLoop=1;jettySize=auto;html=1;" parent="1" edge="1">
          <mxGeometry relative="1" as="geometry">
            <mxPoint x="370" y="-800" as="sourcePoint" />
            <mxPoint x="465" y="-800" as="targetPoint" />
            <Array as="points">
              <mxPoint x="445" y="-800" />
              <mxPoint x="445" y="-800" />
            </Array>
          </mxGeometry>
        </mxCell>
        <mxCell id="SRIgrv5aa8l67ySEBSo3-2" value="" style="edgeStyle=orthogonalEdgeStyle;rounded=0;orthogonalLoop=1;jettySize=auto;html=1;exitX=0;exitY=0.75;exitDx=0;exitDy=0;" edge="1" parent="1" source="kG0N8SlaPU2TVyJFACg0-7">
          <mxGeometry relative="1" as="geometry">
            <mxPoint x="300" y="307" as="sourcePoint" />
            <mxPoint x="160" y="330" as="targetPoint" />
            <Array as="points">
              <mxPoint x="146" y="199" />
              <mxPoint x="146" y="320" />
              <mxPoint x="160" y="320" />
            </Array>
          </mxGeometry>
        </mxCell>
        <mxCell id="SRIgrv5aa8l67ySEBSo3-3" value="" style="edgeStyle=orthogonalEdgeStyle;rounded=0;orthogonalLoop=1;jettySize=auto;html=1;entryX=0.089;entryY=-0.014;entryDx=0;entryDy=0;entryPerimeter=0;exitX=0.5;exitY=1;exitDx=0;exitDy=0;" edge="1" parent="1" source="kG0N8SlaPU2TVyJFACg0-45" target="kG0N8SlaPU2TVyJFACg0-136">
          <mxGeometry relative="1" as="geometry">
            <mxPoint x="370" y="310" as="sourcePoint" />
            <mxPoint x="430" y="310" as="targetPoint" />
            <Array as="points">
              <mxPoint x="249" y="320" />
              <mxPoint x="507" y="320" />
            </Array>
          </mxGeometry>
        </mxCell>
        <mxCell id="SRIgrv5aa8l67ySEBSo3-4" value="" style="edgeStyle=orthogonalEdgeStyle;rounded=0;orthogonalLoop=1;jettySize=auto;html=1;entryX=-0.001;entryY=0.949;entryDx=0;entryDy=0;entryPerimeter=0;exitX=0.5;exitY=1;exitDx=0;exitDy=0;" edge="1" parent="1" source="kG0N8SlaPU2TVyJFACg0-40" target="kG0N8SlaPU2TVyJFACg0-127">
          <mxGeometry relative="1" as="geometry">
            <mxPoint x="430" y="310" as="sourcePoint" />
            <mxPoint x="530" y="290" as="targetPoint" />
            <Array as="points">
              <mxPoint x="450" y="269" />
              <mxPoint x="450" y="310" />
              <mxPoint x="560" y="310" />
            </Array>
          </mxGeometry>
        </mxCell>
        <mxCell id="SRIgrv5aa8l67ySEBSo3-5" value="" style="shape=image;verticalLabelPosition=bottom;labelBackgroundColor=default;verticalAlign=top;aspect=fixed;imageAspect=0;image=data:image/png,iVBORw0KGgoAAAANSUhEUgAAB4AAAAbZCAMAAACViuh/AAAACXBIWXMAAAsTAAALEwEAmpwYAAAATlBMVEVHcEz////////////////////////9/f35+fn///////8AAAD////+/v5XV1cpKSkUFBTo6Og/Pz/W1tZvb2+EhITFxcWWlpampqa1tbV7/DmZAAAAC3RSTlMAZt3AiiJD/f4FpMzEA50AACAASURBVHja7N2LcuMqFoXh6AoW4Pv1/V+0BZKSOAYJ2VLstP9v5pyZykl1zVguL2/YbD4+AIxXVNoxWcGLAQDA7Bb2b2Vqs7eL4AWvCgAAs8fvIpGmS1+XwJIiGACAmeO3yIW+it/6X5IaGACAOeO3rOq8FeYqgrXQGa8OAAAzx6/Q5nv8OiUvEAAA88Rvktlq9yZ7bQWsJS8RAAAzxO8iTwPx2/RD5x/sAwMAMLGikjZ+r9uvrhJY0AkNAMDE8Zvppvr1p69LZUEfFgAAU7JDN1z2huK3jeCSRWgAACbg8jRJXfCa3vi1S9A65RUDAGCS+F0komtz7mfrY5NQAgMA8Hj8Frkern2/nUWSBQkMAMCD8VtW4WNHgQTOeeUAALg7fe2p3yRrR07Gq0tljiIBAHB//Ba288oIrfWoBGYkNAAAd8bvh936TftmbvR2QjMSGgCAu5SZrLN0dPXb/j4joQEAuCt+3VSr8elLHxYAAPdK7H0L5u74dWUwB5EAABgXv6IbqRHV8ew5H2x/QB8WAADxmqEbkflr41eEEpg+LAAAIrjG5+ozWaOqXyG/AvfHJjAjoQEAGE5fN/Mq09GNV6aL38smFNc5AykBABiK3yLJ2mNHkdOuZB2/8rxUW3/BbOjDAgCgN34/2qEb0ad+u/g9bVXtWJfD3gCuKIEBAOiJ37JqZ17Fxq/93d1+pZyVW5D2zeMoSWAAAILxm5k2fmP3fuvf3y3XqnPyJzcjoQEACHJDN7xnifzHjlyxe9mq74xnEdr9gQklMAAAvviVLlPj49f+l/NKXVv6G6GFTslfAAB+WlTtovKo+D2oW7s6bD3TOAwjoQEA+KGoXPZGnfs1XfxKX/w2fVjeOxlMwSI0AABN4Wv/5oZuRN62YNq+Z71bqoCTlr4SWOiK1xsAgDZ+F2Xq0jF68VnW8SuOwfhVai08i9Duj2ckNAAAzdCNpD31a2JnXtW/u7npvLq219J/GJg+LAAA8Vv/VebSHjsaEb/21O+hP35dH5b03ckgdMLrDgAgfit36jd+79fF736tBi2987DsTyiBAQBvHr9Jdkf8XpYqytnfh2WYhwUAeG9J2oycNHEDn5u7Gc5bFWklA4eBDX1YAID3LYBzW82K6Nq3HbqxVvFOOjBRK+XlBwC8p6JqWqLGxe9ejbPxlcDNSGgAAN4wfrMuWEfE72apxtpr30xou5hNHxYA4J00M6/Sz6EY0Tu/+jg+ft1RpMD+csVAyvkfdplXVV7yQgPAS8TvIpHfDgTFnPq1A58vK3WXlfcokl36LkngeZ90u8ohjMkXH7zYAPDk+C0SET90w7Txuzmt1b3O/gTmKNLcjzq333OEEW5kd0ICA8BT47fMo/uev+J3d7g/fmvBaRwJmTDjs866B91cb5UVRDAAPC1+k27m1Zjq97JXj9n7FrvtvQ+MhJ41f7867IyLYopgAHhW/LqZVyJ267eJ3/NSPSzQhyV0zoOZS/7jMRuKYAB4Tvwu8tT14+jI1eem8/mwUhNYdYeIf5bApiAQ5pHo6/PX7Z4/33gA4JcVlewOE0UsPTtay/1aTePsncahhal4NLMo9c9XvD1MljICFAB+8+M4a9cgI/Z+P0debZZqMmvvNA77E/Jglu9bwjPhzLg1B77zAMDvxW9q3HpvzN7v59CN3VZNaa+l/zAwI6HnkPonjLrtf5MWvEAAMC+3veqGbhgdPXKymXm1UhPb+e4ltJHASOjpZaEhK+3P8g+asQBg3vhdJCJ64tXnsSN5XqvJLX2L0O4nJMHU8sEZo+wEA8Cs8VvkppvCENd6ZRu1Ngc1i4u/BDaaPcmJJf3h2/xDZlMCwGzxW3ZDNyJPHbnq97hXM1lpXye0/QFbkpM++dIMLXm4QSy2CCaBAWDaz2Bb3DRDN0Yc+nUzr5ZqPiffYWCbFPRhTZm/RVy3Xf1bOd98AGDq+C3s0A0RX/1qF7+nrZrTeuM/DKzpw5pSGvvI628+zKYEgAkroDZ+jYhuvXKLz5vDSs1s7/1fZE+n8twmU0U+9qYIriiCAWAyZSZHxq+xQzfWan477yJ0raIQm0iudeS6R3M0XFIEA8BE8Zu2y4tGx8+82m3Vr9gG52FRiE0jid/37w6eZeQvAEzw+Su7SxRGxO9xpX7L2T8MU+iMZzfJ169R+WvaE2pswQPAYxa5aAcwmOilZ63Pa/WL/AHsrqqlEHtYIUfVv59vFIpgAHgofrXR0fFb56D9qJYn9bv2/iMyjISe5C2QRfdf/QhhQxEMAHd+9BZVN9gxLn6F3SXe7NWv2/h2ge2PckrgR1Uj69/vFwVnBc1YADAueu3QDXvboBEmuu/Gnfo9LtUTbP1NukKLggB4TB7of242+81QBFMEA8DI+C2SLP7YkbtvQdr7FrbqOS7+aRyCkdAPvhXK8HpH/bxN71XQ7kQSRTAARH/mfnzOvIofOWnjd3NaqWdZ61AUlHz8PyA0Adrmb3Mw3AxNh7a3FPIIACAqfstKNvEbe+GCrH93t1+rJ9r7bkUyHEV6cClE+heg3Q/3q4u7CaP/hgZbBHNBAwBExW8mxsWvcFu/T43fdiS0dzAiu5D3ywIHvGy3+7kdAzq0ESyaIhgA0C+xU/fFiKEb9tP3slJPt6w/6W/CwoUDxde9AhOgXf4em+89l/YHA2M57C2FAICwXPZ/nHpnXp3X6hVcfIvQ9tOf8uved0Noxmedv5uvLz5NFdwXwcIN5gYABCwqfUf8HtSL2AYvDGAk9H2LIeHzR1p8rXm4Irj3qLhp2uQpggHgJnnt34qq2c4zYy5ceMbQjaCTXYT2HAWmD+supfHvqrs3yNVp76V0O72mN4J1sxPMfgAAXMevHboRe+WcaWde6d1SvRLXh+Wt2ejDGq9IA/lrc/Zws/w/0IzVbAZTBAPAdfwuXOdVbPHbHjsyl616MYfQVwjBcx79rsgCEyjtK3y+bYHb2LEcvTWw+6taUAQDQBe/RTJ26Eb9u5vzy8VvbectgTkGc4cqmL9dA/TtnZCi9xuccL+QciYYANpTv7kYGb/1Z+zusFaviD6sqeTGBCZgfWuA/lEE77TtQx84FFwXwcymBED82plXri6J3/t19y3sXzN+P/ciPbUXfVij3hplIEhdX1bo0Pf61EyHHkrgNCGBAbx7/Nr7FgbWDW/j97JVryswEtrYPiw+86MVgUNFtw3QP1YgdsOzKbsiGADeV97NvIrufK7/87RSL+3gT2ChUx54PBnIX+sw9PqLiCuSJH3pAN63ALb3LYwaOemGbqzVq9uEdoFzSuBYWbD+FZ4G6GurzcBgrO6CBp4GgLdUZO12XET1a7r4lUv1B2z9/6eElgUJHCc0AVqbQAP0TRHceyjYNMvQXJIB4G3j10Tv/DYzr/5E/NaO/hJYMIw4Ut5z7dUmZgkkpgi2f2DGTjCAt9HMvEq/+lGH156bnV993Kq/Yu2v34Q2JSVwxHukDNW/9t/b6J14LfqnQzOhDMCbxe8ikV0nqomKX3vqV15W6g85hG5F4ihSxHukELEToHuL4F1zImkogjPOBAN4j/gtctuDaiJnbrTHjjantfpbvCOhba5QcA2+SRZpaAKWGXfx1cF+c9MDh4INO8EA3iJ+y8qMP/W7O/y1+LU31Ar/YWBJsTX0LslC91nYe59HPYXVcagIbkekUAQD+M/jN7GdV0KMil9zXKq/6OhbhLa1PyOhB1SBzQn7tW039jHs9dAbzr0j7aBuEhjA/xq/Cxu/JnrxWTfV72mr/qZtaB4WI6H7JT0TsOT4pZDVJW4wVsYFDQD+0wBeNDOvYhef287nw0r9WSd7NZ4vRejD6lPqngasu94OSzNwT3DzbmNpAsB/qWhmXkU2Xjlay/1a/WGrTWArU3Mj/D/2zoW7cROIwtYTJDN2FNmy/f//aA3ISdbhpcYPAfdru+1m95xtIsLVwJ07jpUizF+1ZQbou6aw87yuXDFrckADHgwAILmiplLRf0HV7yy+EYVuOCOhze3AWBJWSuv5My0yQN9b4jyxHNoNTchJAQCkJb+luEVpBB09U2ShG3ZGcyuScvwAI5VDf89/eRaXL5V1u/5QBAMAUkBZWoow5f038+qy36bAzlwCXz8Ct495xbgSKKc/PgzuTocWc4Hcb2DGAgAkIL8ydIO8lcdd1y8/bVNhsiUqwodlpLCuDC6GP7+UXTwKPP9hKIIBACnILwVteV93v7JGGY7bdNibSmDSPixUWb+WjMUATWp67wPuJHaD9OG75wTLP6ruUAQDAGKW37YPjXv+ll8xHbZJcTI1A0tNLrFIfq0ZZwL0YxbGOSAdml3rbfQEAwDi3Enn0A0RnvgsiEn5Pe+2qcFNuz2pQbTY4e/e2Uq7/tKjriV2ckBDQCxHj2xKAECc8itDNyiw+qWb/J4+t+mxE8I8FalssMH/izUB+vrBy0MPJTzp0ErxywIKDACIrY7ZNH0p83eDM69IRvEOh/02SSZzqoR224JvamsCpVieAO3MCB39VyPyrbBCZCgAIC7aiqn4+yDf8y12Y9x9bBNlb46EvhZ78GH9pLAUpaocffDqOOpMVN+IJIYphQCAmLbRckHm1S0ccPrcJszJfLLK0Ir08+SkcSVAP3x97IeAYCzSUwoBACAK+eXKRBp686t/42W/TRtuTuMgQoH1LcDMnNr5lwRoXxHs65BTHex4RgCAGPbQ+uvEcEH1e94mz840FUn5sDocQs88JwH6r0Ww/LFEEQwAWDlNfysoAuWXpZV55fZhcfMhNCKhZypHAuXlWY/l4OtTZ7oOlkUwXpQAAGul7W9xkxTsexbjYZsHn5Y8LCJUVwqLAVolUI7Pey770duRpDS4Qk8wAGCFyH2pk9MGicSitiMx7bbZcDaXwIRWJLWECutS4YI/1SEgb4K5c+HqZY2bYADA6vbOq/42RRnse9bzFq47Hj9/bjNiz21zCZH7PydAk1l/xZPXyf6ii2BfMFaFbEoAwNqq36Yug7t+VfUr5Xc47rd5cTR6w68fKbGIGv70BGjnTTCTF81ON7Rc4FRvIMEAgBXJb9uzhfLL5NXvxzY7RvMhtN7X815FldUALcQrTHr7s6rAfUUwlSiCAQCrQc9bYGHzFrSjVYZuZCi/KhLavMNT1nv69ZPvLdOipSJOr3s43mNoYoQbewDASuS3nMcdUWDoBuUQuuGKhDYeQlPmeVi1LQHr+sUaXvVwPs4/OtMdc4JLXNkDAFawb3IR6nz+zrw6fWyzZW9uRSIZCZ0xrT4XMR9Av3C57HhANiUmaAAA3n9w2AsRcGr3b+YVO26z5mTpdc3Zh9U1ZDNA09MN0HdcvlXWZYfmKIIBAO/ZMOUPTUU/ovoC5Xc4bHPHPAZeNZnmeg/ccYcB69Ur5lYEO9fyXATDjAUAeIP8tpWuE0K7fpka57rbgoNtLmG+kdClQ+nekFJ6DhuRxFAEAwBeL7+dcl4FRk7S3HbEL59QX92KRMjD+klvqX9lAsf0jie0G2QsB3mDsfoORTAA4KXy2xRcDzIPO3vW8juc9pDeLx+WeSbDtaTKcDvvCltn1lV/hzc9o7Ne4eR5s+QFFBgA8Dr5bWum245Cu37lbODx+AHh/bG7M7MC9zkuqVbYbGlc0Nve2j5HXzq0juXoMaABAPAi+S16sVB+1bwFyO8/2G6BRXYl8FV/yWbAYq82QN/HhvpGJKn/cxTBAIDXyO+ceUXBAxeu/z7j6ve3D8syGDg3H1a3aUrzanqLAfp3EeyLV5XdyxWGSQIAnk2tMq8Cy1+aIydx9Wv2YRkOoWXNl928O1cC9Pndj+kYcBMsL2QwpRAA8NRapefhic9fmVcHnD2biytzp+n1I5lVUz1ZvhCvS4B2+uVGT0fSnAOHIhgA8DSa6ja4Nqz2VRsWR+iGw4fF4cOSBmhrB9LbDNC/urZ9sRzq+wJFMADgKbQVhSZefcsvQjc8rUjGQ2jpw8poYQnHCOCV3F14i+D5F0oUwQCAh1YoapcsvzfF0JtfMcF55bteZEQm4cknElonQFv0l3YrelQeMxbppV9v4IcGADxQfjsZuhEe+Kx9z/wM55WPj9F0CE05HWZ2pXnqgXrVW9PIjo/JZ8ZSrwxUoicYAPAw+W1q8ndi3Hf9jic4r8IuFw2HCnKTz2WFVZYJSDKB47Kyh8V8sRzqG4UKFMEAgIfIb7skdOPW9TvBeRXIZNafbGbN1o4EynF1d/aTjuXwKLAoWygwAOCv8tvJ0A1aGrpxgfNqiQ/LsqPnYOeRBmh7AvQKz1AOXNobPNGUTN0EQ4EBAH+RXxm6QUur3xOcV8takUxvN9ePlBkssdbiLHhvArTzJvgsj6EJRTAA4Jk0tbTHLJl3JOOADnBeLYSL3yPv1KzZIvEdvNs05IhXXusxyo67W4KVAjOR7VhJAMDf5bdiItR6RbfMK47Mq//nwzJHQidfAZeOBMrjah+YLIJJkDebsmyxjQAAltNWt2yfEPmd96IRZ8//i8FwC6x+XideAle2CYTXvy5rfmKf3BPLwfRngSIYALBYflXoRtjh81cpAPn9gw/LPJOBNUkrcG9fUeszQP++ufccRKtnylEEAwCWUARHbujNUtXJZ5w9/38uRiM0pR0JbU2AlsI2rH453Ypg4cmm7DuYsQAAAVviRjqvxILIya/MK4jonzBLESPRprt5OxOgP6N4bfKOSFJPEUUwACBIfntBocWvuvtVmVdHKOiffViWqUhlsvrbMIv+0ooN0HdF8BAQjHX9u0c2JQDApb7yoKzt1c1jYNsREUPm1eN8WMyswKlGQnelTX+vX4dTLI/tpIOxfE3BvIACAwBc8iszr8LlV2j5PcN59ZhiyjQVSTmxEvVhVRaL/QoToJ3PbfQVwUy906IIBgBY5VeFbrCF8suPkN/HXSgaDqHlKW2aPqzakoC9ygRoJ0dvEaxeaxmKYADAb/ndyKtfrhJsgzOvpFQPyLx6bCuScRNnSUZCF9YEShaBAfp3Eex9c73+hqrBZgMAuKeVmVdSUgP0l26xG+MOfUcPrqQsh9AJ5mHZE6AjMUDfW+j8dmj5LVZjrwEA/FuMlLRMfuV/TDh7fjQfg+kQmlL0YTWW42eVgBWjp28/+iVYzlAqUQQDAH7IL6P57JP8tueb/CJ041l1lFmYUlt0paP+PUb78LzBWPK1A0UwAEDT1eGZVz/kF1r5HCZzM7BIatfuXAnQFJMB+u4AYwxKh2YoggEAGxW6MQcFBCY+y2PqAaEbT2xFMidSirR8WJa3vigSoH1FsNOMRXrIZL2BHxqAjAtfJb9VaN7k3HYk5XdE6MZzW5HMYRyiSunSgyyvGTJXLWpf/X7SA0zcTcH6JhgKDEC28tu18hgwvO1Iy++0g0Y+9xiTW7pjRZHMjh19ArSzCOa+WA5lxhIoggHIU35l6EZR6nfx0Ltfft1UBmRevaIVyTyUIZVWpG7T2N4xKFID9F0RfNGxHJ5oSipbKDAAOVa/Ta1CN0IDn2f5PSJ04xUMpgNMUj6sNPbr0pqAFVECtLMIHlTDkedASVAN/QUgO/lt+1voRuDhM2dy3gL6jl7nwzL2AqcRCd31Vv1l8Rqg7+4RzvIYmrzBWCiCAcgMPW+BwozP+lVdiAvOnl/pwzKeQScSCV1bJzCwqA3Q/7IbfKkc+jurx4YEQD4FsLz6Dax+ddev3ELOOHt+af0kbu3W9xVTG3+9VNgXmxAJrTNZBJPxOf4uggEAOchvzW5tEAtCN044e365D8s8GJjib0VqhPlzS8IAfXeVwPVdgvsuGEUwAFnQ9OGZG18v7wyhG+/xYZnaZOOPhO4s3iT16SbXYH4OyKaU32MoggFIuPBV8lvdXrkpXH4HdP2+yYfFzD4sHrMPq3MnQJ8SfI6DR4Hnb8ceTiwAEpbfttQReBR496s6hEc4r97nw+LmQKy4I6GTTID2F8GeEUnyHxTBACQqv9J5Rd5hpT+7fq+/kcP4/Eb2pohQ9fOYI6Fr6/kzE2OiTgNZBLtjOfST7pFNCUCC8ttI51Vw4uQsv8MJxue3crINBo7Yh1VYBk2oHud9wo9SKbA7Gev6QwEFBiAx+W17Hfgc6LzS8jsidOPtXSyD+RCaRBvrYmwpGwP0XRE8etOhmexIQhEMQFryW8mqaUnmlQzdgPNqBRyMN/ayWox0NaoEaMupi0h8wtbRWwSrnmCGIhiAZOS3qGjhwAUZuoGr33Uw2UrgSH1YlTUBK0kD9N2d/uSZEzyPSKoabF0ApKDAdUnL7n7l/oir39Wws41qpig36d4ygVB+hlMWJxqebEo9IonV2LoAiJ2mX5B59dWfhKvfNXExtZDKj8TowyqEsQNYfYZDHsb20S/BckRSiSIYgLjlt5ovlUIzrwRCN1bow+KmElh+ID4fViscCVi5nLocAoKxWLx3DACAjQrd0PK74OgZoRvrtO6YN+syujdCl/7ms/I+Rk8sx/wrKIIBiA9loCxKEWi7+pZfmnD1u0YGsxNaXGukqMyyHXckUBxyeqIH4fVlqBuhegM/NACxyW9XUPjABdX1e/03x7TBFfuwjIGULK5I6MqaAE3pG6DviuBJK7DrJlj+eomeYADikt+mFgvajmb5HY9wXq2WyRYdFdUIu96qvzwLA/RdETx4YzmUPtcdJBiAaORXZl4Fh27cun6nA1RuzfWSTbpEG8/mXFiXIBdDhm9/HxdvOrSycJT/sXcuyq2bUBS1nkgaSK7ixI///9EaJOemNyCQrQey1mo7nUkybeYKs7UPh31KFBhgE/JbJ5l8IHSDxufo+7CEfSpStpm1WUpXAmW1nwbof44WWnPhaHhKoehMMADELr95aoL6A+8d3dDye6bxOX4q+z6tZLIJd1TrBmjhbMDa6wvg+8VfhjYmmGxKgMgpmrTv3Ag9+719tKtPOq+20Ycl7FOR0i30YdWHOnXrr/ra8XNtPakcwpwnqYb9DSBm+c1EcPFZGUzoBp1Xm+nDquxF6G3ENWQOB6+/et318f6lawMfnFLYnwQDQJSY0A0Vlnl1V19CN7bEhy0S2nxlA2kNde7SX70M9/5kq+4PYiiWQ38vowgNECM6dMOo6hj5JXRjW5xdFngDfViJaTayF6ArHu3Zl03ZD2hI2OoAotvd1P0sLSzw2ZzFXak9b61WWVm7iG+PM/riZOkY6LSrBOhBE9yGDCxTssEEA0RT2Dv0oRtSyuDMKy2/1Zk9b3t82k4K9a4deyT0YAI0N+AMF086tOzfsjkJBohGfss+XCjU/You84r9bpMcbUVoFf3YnDp1J1Aq1uLdBB89sRz99zKyKQFW39T0rd8y6xokQzufjfxesRxb5U065hKqqHfkzOF/dQLHhaf69yRYmQtHvmxKwZ1ggNXlt9CZVyJYfjv3W5F5tWWuUiirlYy5Dyu3T5Iw+nvkmf5rgqVnRNJNojHBAOvWnos8Db521MmvDt34ouFl07zb+7BEvEeDtU6AdhwA7zMBepCvrgw9fCcYEwywqvyWTRXuflUvvy2ZV9uvUkrHfdo01sU6mADNPfRfr1gn6T1U0u/dWcFOCLAKZSaCxx2pe2vlkcyrV6C1ZibpoXUxWqL6UAgaoMfxKT3ZlF085UYC0ABejCSVwe73O+Luitd4oT4sq5+MUn/r1K2/irtwVv4cPRKsulOHFBMMsLT8Cik9r8e/5feC+X0ZjhYLbO6hRZnWnw343xMP022CvS5YRH/7DOC1qOs8MHDj/gE2P8pNy5c6JHT0FEtZxleEzgcSOFqepdsEnzyxHH1yNCYYYJFa3kFPG/wbCxskv/rHWuT35fqw1FYioZOBBEpBVcZngoWnH1pxEgywkPyW2Y80nMBrR/JIm8vrYXOVxhElkVngUpEA/bgJvnazRdVwMJbSUwq5kQQwp/zW5chbv5UO3SDz6kX7sITdAqd1VFsxDdBPmuBWx3IM3wnW381rJBhgPvkt9LTBwbfhf+VX3/o94zFetg9L2AIpRWT1yNThf/VvysFIiAm+eNKhzXGUkphggNnkt8xHhm5o93sk8+p1+bDeBdYnhjH15DgaoE0Cx5WHGFbsaM0c5eFP/u0HcvQXYBb5bUzoRnjns3a/hG68NhfbVCS9E0d0FSkf0F8SoEeZYOkzwVKmZFMCTC6/et6Cyd8Pbr0idGMHvFvbY3XbexnL2k2ca7SSFdWZcSbYlw6tP/YN+gswKUmqPJ2Qllu/F3a3HfTn6LcyZWluSiPR39IR2GWmZ/KCOIpz1+SuBkcU3oxywo4JMNkmlt8zr8bI7xe1511UJo+2IrTeh5Mo9LeorHfVu1LOJ89v5Jl/69sIzJ+ryjDBAJNQNOpv3k2o/Fb0lu6mMGm/En77ShSbcCqFcukECdCPHPrrj/lgM5b+psAEAzx98nsosp937QMTn1uuVu6Iq2kNsCyGJoIV3Ehlfz0gAfo5E+zbDjDBAE/KrwndCM58Vt0NYXnkYG1ffVjCdhlYL4X1ryI5G6BvkAD9+EmwHLyR1JXLFCYY4HH5LZL+1kHwrV9de77SebXP1hwLq/dhDSVA0wD9uAk+BsRy3P7OCm4kATwmv6NDN27/kHm1S1rXCcXKkdClY1iI+W2p0zz3ziUCYjkkd4IBHpDfsumriGG1ZyO/8vhJ4/Mu+bQbTSGrVReyowG60w0aoJ8zwSdfLIcwf2OCAcbKb9LoeySB8iv74jPzFvbL0ZpIeftas+bumzmGZeoEDhqgJ3jrqpTHBN/2EJGjwABj5Dc8dKMrPutt7kJFb899WPZ0BtOHtdru2wzoLwnQEzz0k5TCt0ncfgATDBCswHnaud+gW793+WXews652Hr1dBpHttpKzu3t+4oE6EmPHgbvBHfp0JGNxgKIlULPW3AYB9vJbxe6wdEvSPtYJH0XZR33kwxkJdIAPRF/TtIXD90NaCjYWwE85rcL3RBBF4++I2EJ3QBjhpR95i3KmgAAIABJREFUKlK6jv66E6Bvf7FkpzTBXgnGBAP4t6w0OHLj++SX0A3oaV0KvMLWWx/qyr6SSYCewwQPBtX238AEA7i3rKSSoV3Pf+WX0A2482GtQetz4MX7sGqdAK1IgF6It8r0bCqfBGOCAWy71aFIvseYhGdetUwbhB9cXFORmuVXdGNfy0YlSICe3ARfw25NpCXt0AC/5DfvzmlUcOiGrj0z7gj+x7tjKpKS5dKrOncsZhKg5zoJbnUsh/JmU+Y1EgzwU3515pUalXl1+/eJYzT4ly+7BVaLR0KXaiCBkrLNLCb4EpAOLTDBAD/lt06yMfJ729i0/F7oIgXLJnx0FaEXHYtTF9KdQEkD9GwnwUfdGOIZkXR7Lg36C2Dkt8jTft5CWOaVMu73TOMz2Pdg50pactOtU2cClqIBesb3r7MvHbo3wQxoANChG2n3Tho67Ff/bPVJCQ9cXF1F6AX7sGp3ArSgAXpWPlp/KocxwdxIgr1TZiK49UrJPm+ufSPzCgZ2YOmaS7jclts4JgBr/aUBen4TrDwFNfMan7ABw67lN5XdwIXAxGdF6AYEcO6ipn5XHhfrw8oHqp8tr48LmGDbEvh1GJxRhIbdkuh+RRGaedXLL6Eb4LdArW0+jt6RF/I8pev+kS72sIIXeQeTcmhAw90hY4Jhl9T5/QVVBJ/8SnnBPEAAn47LwLJaYmkfCtcFYP1eQAP0YiZYeE2wkhknwbAv6T3oxufuo6FCz35N5hWhGxDIUTrcTz5766tJgJYkQEdhgr03kmRXFaEUDftQ33voRmDgZBf4bDKv2Lkg3P/YenCMAM4dCX37r2fuCQzqwrNZjPejL5ajs8jaBKPAsA/5rctMF5SDM686+b1SuIMxXF0KnM2+ykmAjoYv6Ynl6M/AuBMM+5DfIhl161cZ+a0uND7DOP7YZ1qaPqxZ99o6GRgBTAP00pWQU2eClSeWAxMMuzj6vWdejXC/7RdtozCaT1uDge6CmvkqUiltHdh9/ZsXyRXWwfCQwr4SracUosDwyvJbNtVI+VX66BfTAI/Q2nZdrY0zWuD6UAhXAtbtl+EcZY2T4JNnRJKSmGB4ecpMdvIbOG/BfGJOWAZ4tPpob4S+CeSMfViuBGjzm9DFv5oJll4TbDrkAV6TJFVh07J/Rk4SugFPYI2E1lvtjJHQmWsCob7EziNZiT99S54aeOE3Axq4EwyvSC6M/Abf+lWEbsDztUf7PXMhVTnbQncP0JRHnsh6vP0oqw30YmGC4eVOf/vMqyD3q77ll3IdPMuXywLPdRUpGdDfivfJtU1wyB5UYYLhhRqvDkXznUEQFrqh30NbQjdggk23tSrwbYnNkwBcOt1VRQL0+ia48vRD999rDjRjwWvIb206r+SIvmctvyeaRWGiwqOtD0sb0nqG9V4odwI0DdARcPWNSOomNKQlCgwvIL8mdMNIqgqT30rP6LzS+AxTcbJZYL0H59Mv+DodSIDmRCWKF7LWcyOp74fOayQYXkZ+Zbj8tmcqdTAdH855H9Mf9WXuug4N0LEcSly86dBdOzQmGDYtv13oRljfs6kLVSZ0A/mFSbmYRWhh8j6s3H7UQgN0ZCb46DfBOiq3oRkLNiy/yrhfFRq6od3v6Y0+UZja8rS2YEj9hXLaRZ84EyhpgI5rRZy1AntOgoWSKQMaYJvym5jMqxHuV9epOfqFOfiSVrujZDXpqi+lK4GDBOjoziXa4SvBnQlWmGDYInrewujMK45+YSaO9kRK3YdVT6a/ReXWX8Wdutg4S78E64bQhO0ctmWAc9VNERwXukGJDmY79HNMB9SR0JMt+3TA/555BtHx3npuJPUGIqMIDduhaJQMjLz6K7+EbsCsnOxFaCkm68OqG+cEBiVPPIFITfC9/DYUEC0xwbCNk99u3JEMDXy+yy8BBTAvf2wCbMIxyomK0I4GaPM/aXkA8ZpgEWKCOQmG+OW3LtN7yS3s7FcwbRCW4csuj0Km06z/ZCCBUnG6EvW6EMODgs2Glhzoh4ao5bdIupzV4Fm/lTa/TBuERajs9lSqZIqNtXTs4cZk84YZswk+drEc7o2ry47WJhgFhmjlNxej5Ve1dF7BQrzZ47CEHn3z9MZaCFcCtCIBegMmWF+CVL7zMu4EQ6zyWzbSc5hiybw6fSK/sBgne0iGmCISOnXqr6ABOn4TfPKZ4NsqERITDHHKbxe6EZp5Jbvi8xVjAItus640juf7sLKBEcBX/uTj5zPAPujyXo4CQ2TyWyf69T+0+Cz7s98z52KwMGf7VCTxdCR07mj71w1YJEBv4+3s6unFMtmUDGiA2BQ4r4Ll19y4M2v8i84rWJw/lasIXT71Dpo4pi2ZBGhW+kZ460P5hhVYTD/DEuDh3pNMdHltYzKvKo5+YaU9VvxOXdDaWdVP6K8rAVqSAL2t97OrL0CoS6xPSzZ+iIEyU+Hyez+AI3QDVuMkq4n7sEwCtLsBmoC3zZlgTzy03sga9n5YX35TGd753E87kicqcrAeH/Zi8c0WP5x0VGd212SsNg3QG8Nrgs0upipMMKzZeHWodehGkPX9EbqhCN2AdbnIypZIqR7vw3IkQEsSoLdpgqt78MaQBitjgmnGgnXkt8j/FtnCM6/OHP3Cyrxb+7D+Y+9clBPHgSgabEDGoyZxzPP/f3SRZAgZJKudTTLYPqe2areSbKaKsXV1W91X7kH+oqdZxvu6SIAeswnORtlLMMEoMPwD+V0vQ8CecupXvPy2e15t+Pfs4xcmyNcioTdrm7zn0Ar1nnGa4Ma6VoHMULC19QYJht+X3y7zSjn0a42T3wPNKPActFHL6jMWhq+mq+QNSDRAj/qgwgdj5Qp7zATDb6qvD90obXeH0QD5PdH4DE/jbxJ9WNZshr8R6QZooQF6zA9JmzPBoau05pZC+D33u1oWIbbcDLlw4UglDp6Ig43dwH75Sj3YzpQJ/XUJWDRAj5pjzgSLrwNWXNAAv8SqLroWQG3q1eVnG0I34Ln4vkjouucKYBqgR857mwnGst6MSIn+wi/QhW6ILnRDgslotsgvPKG5iSvwwFGkZY//bXjwJ/Kc5LIpvQkG+FEW19AN5W1HQugGPC0SOQWWcOHrADuzkET/MwnQU6mVNKpgLH9LIcDPyW/V7ez1pWdrCd2AJ2Uba112g0PFSq/A62Ql+/IPXYfTYH+9Qqb3INjt3AB+qPlqafWpGzf5pQUFnpc2/jTrI6E3L5si3orofzEz77Mxwd03MMHwE33PXeaVqI5+b6EbDQsQPPWyGm2EHtSHVUr6BqQTn/C0TLDJK7AsXuiHhu9VXx+6oRRfv0/0U78tA5Dw5BxTtyKVynejTiZQkgA9td3aIUwk5ZqxnAlGgeF75PcjdEMfOVk5+T1z/AVPz1v8SMUYZST0IjGh4n4pCdBTNMFVbh00mGD4RvldLYrh8lsdid+DMbCLW2CxhWIFdQnQkkygpPlwhiY4JCSUZFPCNx39Fs4PqCMnffG52bP2wEhoYwrsOqEVDa2rlP4KDdCT3bDlbz43PlAcBYb/K7/r2gyUX3FHv2QPwGh4T87VZRfQZAO002/6Dydqgk/9vVhdMBYXNMD/ZVEabeTVR4v+4R35hTFxiltgFwmda4BO+d/LCk0D9GTZXjP+8iYY4Mvy649+RX3XrxC6AaO0NFWqkTnTh1WnbkC6/D4aoCfM2/kWtNJ7ElyskRH4Gkvjs12Gye8R8wvjY58Klyn6X5GeURQSoGdggjOxHKoiCkCk93l5qyrr5bfi0AvGSROzwJlgwc06eQPDxfswAzB1NCb48s0KEwzDGq9eVuVdFUUTuuF+rCF0A8bKLpmvukm+KKtE2VpIgJ6JCa4y/dBXE7yhGQvU8rtZX+8WF6uX3wMrDoyYQ6ylJpQQN/E3hQRoOGeKhOHaVjGYYNDK76JwkqofO/KhG2cKbjBqXuMWOBUJvUk3QJMAPScT3LpgLMkFY9mabEpQyG8I3VCqr5ffy8PVHGl8hrFzig0Dm0Qk9CbZAO0vAWv5OGfDMQRj5WI5qgUKDBn5DaEbA6Z+K0I3YCok7/RdxFbOhU1NIF0WW94ITPBDOnTNLYXQJ7+LUnwEvW7uqJPfw5bFBibBLt71YKKR0GubSsAiAXquJjh3RRImGPrk16XfauU3RK1Zjn5hOrSxNdRFqy4f1s2VJOYD3C+gHXFuvLfWiiKbssQEQxR39GuNsUNCN4SjX5gSr8ki9OpvBU4nQItlGm+G7BWhCRd3YxZoDTwY4No9OUZdeg6r1J7aM0yLUzyNwzykGZXJ818SoOe6e2sywVjXaDVMMHyuppVW2XZ1J7+EbsD0eIuPIhk3inRP3XPSRwL0rE2wtZmTYLGYYLid/L6siwGhG93Jr2055YIpsovdivTQh7WIFxsvX6xogJ6zCW5DMFYuHRoTDNfMq8LvyUSbeVWF2wZ512CatPF7Cc2Hbdm4BujE8lqRAI0JNv1mxg16YoKRX1d7XlRWj5NfV3s+0XkFk2Ubv+NVbpHQyQRoL9M0YGGCMxNJ4WkqCMaavfwubSZJ/G/362rPdF7BpDmnitD19c0p0gEccuQDnDs7N/Dba4LDUDAmeNbyu67twMwrV3tmfw9TtzA2dS/h6qVLgI5fgeS+eubzg9ezJpvS2nKNCZ6r/C7KIe7XBvk9u84rDDBMm6O7vSb2GhT+9Vna5B3AlgRo8CY4t7iGxEG7RI3mKL+bELqhvu4oyO+R7hKYBU28CB2KhoueBEphdwrBBJ98HaVXgt08ScEthfOb+q2rEK+nKj1fJ8s5+oUZ+ReJFaHFXPyv9CRAs0WFK1vzkRjYNxNco0jzkt/SCaru7Feke34I3YA5cYhGQrvW1SJ6QNwJNrPx8MHbOZdN6U2wYIJnxLqw+Tm1u9KzELoB8+M9ZoG7r0hSf/d8cPDJBEsum9KXUwQTPBf5ra7Pg+gzrw5M/cLcOPU0Ose/IzRAwwPnXDZloMIEz6D5amHCdRzazCv/42eOfmGGxG5F6smLu7wsNEBDxARX2WETv6erN0wkTXrsyIduiLbv+YLPvDoivzBLdlZ7O8lVm3lVIFVMUSgwJnjK8ruurQwI3Qjy29J5BbOlUW9Xwxra0CgBcRPcuGAsyQZj1WRTTlB9P+RXv5c3PnQD+YUZ8z7UAtszQ0gQ5ZhLhw4NN8UCBZ6e/G5C5pVRZ155+T2xmMC8OVujV+AwUEIbNMR3c23OBFtM8CTld+Uyr0TtfsW732qP/MLcebNDitDh2IZrOiH+MOVNsC9SYoInpcA+88oYa9WpV+JCN2gnAfizSwVSJkc6Lz/NZUiQNMG5ldg5pXKFcE1l6rfsChuqqd8u9KplDw/gXUszpAh9DfdteIEgsaHL9kO71dpwS+EkWAzKvOoiJwndALiyza6X0XDfE58cxHhtM8FYXfYgJngC8lvpx37dI+FPiU/UngE+OA8rQl9XV0wwxNkr0qGlu3ULxnv2u7yNd+tOfn3mFaEbAJ94t+rpvTsP47ayfHYQ463Np0O77xWY4NGGbqzq+6VA6X4bJigAHh2LkYEKHFbXChMMSRPcezAoYelevNAPPUL13bjOKxFrtfLrxo6E644AYoalGWqBw8XAwnkOJHg9KGI5bDgJRoFHGLohRpSJk1YqN/VLgg9AtAR9HHYG/Okkz7CrhbgJNi6Ww2azKTkJHlnt2YVuGG3NrJPf5oj8AkTc7+5gv4jf21p7ZqYAoib4HExwLhirXGOCRyS/l936YPnds0YARNbIvWuXqeRLDthbmMv/W5GnDlF2Vf6KJNecs0TcxiG/69IMc7/uRw9bzqkAIrXnc+NC0WXQjUgxE0w2JcTrKyc/NC45BS64pXAsoRtGPfUb/t45+gWI2pPWdvKbDa/JhvuSTQlxtsEE98RyhAeoRt+eX37Fu98hmVcnas8AEfaN7nWSLupGMlckEcsBcU66bMoKE/zM9edarLr4fJPfPbVngHhl0Oa8bfcuVa3NRQuGchMmGFImWPEAYYKfl1U9oEnkKr+0hgDEeD/cDfLm26x2fxqFCSabEvpNcP4BEkzwEzZevazK6zZJ1xTibXKD/ALE5Le5u5RTJ8Ah10gkG+6LCYbkQ2dy3QbOBDOO9GTyu1kXVpt4FXoy3U6KrkyAWO15d72TU32FiRNgf8ONycTrW7Ipoc8E565I8sEcmOCnmvp1jc8idlDmVUPnFUDMhxy7MYIhBzo21JL2VX6gxPXScNkJRNk2Lhgr/wDVZFM+T+iGGbBedO63OSK/AJEV8Gxz8bzRRbHLmsznGgWH05BNCVGOinRoMdYsUOCnCN2ofejGAPm9/OuwYwMO8ICPvLLDMzfMTYD//Nk17n3MpCpUzP5BqgLT5tKhLSb4SeR3UYrv+9AXn13oBptvgMjKd2ouL8lXEiflToD/vJ4UJtgwgAAp9tlNYHiAMMH/Vn6XPnRjgPz6MB423gCR2vPBtUep5VfuYxM+CbA/yBNRmOAD7yJEKzFt5p5g68vQ/pZC+Ed08qtT31voBq88wCO7pouw0RSfH/qjL//9qbH57ZibIO6qUXs+eYg+j7lgrM5PcUvhPwvdUCc+30JGhZoXwCNvR+Ovzh64m23vHLD5a7LoXZNrdPlTW3bEkDLBuQw21/tTYIL/gfyWn+aydfJL6AZAbKk76yOv7iLzz2+vrlfmGkX5MNp71OUaYYLhiybYl6FFuKXwlzOv1oU68up28mtbZv8BHnE9p+rIKy+/7n2qXJrVe68A33KNpH8gyTaYYPiqCXbbOEzwL2de3QJRFM2ZIfOK2wYBIrVnf/Qroi8+u6qfbUMxaXsvwDEVPdpMLw0mGHImuOp/gPwTtHyhH/qXMq+uRS3RT/02J6Z+AR4dxv5mQ5Xu1+1mq8O14TkrwGGks98E+z+bCxogvkM8aGI5xJ8Eo8A/HrqxFG3j1cfUb8ttgwARcTwNydy4yu99gmtegP1Ip/QPlIT3lAsaIG6Cq1wsh8+mlOUGCf7pzKsvyO+BziuASO35YHNxGX+f5TzsZnfW3L6fPMh9P2RjOfwKSzYlxOs0J8WD6tqh1yjwz8nvZlFaq536vcnvicoWwOOadmxCd8Qg+ZW/I+Q+CXC6zrTLjeuH11XOlKogxrbKnJKEdGhLO/SPye+yGCK/tsu8Qn4BHtez82VBMwOKz+J3s48RckoB9nNO2SuSKgYFIVWvOeUeoA8TDD8QulH5mACt9/V/U4b7FgAiftSNHWnlN1wK7IrVsddpfxNg0yvAF803dwPEPTWrAy8t9JjgbK5LjVz+TOiGUZ/8+r8iDpQAIuwb1zA1NHOjjb9OnwQ472Ey0YI+X99ggiHKyeai1bxKVJjgb2VdWNHe9vuxXlB7BnhUwXPIb9VnboTIq1R/1QAB9h7Gr565WA6yKeE/9s6oMXVUi8JTtSVtQU2jifn/f3QEYrTHhA1RY2K/9TD3wXNnHAdYLNj7o1OW6xIeQP5zQvAd7TfT0dSN080vT6wg1LWAFY39JgGfVdV/KlylGPA5w0hYDkIwGjaAvE8oQvBdaq8+307ESRNfeKWAbiDUEUBznxDikVeOnx5kVF0acBH3HcKVlE2GIQSj3hAsDSCrL9qRbr/6XZ23xNGFmjnt/Ahdabtvcc8JyCtVrqVEkmbAPsMoAYxlvyJsStQ3gIwExrJ/JQTf1nf08ZXU9evs1xScXSF0nRsOWngVQUJe9a6GJtGAWzal0MdAGQcKDCAtYzm+YFMO91/72K+Jq3v2p2U2/dYUPiN0FX7X5QDmRhzAtU43YMemzKSmYMem5C4JdamKo0OrNxx4qP8uEpCT3n4zoBsIXWmzz+Obfs8EucjN7CAD9mxKLYTgrLf3Cf35EFzGheAlIXjY7W+WwLxy9pvvqNpA6GqlOmRp9tsgr2I3s+VplpoUA3aPzAlfym8EKKhEvacoUghWhOCBWuroBxdczUYO8wqhK63dcwsJh8/GXvtk+/jN7FAD/t6UwjvBjQPD00HdA6iQBtA5BKO0A+i3yLajBidQcvaM0HVIyO0SpBKafo1DXqVsZosLAy4TdwdyT7BLOLApUd8pijiAbBkRDzSkaiFjJyMgPQj9XW0PZgBzI3k2/TbgNKt0VK4gWdDDfWFTou4BVEgdSf7zBSE4KQB/iBdWZ/vljgihK9kilYa5YRLsN73suDjtldMT8EUINuGGJEMIRkNDsPuYEJx2Aq2i7qp0BnQDoWtfy1v7TQA+Z0PQF3mbgI2uB/z/6+aoGTYlekgI9lgXQnCKAa/CDcAt84pJidDVkrRvahOj31vIlB7c8XOrAbsHGjIpBBvw7qgvBBuhI8kforgQTD10lAF/xbw8WFIdidC/2lTHtcbVXcVd/fqm36weWseYXRjwYdjfwr60HixnbSyY/Tbq3HHWYkeSmw0LeoLvY8DHn7OAeYXQ1VK0tie6WdzbJW2jjy6q4elS3W7A32uZTelCDt0OqDsEZyLXxdVDrz6x4KgjaMGAFZthhK7C796WJKcir0x502TSFwY8vCKjiqFDZzzQgHp2ngdpAHkU+uIDB46qgg7/lIYnjxD6rZ8qH4K8OtyYKs8GrG8wYFe1LdGhYVOi/lOUXHoiybe08Urh7X3APJWC0D/rT60ejLyKMOCb8ulOevqsWUEP/MdGPSFYSbvP4/ghBEedQYt9EzfttxF6Je0Le/WbhLyy/Nb1Hbpr2yXv5hd8LZuybUiGTYmST1HyCz5EP1nNfGGxERHYSA8waJMTghHaVq6OOZW5caeKpvsZ8JmqIHUk1fxHRz0hWCRj2YOfNxxWiMDv4i2wqywnBKM/rk2t44mTD+C3tv/Ye/QJbcsILIddQQnBqCcEN+SN/hlgO96WHEIL+tBhC2447YRg9JflkVcqnrnh/py6YzHxXQ04jq9vP6xhU6IuHZoCQym+feCxYb0vdLgosjlpIASjv3ritlPNNIg7ez6GR/fa0V17+C6PoO/xN7YhOOYYWhOCUV8IFqoh3GeUQ0tauebpUF254/0QgtFf1KY67fVNLHPDTqg7wyy2lwn4Pp64lqgKzb8zr6Ch/hCsg7VY7n+4CZaOoRdaYFL6E/2K4yj01/b59QDmhs4P9zatBxhwBFqwuQoGx4M6J0chgbF8K+sXbMpwKZYNwcIK4xyYEIz+kra7ROSVZ24U+/vvVDcPMGB/tS2gBd3E54EG1Kl9xBbOFkO84cBhB35fiiHY7e0JweivaFPlx/yXwtxQ1n4fQ09/jAG3bEoxBMOmRMNCsKdDLwnBggW/CX0JDaKO7nz0J7Sus+OWM9Z+TWO/pnrQIdEvA/4ZeQW1W2+IeKhTOy2fESmj1QoHlkNwDKed7nz0+qtKcRzuWfzhsydO5ruHHRD9tAdUdzZgd4yopCeS7DOG9EGgzr1hKfWU+ypfG4JRSG9axnLYWEAIRi+tfW5rHpKIk/rB7xf8PCoB2xW00CdqZpAOTQkI6gvBYlO5xXKs8FihJ3h5WT7ejxggBKPX3dDX5qnIq/ENOHoFZeKjTm0LoSPJP26rF4Rg4ST6TWvhZ/QEMkIweknZK9F45JU+2e/DixPXrTsqbTYPWUEjsBxGEYJR9/iMIqsRgm8FY51+ZfbC6AWXkVxHYOb/fW8h342xwJ0TsHpE2N75WpmwBTPxUd8WroyYOIYQHAHGUkJHEiEYveQSsj/hn2IPn23X0UhP1z/cgE8rqIZNiYZt4Yyvh44JwdRDCzfBKqK160BPMHoZ/RxOEdAk2G9Wj3Qmu7sw4OxBE2+XSSuon/g80IA6t3C1cIjSPO2z+MCBhXLoTLBgvxmmHBq9yNKxLhvkVSxz42HIqycacLuCCv3OsClRzyh1ZDUjZrfVJxYcE4K1hOU4gKhDs9dmXxyHe4L9ao+8GtOGRjHgE5vSiDwe2JSocwt30PI+VhGCI8BYmVZGep/huBawF0bz1k9lTScF+Ozstxq3Hnh/acCPXEEraQW1E1/pDDYl6tvCqeAxtA/BvFIogbG+4ujQPFaG5rxelLpJv9H2e5wV2X7sUT+WAbtGLCPSoWFTotAWLqKEaMEDDdJNsJKKyt1LKYRgNFfZs2edxSOvdIO8Gr8KaTwDdg80GC2EGLs2wKZEnVu4/AJQ01+Lpb/wWJkOLWI57GNlVEWiGW7VD66OOb7s2f+551x/ViMasF1Bwx1JfuIb2JSobwsnHqPY7PaGz95Oh7afE4LRzGQR8lLXxDVz42m9d5cGnI8RuEWwkfuYEIwCWzgR6bTkEFrIwUvRgd3nhGA0J60b4qTWKfb7xMqjw7gG/L3JI9CChgcaUDAEB4+h3aUOIVjQR5jJAR8HzU3bXVuOGXn4rB7+2lG0AZtxDNiHYCXSoXmlEPWHYKG6wlkL5dBCBrYhWIUt2P3MhGA0B23avfkkkVc9qkc3YPdKYRamQ7uJD48H9YZgFTHLCMFxYCzxKpibYDR1rWutU5BXzn5NXj272a4e+QjaybEpw6U0Bigt6g3BhTTXlNvGLd/pSAqn4C8tYzng46Cph99dkdb065FX5QR2luX4Cdj+YLUQgpu9NyEYdWp/HBsR3ayanmAZjCWH4OMvDR8HTXY/bpFXKhl5dZiEuVwacDHmiUHmzwDg8aBBk66UsRy2I4kQfCsYq7ksIwSjSWpdq4Y4GfvegkVeqf1ExnPxJAOOoPt6OjRsStSpXUSznz1eXeHAQjl0JnckHWeqZiKi6a0CKcirlrqRrydzuXlpwOXIW5fcN4yw90ZDZDvuxfcZmhCMAiH4cxXTsKF1wUREU9LWnj2nECd9+2I5pRbX/HkGfAYbCSGYvTfqC8Hi+GlCMJJ6gsWX2jQ3wWhKG/B6CHNjai9tXhpwPfo//ScTwEbN3jtn7426tsDlmZoYMo8FIVjQl47CchCC0TR0Ql4ZnQR8ntwWMnuqAceFYNiUqHceSnRo5WuMCMERN8HKyHRoQjCawNn2vgtGAAAgAElEQVSX0TIW/p8Ud8xxE2xoV60Ba/MMA5bpvv5DQwhGnSqlieg/IQSLIdgQgtEMtNm3uKYY+/XMDa3LSfa06rMB68NzvkJ1ggcKe29CMOrcDWcRTeVNCKYeOhSCFxEdSYoQjJ6pnzrhsaOWOJkfJrpvvDBg8yQDbtmU4Z+RBxpQt7Z13IxcfODAwXroKDCWLYdmIqLnTPW1bdtJZm4U+8kyFS8T8PMi5j6T6L5+IwObEnXJdrRl0qQ8OsfqEwsOdiR9LKXTKD8RCcHoCUltf0JeRTM3rP3WU+YpXibgJ57xOjalFkLwcXOew6ZEXTvjGKzLcfwQgqUQvIqjQxOC0di77EOWiryyua6a9ki9TMBP3dbucukYETYlCofg4CGKcb2shlcKpRC8kMBY/iaYkgw0pj/YjsNo+zUNcTLfTd0uJmPAcSHYEqR5HA11heBKOD1tLjAXPNAgaBX1PsNz3zFHf2tut8irqLrnE/JqPf0ry0sDfrazrbOLjunAzIdNibr0k0vjx0fkJf4b1vsiAstBXwIaK5opV3mVyNyYx1nplAzY3eRJWA7rwIYQjLokYl20C8HZGyYbvAi2ITj4Q54IddwEo0dvqwtfv2FMkv1WM6nXnZQBn9mUwbZqaACoPwRraadsj1cJwYIJvy/kJ5IIwWiEU9H4tl+jG/vNZ5PQtpdV0JP41geB7tvwT+DCo/4QHBo/jQUTgoUYvNLhqrZmIhKC0cPcae8c1cRWXjXEyTkVJ1wasJ7G97YhRhGC0UBtpPHTDCFeKYwIwUJPsHly9yJ65YnsLyRN/N2vPT7N5tUms5meAbsQY8J774m+bIEmE4IlrIt1DkKwXA5txHpoQjB6QDJcl2nESWMmjryakQHbe3cBNwabEsnjRwvFWDYEcxksgbGMfOxXQahD97SlXTEIeTW/4txfBjwhO9sff3+RTcnMR33jR+lMSe8EK3cTjAOHLNiH4PBhwnHtg1CH7rd/rrJU5oa132qOcexnogb8vSkj2ILMfDR4/PhiLEKw4MDvy+agWbh8A9OO7qJ1i7wyCek338+zJGiyBvz9vZNqaZj5SB4/RqBDmxUOHLLgz//eZDAWW2F0p6OrwhZSqYTDZ+PqnudqAr8MeGJ7CMumFJ95zebU9IXGHj8q4omkBeXQYgg2Ih36+Adqxhy6RVv73IJFXsUzN+wfrGdcCrSesAG7b3ea3CEgjykZu2jI+Gl6glf4bFhvWsRy2HmYEYLR8DBY2tmaytyYeRnQtA3YPbV+Yu6EZr4mBKP+8RM+hzaEYJkOvYyhQxtDCEYDnShPQF7pE3FSzb0V9ZcBb6f5BeUQbB++4CYYDRo/fgZ8YbJCCDZCR5L/kRWdgShdO9OAXWKZG64q4QXKDnZTN+Dv75gQbD8kBKOuEFzK48f+hRAcEYKDHUlNKqEoEqVpU7VcNRPP3MjqV9jrzcCA3eFEsKPE48pgU6Lu8ZMJWJfmg9V/1EOHQ7AS6qGbJZSbYJQwPWsts2N/7fKs/eYvQoD4ZcCT/ZYH8ZE5fygBmxJ1heA6boYvPnDgMB16GdeRdGArjOKmZhLyqmVu/M/eGSi3agNRtInzguJITggGw///aJEEjvMeaKXEjgGdbaftjNOZF4N090q7Z5vN7PT1KgTYswXDHUnGrvyKGyhi7hBF6mjrNXr/ggQHO5IelLsINkIqTDk0EbOt12Uic0NZ+W039HatRIAdYF+mQ/dPp+YGipjItE8RYLVeWh5hU8pgLHE+Q78OO0wwIWTFnUkgTo7IK1VvymStRoBdl1iUCSb5JqaWexUesTU0BZs9xViyCZYOCgvwOISgPJUtpEq5+7VHL9VxYwbrtBoBdvfVykQMaKAMk5gxwYWWRyQpphQKJngvNYsMeBzWITGzFtuyf0kikVeffYTN9m4YzwJsli/ADrBvdBirYKDSEnOHKOVnB//8Wi/MjkPocDwbCcvhwViYYGJqH7dnz1olMje2WdrXrsgBexMcroce9BkgDzGXbxojURUxwdKAhhcRjOU3zgoTTPwVh2pAXulo4LP9r40W97RrcsCvZ6yCRIfWBSaYmEq+SzmDszecmOAYOrTYGGjoCSa+WiijIwDtfx09b/hMs7sQYLWOBCrGBMOmJOZNsDBjy3+ICRZs8C7uMIp1SJzT3zTklb0P0tu8+p0U4HIlf+Ymgg5tSL6JmV2gErAcwyc7yqF/BsYa0b6sQ8LGRzdQC3Xc1a/2yKttU12aFQpwFJvSftrQi0hMRK2FQcHDR5hg2QQX4qBg1iHx+vpur35jZw2em351tXW4YTN+If2/qvU8zVYcXOU/pQyTmDHBIgCg8CaYy+BQT/DjMJdG6AxkHWa+4CzyqohHXhkvv932D0+qVQqwL6VTWiAbwaYk5kxwoQsRy2GcCUaBAwr8speaq31nICY44zi0RSJzwxIn1SmHvftCgE21qj95DFvQsSlZAMRETt7FsCkxwaIEPysttnX1e2/BOsw0jo1HXsUzN/p1qctjHilbeRbgPktd1x/dsikL6RgaE0zMbQwRI5LsDecTChw2wU+SArt1aJgWmmG8nyqLvCp0vPzaK43mkEvt/IUAm2Ztf/g6Ykph0T/PEwuBmDbB4fke/ibYTikkQibYNvwKWA77I5jg7FaY8sgrDfJqJtSFA14fPsoW0xgdbimxGRVsSmIqDhIToPAueY/OhkV4/6WBa9bZYIJzio9quH4AeTUfxYUDXiO/8agjmoJtUsV6ICZOyLpPckuomv6RnmCBDi30BI/rEBOcTXKrUpgbo/xmN0NLXzjgVYrUexW3hTIinJgzwcGOtuHdwgQLsTcSlsN9yZjgLBLbejxRjkNeDc1sGY6SvZjFYFbqEo9GIhv55KqDiUdMhGSCB6Si4iZYMMGPkgn2uzEmeOvxloa88rWyWnU55maXw5DWWqv03sRRaWHiEZMmuBSxHK7QYP9CPbRkgo3UkWQoh964+T00dq52InPDlJlWyl464PV+BUe7hQodSTY771j6xMSe0UodSd4hUw4tlUM/GvkmmN78LZvfoyWtpzA3HPKqyRaVdumAV7ws3mWsAkw8ImyCJfvWvz57sBxBCbY9wSId2vYE05u/xfg4qW8gr0yb8dHkRgQ4Zgt1S193LH1iIoOLAqsZ/QibUjLBOsoE05u/uTjavnqlUpBX/YtQ1lkfS14K8HHrW6g3wZx/EVPZeyWB1Xy99J6OpLAIPwkKPGTCmOBtZbB1pRPdr2UkVYfMS2O3I8AxW+jAxGPpExNxkuZ79G+XBWMxpVA2wdKUC2MwwRuKt7Z0yCsTy9zw2zTHke9bEmC3hRppSqHNzln6xFQGV17w8OY02A5o4BA6HE9aHNBgj6FLMuFtrBs7bkGrROaGPtEX+lWADxvZQiUwVm+CWfrETAanpTS+AIwlxp/HCPZC/xeZ8PrDVt/o2L4jowf5VZTDblGA3YAGuSm4/wmWPjF1llbKCuzRlLjg4EG0ZIKHNJlMeAP7rU5hbuSKvJrZbzYnwH5Ag2SCrQ9m6RNzJliYkWT0DpGNMMGFkcFYZMIr3mvbUX7j7n6NQ16ZBhzDpABvRZFqf04o0KENAxqIuQyuEI+hH7DAMTfBRRgRqzHB642PxldMxN79evktufrdugC/vjVCScCw9DHBxJwJLoLzGQr9iP7+vCfYgQipxlnlHmuRVyYZeVVx9fs1idmkAL++HpXUUuKXPgMaiG9kcHbbecYCR5hg0R25tgTmda9NN2q7wapI+R2ZG7rjOYcEeEsn829dBNmoKJhSSExGPchs6AyaiDDBuygwFjWRa4pDOzI3TKT7tfKrThw4/vtVblWA3UBoU0hgLMWABmI2gzMhLjQDguNE+EGkQ7vDKkzwak4Xm1TklbJzoI/ss3kJsJtxEwaTGueS6UgjZkxwyAEjwJEm+M9OonL45hRqItewqZ7KeObGZ98RyKsYAd7cfehBhc8RRxNMWTzxT1i8j8EBX0GB/3uQzNIAxsIEL35NqATkla+Qtp1m7K95CrBnU2qhKdhmaAxoIP55c0KyUegnxDXJBMt44N4o8d4tWSwqt13GVl6Nu25Noet8HDcuwCObMtwUbKdykKQRn2GBWIGdxmZtVEEn3QSbOCwHJnipUask5saAvOJUI0GAN2xlhKZgiDzE13fG6MBOYz9UwCjTwFg7PezJ4WWICV5ivJ/GIQqxzA33qBuufhHgCLIRWFri6wsT3GoMJ9Df7AkWOpL8WRWeaXHHiN2YIMXe/driG9VyqiifK2QgwBFkI7C0xOWakOYxFBjgb5pgsSPJlkNzabgk83uoIkaEfTl7dsgrymoQ4M8UrhKxHE6DMcHY30qqnHciwQ3wd4qxHlQElgM6zpKWw9FWQ6QyN3RHa2e0N8xBgF0JgSm0ETdWsLTZZ6TiIIb+NQGD9QMTrGUsByZ4GcblZFKZGyCvEODpVK6JMMH9q0bZXs4bTuMaUoVBSFo9I6U/MMFFuCvBL0Ms1N1jRF4ZkFcI8DXeJ2XNS9gEw6bM3P6KkIFef/d/kNKf9QQXEVgOluFd4/1U2Vr/FOSVPXtuDpxdpESbkQB7NqUwIsn+AGzKLONNLBTw9uzhP+5/fxQPWtjVWYZ3XwtdAvLqs2eAuuefCLDZ/q87sCmNyKYkjcvQ/hpdxNlf9PfnN8FBGzxwHFiGd9omG6upKp654VcNyKv06C4EWOVwsNIKJfUjwoUi+sxO3MRmca/NVF9dywRruSlBG0zw74edpS6wiyaYG9TOfFOAzVmAyyx+4w8lgrHch7Aps9p0BGT4oBc7vO+1LoN33l+ZwLdt/8YE/3IiWg9TFKKZG05+K+qevxdNdgLsjt21RIc2mODM7K+E3vD2FwG+mgI/F+FiLAMd+tfjrT1f6UaVPfvTQkO93FUEuMrll7YDGlSECS55r/Kxv1L1VW9/KX6+qgK/7FxPtQnX9mjdYYJ/Jw0dkFfR8uuRVyX8wB9ElaMAj2zK8Nq3XwwmOIOsv7moI5kvviq4/b0VGEuktHMT/AvL4Fja8+QE5JWT34ZngwB/xwQ3YpG9ywNhU27e/hqJz+JEAvt7ExHeiz3Bbl43Z5y33g+/h7xquR/4YZQXAtxk9ZvX7gLDiK3lsCk3nfd3tjVc6ko1it7fu9GhPfsTo3XDOHQpyCu3MfaPpKxJixDgHyR9du81Ah1aUV+/afurRPLzaH/R3xuBsfbhSWXn1nx2+9vEe105+dVp8luBvLq2AGc3CvsozgkeoHi8atvcesQU7Dx5Afm9XTyrcFOCA2P1K5GCjFscAbWlJ07GHz7bA4uOqzkE+DoHkAId2kHxIMNvMv8qtYi+Mtjf25tgexMsD5mlNf8Gp4CNrYFLRl6deBDXCnUhwG2Gv/9Bj33nQPHys78SbqAY0Ffo7+1NsBZHJPUfY4KvuvmVQ4e7iZVf+x8guq8swDpnAXb7cLgJ1CswB2Ab23xM1NZD8fMvxT6MpoRPd/Wov8Pc0BUVMTcT4Ewbqkc2pdCQZFj7G4pOawk9aT97Qhl/2QRLLcGUQ18l7OVbivwOxEnawRDgO+zGhrW/Mfsrw+bthvOI/V2UCdaY4Ct5jsaThuLl1yGvWu7hbirA+R6y2suQQjiGZu1vJYaJWMaE0RvY3183wY9ST7C/DuI26Eev/7GK976fyKuKbx0Bvl204o2g35V5C9efbZnhUiFYfWWwv79fD+3AWEYGYzU0wXzb/NaWfJLE3LD/Q8fV7+0FOOsT1o/KUTeMtPaZu7V++yuxN6zLeqL2+R4dSd4EG4GCSCL83eSzTUZe2S7ME5verbYjBPgcdQwdGjblyneg0te0hx6yRV89o7/30eCXp6HcVmjNJxFOj2PjkVcJwGdrOY5cvN1OgAsEOM0EKyrx121/lVT8bO3vC/J7TxMsSTA3wenxdnLEyRTklb367SBO3nRHMueqB8Pk65FNaaS13/LmrNT+ShmW/fAR+3tfMNaTeBPswViY4Hhz0SktJ5+Xs1jdD4K8unVaZC4cMAJsZ8PKYCwGNKwzIuyvXQ1PiO+9RfjP47kTe74jyeoDL3Vc5lm5o51I+R33v+KI+b254GgE+K93VQRj+dcYNuXaHqyS7K/7jOLnRdjgJ0mB/SpkXHdE2LrnJOSV+zk8xq8LMC+zjfcmAstRcGW+sujc8bLoACh+XpAJFkBlBhMcsZ21XlPjD5/dnSSNXr8THwjwtAkuJAm285Mxwat5z0XcqFsI2N+FmeBCpkNjgkPvfTfOMIo9fHZXxSCvEOA72yX3whq4tNuIVov6ax/3Hve7QDBW6BzaPVNM8Iz59Ve/CcRJO/zalJSX30mAqXj7NMGlULDj32oGNKziJS8vRpnOkK8KX/xMLCokEzyUrWOCJ+LtaAlWJpG5oRuufn/5tBUBnjNNYWDSwKXFBC89ThJ6w/f+7rn9XWBP8C5CgQtM8L9J5ymZuWGLFFtSGQR4KV+Nw3IIdGhFucLSd6LKlcwZgfFN7+9CJfhJy41jwHH+imOXzNywo2ZqFOCuAszN+9/WyR1DC+c2IHlW/QzP6Cv0d5kK/GcngLGGVQgcZzx7rqt45sb569MNyCsEeHnuSRcRJpj0e8EPUGF/V67BD/IxtAaOM8pvW6bKr/1yOXu+01nFpQDzdfwTtVCHOb7ApN8Ltb/CPb57gNjf5ZtgWUb6Z9lhqFzds0pgbrgfrPFedxdggwBPJpSNBJHxCkz6vTz7W0Y5AezvCuJBS2V0bhWqvFfh0Zb7W+KkjgU+g7zCAa/gK9JGxHKQfi/Q/urQVjR8sP8P/V2BC3ZgLMkE9//MdxW+n87tkSnyy0SLex+x4oClN1tiUw4fFmSSCzq5KIW0abgApvd3NSbYCFfBWa/Cty5JfvVAnOyoe0aAV2CCjXCZOLz2sCmX814bbeTJCzt0bT3xZxehwP+zd7bLietaEA0JgwQlAcZg7Pd/0YskQzi5ibcExsj26h9n6pSpmkFYavX+6H3ZhzP0UTykWF7Z1vLKFHRP50TABgLuFMFiGNo9RQRnIQdK6ecKGUPk77iw1BIF+x99Zpng3bGIH3Z089wwJRZCGeAMAUeKYHmWu98BFTGd9/9WrRoQKnY2pH5HKYIjbDnq+ezCw9l95VT61TVSAQIelwiWx7njTZmL/FXCceR6fxcUX40xE6xlh1ilZiOCt8HyKsXw2Xlnn5EJ2RCwhYBjX/YIEewYGBH8Tpyke1Ko5dkweHC8PcGiO/Q8RPD+VD1geWXLI6Uq2aC+I2DNcggv/DlCBLvyBrwp3yl/hUuSj1LS+zteCpaNsaz7QDHxUNS35VVk7DlYXjW0HWXEKBBwGpy3g4pwh6a57m3yVylBELTyF/4dtQi28ogkO+WmhG2lg+VVtOeG3xWMW8gMzR0BFyxH1BHfXeFjg3003pRvkr+yIqD3d+wM/LEyRmrxdnJPTVUEu5JQ4yyvkjw3NOUpGROwgoCjT3mxI0kzJPw9dyNB/rqHX2jf8ZPw+suIXd5uk05SBJ9SPTeC5RV1zxmiulX1W1OyHAkiuNOWwz9EBA+JfSn8Km0Dy4rg8ySwMt1zUq78NDXa2dU3+o2ruwr0i+VVlocWBPzMWS9tfoUIHi4oZ2T+NV7+wr/TEcFWFMETs6fzllfRrhvuGPKpYiyvMlbAtx+rYjlSjnvVTcEWETz4lahT/bqc4ALimlJPsOquh74mP6cigvfb4mq3GUm/3nESy6uMUd4pYAg4IRBUhYimGIcm8TLMfUjMiF2Ooi96fyemgr9C1bvUkTSJzvzdSadaXrkLSsMJlDkB334w5uklHfrelqO7J9gtbk3yZYjLkEy/Gvk7wZ5gHWHLMQV7um2d7LnheqHPZMEg4KmGPWup6cXiTTnETcjKvUfI38n2BG8i5jPokYvg/bF6hH7LI5f/MREwCcvUW2nh+/2t5IpHBeIL5W8jBCKCA5DF+XmqFLzSghmFC0PbETfB7s5lvOdGeOHdtKNmi+MkBDxxEXyOGJHkNj/elK+Sv1q6A93kL/w7TQZer5fdDUnjFsGHprW8ile/7khn3MLYCFgZatUf2B6FVP6DN+ULL0CViQo/k/2dNgevlGTL4WuxRujRvnVtR7H0a6/NF5pxC2NBAQE/ibNkSuM3v7Ws7ivkb7f0aa2vkL9TD0OvNzIDO2FYjksXurrnpKZfLK8g4NlhV0gWEGHz403Zv/y1Vph8ZJC/80BEJjhMIxjP+11fSTWWfv1RzjDU0RIwicrHRbA0oME/5IbTZ3AurKrQB2Y+0b4zQYwItqMRwa63ziTTr66JPY+NgC0E/PxuKYMxVmdloksGI4L7kgfN972my3pyQfB5PiL4UyrGMmMRwSH1m2p5VXCCj+4cuydg+lUfhzSJ56rVztxQ+5G/oveVUwSf9P7OKBW8dplgK3bmG5u5CPaWV6ozpPZL06+pSP1CwPMWwVqsh7ZGs016kb8RzpN2CSvNrSf4M8IYS2ctgg9nN0Eh1XND1wTXIOB5w9Xkyk3BxpCmeVb+WmnukZe/FD/PsSl4KSSDru7QefLVftsEy6sEzw1X3H2i8mqkuu2bgDVzA55dzCZCBF9Oh4KFfuaMkh1APf8uoV9E8LhE8P5UptBv+0VMheXVeDlDQ8D9imCrhMYYvCmfk7+FFGfwD5G/8+0JloyxfCYoP2+cQ1M8ZHlF7BkCBnfyTFmhNcaFqqlXfGx9mwhPem99tYZ+Zy2CJe2oMmsL3Jb+cp5ieeUruhG/0yFgrlJ93GP1nSdNhzFtiQh+4JTSUfL3E/k7bwb+WBpjIuaUZeONc3SpQKUSLa/IZU2BLiDgnnE2QjOEnxNsabtORiP0Hvkek2B9Bf/OG/8i7mnuZclBBLuRLgmeG7a1vMJefgoErCDg/he1kIgiPCwQwUnyVxm5+pneXxDuX8v2Rpb7JnSlm5Kd/C/qt+bwmARX2DsC5iftVQSLnjyI4ET5KzT/+mf0/oJWBEvl0DkYY3nLq1j1a2+Ok5jaTkVVGAj4VSJYxYhgog6RC6pF+auc/F1BPOCqgpemm4Jb3nvbJtwf22lHUaZXN8urEsMGCBhEiODOSfGBgplSGLuaynTH6C7SwG6gHXAH0R3ahITqWzbhwQ0yVdGeG1fLq4bKq2kRsLoRMBXtve4vcVj8m+/fI1rKUjB+Du5GyF/wE0t5VKh7dYavJ942l786zXPDHRZnVNJEFbCFgPvGSRulJHdozYCGCPkr1rQqsr/gt1qs1ZeUCfabcNhI1P5YBfpNMHx2lldHToqJ4XgfgmY5eoab6akjPHno5+u6I7opF5K/Z5C/9B6B/yfhhTTWL3jjDLcJd+dEyyvr6bchVDZlArYQ8CvWV3fXYuFNKSHC+dnl2pG/4C8R/O8rmDZKCrMe5kJZuWGD2sbHnkOtNicEBAzSg01NnDGtprLx19PKOT8L1p4W+Qu6GHj9sZDoLjDwACL4WKZYXl3rowtiz9MPQSsI+DUcIpXv+uk91lRccX+Rv7a7nzo8X37Av6ALFxEsFBEESnyxCD6rRzw3sLyaLk7fCthCwC9C015mhfl5zGP+AbmZOuTvKH4GEZlg0ZvSvWj6dWS3q5McJ6/0S3Zq2gRsIeDXM4mW3aHdQwY0/LgcSnZi7tpC7y+IYWBnjCW7010I70VnAJZX4Cf29wRsIOBXxlK7fRSvUSlE8E0vSIbaIbCP/AWxWCrBGCu8Uqr/TPDe1TIkWV4pLK9mgTMEPGw4VQo5IYLv5G+3WnDLhfwFaZlgJQR+3Qfqfkuedu3LnOC54epGKpoT50XAmuV47VJ7t0TRGYsBDZcjq+yeZBOKBrG+Auki2IrFWKrXcuiDi36leW44y6uayqt5sIKCgIcSwaW0EYOjIkWPJyFaEKrW7GZN7TN4SASLthw9iWBneWXSLa9Kun5ngtrbkYb3rmA5Xk8sWtr93puSi4qwSlhfgYdKsT4+Ft4bx0jX4KKH/OvuXLaWV5Gx50C/jFuYC/YQ8MCh1UoYkTS4LV6WoXohTnCVv/AveICBYzLB3p3uSRF8aK6WVzaWft0/60zseaYKuGQ5Xo+jOJ0lNAU3M7W+cYOPJMmgQvEz9Asew8JG1EE96U7nLMxtLP3e6qM1llfzQuP0VnuqQcCDRB2auyb7v3e/nac35UmqVAtPkL/gKR38dfcy/dmRZG31KB2e3LGqVKLlFUNZ5kjA9krAFcsxCLZG6HD1D5/Y/eON0JdS9VVo1FzBvuBJEWyEnuB2gz5Cifu63cLRnhv+c3jRzlwBQ8DDrXqUKY+dmQg+CW4l7ap9wb6gHxEc4U6XfA0+VP44jffcCJ+riT3PERUE/BYRrCJE8CO7f+TyN8J6Qy0gD5CtCPaWVymGz97yqqD5HwJ+lQkqeEIEz8eb8mhEv2z3DPkL+hTBnR1JLY9GF0Tuj/paTxVJvz4BWJL6hYAh4KFFcCFMmm+96+aRGXL9Wd2laaH4GfkLeuxIWuiIjiQbKYIP52TPDddv3NB2BAG7N+fVszDBD9Si31PohphBeOooXEZMKI7++gdtgD7xbxPhDq0jZgLut00S/QaDDiyvIGAI+G0Ilk+CO/TleKgmfkeW7UnCOYj8Bb2L4JUkgt0eVEJP8O50tbyKp19neUXX79xR3hEwoycHxynCHXry3pQnWTk4a5IN8he8gIFbESzuwb9zQYe6SLK8ag2fsbwCEHAGIlhwh7buJ5puncZF/lotyd+LPl5gvQFeg4sIthJlXuhV/Z4L2lYqjX59pYMl9gw8AasbAVMK/w4cQyZYGv0z1T7BkxbCz6EUzWV/4V/wGhG83hghAhP24C/Duk/F1fIqruw51BlieQUg4HwkoNA3GEJWU9y0+0q0vvIg+wteK4K7w1BtNYb9cUbuzyp4bsTTr/uTeaPg+gZBwHmIYKkF1j9spvjFlex9Re8veDk2RqJg/57eieBdk+i5Ed7zhsIrcCPg4i6TiZAAACAASURBVI6Aj6zHG4WgEd2hH3Smzf1bG6H31y4IPoNBMsFCMdZ/rHHctKN0+tWoHAAB56sFRRE8neuzPJPCH4jIXzCgCJa6h4II3h9VW08VO2/BO06WHLEAAs5WDtoZiWA/ldGK1lcG+QsGw+IzxrzZ2CYidfLfriPXxo7lFfiJ3T0BU5n3XkUoeVO2eeJJeFNuhVE0Lf9ifQUGxZekaEMxVrrnRnGm7QhAwFmLwlp0pAjdEMcpfFPJ+srF7Jb0HoEBsf5YyCFlm2J5FRoYbIXlFYCA89eF3pvSdDOwHr035Vb7QJ6NkL/wL8hKAafAZVic+q2JPYM/CPjbAwYCzkEaniMGNKhxe1O67K9oPWmxvgJvIeD+6PfyFjt1Q+wZ/InDPQFzT8vhFym7G5KuIni0zfxHLal8z7/IX/AWAlZ9kW+wvCL2DCDgUeF0t3//FMGXh6McXnWRv1bMcwfnZ/gXDI5lHwR889zA8goIBKwg4PzyAmXoN7RCLdYIvSm3SpC/IfyO/AXvwer5HPC35RWxZyAR8O0wtNrwvmQTpjURTcFmfCJYNPwKryPOz+BdMM8xsL3R75nYM5AVCQScZ6Q2RgSPzZZjG/7RguGu+aT3F7w3Bm2foF8VUr+cYSCJgA0EnJcItqI3pWfg8UwprK/mfZ3hZ7uEBMAboR9mYO+54f5T0U8CHiBgYiZZiWBpUp9tg9Tj2O2Hojuo7r6QMvZzBQWAd+KfebAOy7aWVzVCBiQQsLqFoCHgzESw86YUCobdzzeCYg/X3xzRe2SQv+DtdVihycAmB58d/VYnTlEQfSyigPP+feoYd2hlVO4Zp23hnCU7o8/e+mpF8TN4vwb+ShXBV8urhtgzSBNZt1Pxco5DwPkxV+ku1rabgnP3przcI6yWiq8U8hdkgvUiSQC7zIqj3zN9nOBxArYQcK6x287caWvLke+g721EJN0VPyN/QR78G0SwjQ8+uwDikdQvgICnh0Nx648dpTdlLblbhwg08hdkxMAfCSL48rmS2DN4jICVvb1FEHCeOLUVz0IGNcsBDfKQ48sbaA3FzyDDTHCsAqbrFzwU37yc7RoCzh67IsIYy3lTZieCz6ZbvrdfafNB+BnkhkXkyN/L5qs5pMBj4uqbgDUEnLMINoIxln+Ylwg+SBeHwMAa+QsyCDyvf94BV59RYWi/94hBAwh42iJYSSLYkdkhp5dLkL/h2YazH7yXeNf/+d9//xbLzdf/2DsXLUV1IIqOj+6kvYktoij//6OXSsJTpYINAsmpWWte9vS4hORwKlW7tgOHL+TYPhFvpAhLARYqwcexdBMsPejQS8mG+dhfAfuLmFN4G8pb6O73Zr/fbbVy8xSEGEDhKL4WJ8GINwRYQYBXYoIzriPJ9vPIRWTDrv1zj8r0M+wvYg7h/WkI7zcJ72ErS7irsDEQhCWUxvhfBBxwwHGRHNDRdiTNnw07p+Vo357qZ/T+IuZT3lJ4Ta5ZGxE1uqv1WzBou/IwgxDxtgNO8XEs3gTzbEqTOZOXuW8r5YW++oH8Ij5ueUl4D7vdtpJZ63i10PoPs4AtjRINwYghcYcAryuOCTNS11Hh5xzQQPaXm7wA+4v4gPT+a1teU1xlhVc75dWWJPcH5W2aYIFiLMR7AixVho9jBUFsSuFBh5azsSlvTL22S04ffqC/iE8ECW+hu7IWXuWSzWIU4e08+0oUYyEgwOFGOVlX928EOp3FBBv7y6WfbfEz5Bcxqf/9+qbaKqOy5WqxueZ3R/76dAQX/10GE4zwixwCvMK4KZ6MRTvMDCb4qjiDbt7ZAeKLmNLyHnaixFSVNQdkeEd1vK+78Rc8GgWxWAHO8XGsyASbhc41BScfNsElM7PfJCiB3l/EKEe8nT+bXHNnWRhB1FMrb1eCE8xGQkCAwzfB/QqsP8umvFoqkOZ6f2F/EX+sau6kmjf7w/b5nECtPqa9bSDODZsUYpAAAyi+pijZlL3nUfqTAxp+U9b+UvpZbiAhiL+WNBsddmXNZaLZPvvpus5vpnCjyxJgORBcZBDg9Zpg3X/cWm5HH4IDXNjiZ1OgsoP9RQx3vA/MyAP18epmTfOMkvuCTXlHHhoBAQ7XBGcslsMoYvIBOADZX6Y7ivSZ7C8UGOEvvF10VSG8stHG69BViwtDtFQCHUkIbwHGocXq4ippmWuWTTn5o/iV7z0iuO7hC7KC8FTeRlGzQ1eZUxXRoDUvUntbKy9DHhrREykEeN0mOPcwwYXyTWuCjRXnJi8I2F/EIOX9+t5sDi10lZ4EoPFmw6/mR12TCUZHEuJlnJoCjDtljXGU7NC/qdmU5MN734LF25P9hf4iXmlvu6q5Rlc1lVdPRNDwLa6yQY8A5s0xJdZ25WFGEgICHPA1vBt5YxV4KkIefxJtz6JR/Ixgoim8wrpcp7szVljpWnhtlC/INKkqnvuBOKiuQUCAAzbBLBjLDh/KpjDBV81XXxWxA/kZ8dL9GmakaPMzzHSimQ9xu5prI8lv16NZS1du5bkBDRIzkhCsAKNib7Vx59Jhdh/Qoz9jnTIOyWXf2Abqi3hqeStmpKiUd+665lfKK7O7E946/ZNyPcdOnoGHRjxLHybVmQoEeM1xljwdml5Mx90HLqwDMPcXen9xwPsk11znR1oAi3mVV2jbVNwU3jS/Xc4vVo6Bn/NAHK2xvSIeDQwEOCQTLHg69JgHDaz9tcVXCqe/kcruc3TVtnVi4X6r9eeZkR3LK4SUsvHkKJMkK4T3128V9KehzcMvsBwIOOBwTXDCoKhKEzzWPnDk7S/dXbC/cTcTke5adJUsbxZRmczZu4lIeKVsKq9M0qxwvEf/ZXJMaPvk6qGLl6/IQyNeCLCWCoUCK4+brbViD6RGafg+5ZWp7pFfLfY4/Y1WeUt0lWihq/QC8Bm18oqm8N4L4T0PV0lqRJB8UzA6khBdAZYNBwwBXr0J5tmUxpSOgIk/MidfDn21Q+9vfMpbMyPrYbwLYUY2LG/1Zkh4r4Xw/tbKO1iDj6mPCSYmHUww4pkAwwEHEVdOF7XdB/44oMEDwGUoQEBfRWV5K3SVrlFQ5aCE5SWbNQnvsSW8f1t5nAk2Gp3gpA9RW6aa6SYV0iMhPFLlHm258o9syovk2R+wv+FLb215C+HdWWakbs1JUHOSq5qVzS3LS8J7/v0d14wSkIZZFJMz6RBrE+DqhtEQ4EDi4mmC83f3n1POPuybF2F/4+jjNeiq8o7T5ZyE+UqaH6JuJzLCezpNt/LUE27Hw8Mv8NCIBwGGAw4mqCREq959QKv32ZRkf5njLnoR9jds4aV2ItEow9OzD+V9Irku0vz6Tm3VW4+mimNTUp0kOpIQcMDhBs+mtAL9Dp4nY5qd3Nga9P4GmXimQ95dd8yVGU80p/K+ZEZmg9qJxlh5wqcpWCmMnkNAgAMO/lHc7gNDTfDR4/sWP28x93flStv5o8k1d/Me5kbQcysvyb9gmZEfC54Ka5eexHaLKPZTXaegkRYJ6cpKVinVcEZtpvqbf+031Xso2Eplt82M/PlpMCMfbp1FoKua70AmfczIj5kaDohTriDMSEIcG0c4EODgTLAPHXqACT4LRtQt+gr2d9UlzTW6aisalVW6Pt+d85i36ibSXXTVeTH7F+GhJVsHWfyCxk8IcJm8KW4JCHBg5wsJsw84+L1nRUg5d5ghTyqgr9baxlvobsWMLFkqwk0FXDIzcnFsC48R2bZBCx1JEOD6qRY3Q2hx8yiYovoZH0btMWG/F32r3Td0bX0AjSYz0lFUHmYCzdjG+4QZeW0zI5emwReDh2bYlGbpYZeKW4AlBDhkE8wS8jwZtYZ2q3j05B69RytSXjritcxI1WJGirnnArY8b4MZmXeFd7Hxe/cxwcXnniEPHXFcIMCBhw8hj2dTFvZXc3wtZ3+hvys45rWZZouuqpPNi/C8rr6qbXmzB4LG8kX4mLJrxppgdCRFLcD1fQ8BDtIEZ6wJJgXWPWzK091rxgOKn5da2tw45TWGl9BV5WgEvQDH63p4TU+RELXyPhHeFcWJBbO7h98EJhgCLJSEAId6kZnaZW3Tx/fX9pc5zzLfYgv01XLDMSMLPRCu9K4eDThfL5F6joxUgpiRa9XdZh46rSod+1uScsxIggBL3ASBhtsH+juSCDD59Ek853uPtCl+hv4uUnj3h2374pm65jmnE+mX0Mgkv63jiHfAw68Xm1JjRlL0ApxAgIMNLzZl8SN/zGAnHnk09P4uLu9sDnm7oKoKGalnV95HZuQ5yAzcKWXYNSW8JsX2G2FcIcBxxIllWLkXOyb4xhOP6OUDzO9spVXtv/ja7Pe7J2V387byVue7j8zIS1iW98nDr2YeYfWbWFgEBBixun1AM3SeJpvyLDm0vMXaovd3Eegqw4y0F6ukRWr7Oz0rM1K0apqpqpmqqy7nWDacXDH10G52WQI8dLwCLBVyIBHsA/2Y+M6T+E2xsH3aVg8QxPnQVd+OGVm38c57vvvYxitUh6Bxjq7a85jwTcHmst2wB8cVNwgw9oEHQF5mdkg6/fX44i3s72zCu9uWflfMPo23WdpsmZHle9EyyfL7IpmRH9xoqdFA9x/lCHQkQYARIcedq6hy9dCX/043Emum98iirxCfA2iU6CqhWwCNeUckdJiRFVZLFMJ7u0YtvPVpTuZJxAEeOlYBzvBxRGCCU5ZRa7gduf06xQ0+AvpqYohGaXnJ8DaZkUosJdtcK2+LGXkhggYWXB0Xn3aCYs1J4KEhwIhg4+ozKk14jDQl+/sD+Z04vkt0VXXNjO4KtZRjXtFkRtI8Xgjvi/jNDS+OzT/pDCY4npQkBDi6ZFjK1cXSNiB59gbs7+QYjYM55LXXyjneOdt4O+Sq6m3oxI4F7AgvdLibf6ornnvzT8BDxyjAOT6OeEywUOr99KX9d4cf6O+0sW8c886aa24obxegYZiRWFKeQVR1nogj0JEUS+QQ4CiTYSnXkcTUuaL39wPnvzulZu3hbdOa26+k+fV4hvC+kX9iW+tdP/4dnxUEGBFqsIzafveL3t/pYzcjNbKSXfEIa75AeP8UN8VKsMXboCMpLgHGI1dUybD0XXsF+/uZ/HPJbZ5jGq9okauUlOHCmufJPwmPEUmYkRR+ZBDgeE2w5Dt9X5z+Qh6nr7/6rPvVNbmq0emUJGl2Qx/v6HHllp52Fhl4aAgwIlgTzLMBngXs72cKsMTnlNcKb/UfakmNvDjkndAE5z5NwQSlQzFWNAKM0vf4THDCYTkec2M71D5/ogJreqqkfmBGqsLwPqCrIMIzLT0HpbviAgTsgVIIcNw3wH1YnrP42gO6fz+RgZ7OAD9JNss0u4Og8eGld+PZlJq25xTFWOFGU4BBQIsxztngHPQeDcDTA7AmEOBaeXWjjxfCO9vSM7hXJg9NpXh3XJ4YHDAEOMY4psNS0NUApB9o8ISxGUmAXQ+vaShyQxscM5LGAkJ4540rR3x1AxoSFGOFLsAaAhzlDpAML7Wl1tDdBvK7YAf8khlp+3ihu0sJS8TRvTO6jUBnuGRBCnBSrXMIcHxxSczA38G9wHTPyN0GMrm4M+BnmltZ3iP6eBeYgeKIOI5Nie05bAEuHDDSHJHJr1RsBqxvR1Di8AWlnKoKemBmQvcxIyG8S96DM46I45ixKS5jeBmQpgOGAEcmv5oh4vXiOOw/E3ukoqeJA02u823jJXRVGxopUjAjV2OCJfMgXC5T9KkEJ8ASDjjaNa/0n+a5l09uW3ccDCUeOQetfFqB2/u2kEBXrTFudj3p/qOFwiUByxGqABcOGO1m0chvorjaD/8zx+Ln3fcPJHgKC+ylwLR4kzTNIbzrDdORxDUF06voSApLgKs0l4YARxInkl8x1pQ7oc15sN4bDUZr0oinwFsOVuj0NzuCGbn+uJo9uH9CA90QmJEUlADXVxwCHIf8XtK3AND9KkwavIUGj6q//762ii+F1jUuGCK8bhOc24XJsilzFGMFKMBwwPHIrxh/xjsxHrTa7UHoGFODD4pPQ9OrIPYHERfJjegmNqVQAh1JwTx1QYCjSnOR/MopMP/a2mAtdpsvnAaP5YH/fUvOBGtjm1AfG8bz8Z0ut2bYlMBDhyTAGinomORXeGWfqdF3aIcSNSuKBqEDGjyGAv/sffqQCFYIExzEhixdS3ff9aYnXcyODUyAtVBYwkHLL0EnPeRXV2kwRxEeqMH0z7YHjAweSYJ/6CS4/yLYLVnluMdDiFuj77dnQINGMVYYAly27xcXHAIcsPxS36+X/LovueZNlv8QQoe9o7Z7ULJG0uC94s+BzTXClhxCEB66hF+9TnoUP4CHDkGAy8lkxS8Q4FDjQhVSPp1HJWTSHCke06rVd1jRlv0eagtY9EhMjp3XlgxifyhPyw4Ry6apgE6CACOWL7+KzWo9kV+KE+WtHW1jmA12sfsGJGuM2Ai+GMtcXmzJIQThodk0NL0KPPT6BVhBgMOWXwudVMpHfqmmtl1Q+3s3d4j8n71zXXMU16HoyaXLroyVhEACvP+LHnyBpLqrkO1KAoit+abnR6VnpiH2tmTtJZXbO30AJesJdejPnSFSzE2wMwVjSxaxagvGFOz0V2FG0sLj+CDABAGWKb9qvK3yLr/dei6+8bMcW0eu1DnkaPsb9P4PCB2/7ofebNm6pO+HvqIOLSEJblhcnb93QPu7GAHG2VnaIrbzfiN9R0ZZL0t9/uFfdHNNXDkELWdN8u5gpMG/EuE9p8CO0wCTqJS92Zr2xwtX/sRV48QlQICV0RBgcfIbB520PhYrv2O50+nqxpbmlKJdZTtoMNLg32A5doabUei35AZLWUJcIwY02A28wM0/BBgxt9UbDZ30m7ZmS5cXp8HpabCnZHVbxcENLoQE54vwhqVDY0sWFJdbZBIMPPRCo3oQ4AIvUZj86siBsvae+Brz9s+XunB+4sQ0eKBkBUIHNDg3Cf6z4yXYvVA0YwnZoFk8dDg+41lBgBFzkd8iBTpp3SvR10jnSxOqyqmgyi4NJqfBIHT8QoH/tzGGefT+nRK2ZAlxbg2jweTfNxxJixdg3OULkd8U6pX9JbFv9uwJHZRO6PClaNrukQL/QoV3MQWH7jFjSxYRF4piU2IgBwQYMYdXau99I6lXHjqZcy6v9J2SlZIH92bWHShZ+fGhmCS436+xJYuIJgaEZi38cCQtLlkaBFibEgIs4UQVT73Kll8Xp9rc8+DErmj3399hYEN2HAwzKRhbsqgkuOBMwYFNiRlJEGDEMuTXqeDvUqSLH9iQOLmwP8t3yXAY2ICCdDoeesso8LAlY1XL2KiZfmjCQA4IMGLKOFcqsij8PXQyT/JL+wVSOlWC+07eLQgdme1YexPTD919BluyhDjdeFOw+0LAkbSkqB8FGI9j0fKrTdTAozv16kn/4Wupelh0MiWLQMn6rSOJ2EIHtmQZ5S3rNmLZlAoDOZYqwDc8jgXLbzT1ahw6mRWXuvRpcA4ly+4bhw9QsnLw0JqfkeRQoHAkiUiCG2ZAg3vf1gOOm38IMOKN8ntNgE4SB53MiqMndOikuYUPsOjtHoSOjCT4wCpwwHJgS5YQx8KxSPmBHGh/X0g0EGAh8qvi5VdfX1GTPB8b8rDoVFAleUrWzmkw0uA0PPSWqzpY0DdhSxay1mt+IIc/YuPmf3EC3OJxLDGiqVfhhkhXL2u2Ox3bALxKpmS5rjDaubZoSHCCAtsZSSZmQAO2ZBFxKf2ZlSFjkWnRU7uAaCHAy5dfiqJehWm+1WvX5akqgzk4tRjt0mBSIHRkOJKITYLtB7DAZSx5E0fG0mjGggAjXrsWtYlqfaaenPSONXmqdR6hw1eijQKhIzE2HCmpx65gS5YQ5xtLxvI/BIt0UQIMisoCj8Ix2I1Qe35jM2wgdKTCoilQsozCwIakSrTDQ4+XoX1J4oa6pISoiLkK7hce2t9nHjcI8GIX4Wzl14Uf2JBIyaL7pB8dBjbgQjjqLph1JPVFECTBIpLgli9Du59ixB0EGPGCBdjLr4mUX/3+LljXne16slJK0eT5Tfbv3eYTEhytwTt2SqF/DyUcSRLiWDCm4L4Lo0bRY8ZRPggwjArLkV8dOmsi5Fer51GvUuPk3MGekpVmTQpZ++HjE9akaEdSQItxZKwrtmQJUfvpnowpuNsA0P4OAUY8U34jsRtuHI6eTn79Sb0pPaGDkq1JridL7aHBkRfB1pGkWC6HgiNJSFhHEoeHJtKGwCKd7V5eDhdHEOCFvLJrKnRy6oTnXDU9JStPg0HJik6CdzEDGrotucGWLCEqcitknMvRZclwJEGAEc+TXzUldDInTpVti6acUrTDephA6IAGRziSOFIS2apXgS1ZQpxaDg8NFums9/OiF+DuJaFlffbh5FdHEC566GQ1m+u+U3Xr5xYmz2twXWR+aBIkmMND7zhPcCBj3ZAES4ijMiZmQAPyKwgw4ndRJ0InqZpVt8355NqiFeXCoreekgUNHo8PrjsvnM6w4GXs4fWddTa6HRRIguf38vRDCRrrcd7yqxOgk+b10MmsuDRmIFVSYh7sjokHULLYLPjzwOGhg4UUJlERcdGsKRgs0tkKMA0CXP0He8Js4xqm2sRgN94GncyrmbWPrtQUe7Dz2JDeg5LFJsGauwoOXxN4/4XsDowE+x8Sof19ZgI8LFLSYOTMe4HFyu8E1KvUqIocWLQyfYvvFgMbuNgTR8byW7JGXVJCnEoOyxMufjAjaV4CbL5kwIh56lUidFLP/zLhTslKsSbRIMEmDGzAffCPSXDAchCbBGNLFrFJaLYfGizS+R2cDDLguUtVFVmwdfkMTQKdzIpL6ylZlKrB/Yf3f0CqHE2CVYwpuHuaqEuK2ChYR5LxVRE4kuYkwP3e16VOWIdzlF8dVXueHDqZFcdbT+jII1VuvQbDHvx9WEcSz6bsvmAgJclIgq1JkWVTarBI5yTA/QLtXg0EeH6FWh1PvXLQyaV1sp+rVveUrER7sGcAeXcw0uDvTcGbbegJGGVTKjiShOwXDZ8EOwxLib1+LgKsIcDzld9o6CTNAzqZ9x28BkJHOiya3PHxsAEl60csxyGOTYktWUZYPLSKSYJx8z83AcZV0BzlNwU6WS1xTbn/58u1zIFFW2nxhI6DG1wICf6hGYvY41v35OFIEhHXiAENYJHOUYDhEZtT1D10MpJ6patFH2nPl1r3HVlpfI5AqtweMLDh+yTYzkiimCQYM5Jk7Ok33yRB3FRKsEhnIcD3ih6a4+Yjv/HUKz90sFp+RensCR3kI/k22LVkQXG/bcbaGuYkFzrRYRIVEUeOTRkUGDf/EGDEd/IbsE+8/PqPkJRq0vlY3ilZiRpMXoORAv8wI4m5CoZJVFCc2zt5Y3TrAIt04rhAgGcX17A6oqlXojZN1/jdU7IopSPLUSeIdqBkfVOJ/tw55xZxBmsqsSWLSIJ1xIAGwoykOQkwQYBnIb9p1Cslr4x0akJOm34f7H89/AEl65+74I2OY1MSkmAR0RimHzpsMmCRzkWA8SamT/+qfllQVOPzEqCTeQf4mzbpPVk0cLLUHhr8jwYfDCvB7gmW2AhE7O0l1w8d3jccSRNudIMAK6NRfJpafkPtORY6WUhuoqhKbSLHH/8zeI3cwAYQOr7DQ/NN5cbU2JKlVNM0M5fSmdDQ/g4BhvxeKQE6qYXLr42TcwcbrVI7sihcCIOS9bclac8NaHD7MRxJUlZQy5uCXSkNjqQZCDA64iYVmwTopKVelavguV7qMicNNj0lS4OS9VWBP3aRZCw4kmTUkTTTe+f2E7BIIcDrlt86ATq5XOpV3le0LnJg0W5eg21C2e5B6PjLkUTcgAaL9NdoxhJRWHN46Ag2JVikkxyQIMAzWCO1h04ayO/3z+fYhI6s1DSYKBA6PpAGJ+ChCXVJSVWkYnB5jw7kAIt0agFG0Wka+dXhnjNGfpUM6lVyieB4y+JzeFBlt7/sQMm6i/AH9S3jo0kwTKJC4so6G93OQhpJ8JQCXEKAp5Bf8teVxEuJX0BrXSRnO+20J3Qk3ga7X0DouMfhbpseNYkWcCSJOL+WA2ll3DzQ4lm9+2zUC7CGAE8QdaAoxnQ+28+s+2LuVJsMDaZegw3tPqC9AQ+t2RlJ/huHuqSQTCsiCQaLFAK8PvmlOPlVq5dfF5d2QAikarD/OErR4S54b6LIWAZ1SRkFpJthCD+hxgYW6WQCjMfx1hVxDadOyG/iYb4MLqPENLj/+HbzCUpWmJGkKOLaA44kGesmOC3GBzR0H4Aj6Z05GAR4MvmNqqX20MkCy+Lh4ZWUQei4M8Z2H5+rl+DuD8/iofssGEc/EcumZUk/YJFOKMA3PI63ym9s47M1KEF+/4pLc6dkJbZF+7Tv4DR4zdYk60jacUlw6IeGI0lE2GmfPJtSg0X6tmggwO+PgXoVIxfaUa/w0L7ZTZqe0GFSKVkW/WPdwSvXYJsEb0ODGleCwVdQSMbFsinJagJYpBBgyC956GSF4+gPhYSq0TmULCfBFnyyWzmhwybB+wg2pQEpSUzp6BaZBLcoerwhWgjwmzUjUK+i5HeF1Kvk40zVZsKiHSWLyBM6VqvBn35GEkW0ARLG1omIKuYmWMsddTpbAYYJ+23yG029gvzGaHDZjw6mtNtgcmmw3rm26BXfBu9NhCkYM5LE7ELtMAp4/MQFRxIEWJb86gTqFSyYCRpsy/ruoWVQsuyDXjklyzZjjT+48GBvOA9KiCOH5eitj2CRvjhuEOC3RTT1KkAnIb9JGtwMlKw0a5K/DSZ9WDWhYxOJ5YAjSUY0HAKox7DAkfRiAVYQ4PfJbwJ2Q2GnSz7XlwMlK3Fkg18Eer9mU9LOP4dxToMBKUlIuBlJPJsSeOjXRvkgwKC+vizOgE6+J65FBiXrAVO/XXEpmsVyhP0apCQ5KYE2fBJsUIl7I3phlQAAIABJREFUgwATBPh18nv1lDcD6tXr41QXPaEj7TpYhdr/Yb2UrEN4DCNfUHewwYwkGUul5EzB4X0Dw4IMeNHy+wVFPC6/BPn9dRzbwh0p026Dnfa436BWS+iwjiTWFGxLNCAliYhKx5iCFW7+XxbFlwwYq+r5p8xU6CSoV0/ZWdqekkWppEpPydr8WaE1qfvj7vknRgaOJDHbU8tCgQKLFEWPFwkwDQKMlvMXyK8CdHKqR9/mDGwIV8h2YMNmfYSOHg/Nf1dBSpJSLrJkAnZAg4Yj6TWhB22AAD9fA2pAJ6eMy/WWCYtWToPVYX0a3P1hN8RjOUBKEhO2QVTFJMFgkb5SgLszDtbTC+Q3lnrlvuCQ3+drcJEzM+leij5sVtaRZZPgQ7/tjn9jQUoSskjKO3xg1JyBwdBPj2GZdc/3ijvgJ54rm0j57V2ruFR70Yu41CaDkuXeiivFbg8f62vGUhFJMEhJYqIyEaZgDXfk83enuwATMuBnyq+yA3fiqVeQ31fG8TZQslI02GGy7G/Y7ldHydrHkJIUSElSNqzbFzv8z6ZgFD2eLMA0CDD89U+LJgG7Aejke874xaOxMQlV6f6xOkKHdSSxtRv7MOFeFJUEG46MBZl4kQDD6/WkqCG/s/yuu4ENGbBo/5eh3cf6kuDxUnQgY+H7KyLa4Y2OAOO6DxRIgp8owIqGhwsBfsYTTYROEq5V3hcX50wyKg0W/fAuw8CGlfRkWUfS+HMKNyhozhER1pGkuGsH+2Mkwc8TYA0BfmqW1Y8SjIVO4qG/eZO52ceudLoG+0+H6+A1WJM+I/DQ/TkSX2MR0fj5nMSNpQSL9AUCTFhEvwxQr5ZxSCp1T8kyieG2H0/oWEUa/GkdSSrGFPx/9s6ty1Fch8K5kJikrVQREgL//48OvkDoXl1ITqipRt57zZnzUDUPhY23JaRPICXpyBHVAjKWCx1a5KGXNWCDoRdL2G8S9Qo3np9aqkftw2BDyaBKT+igXAgdLgje+aCIz+bgMqlCd+NL/+eD4P4lwKezhQz4eY+FAb9lv3LqFRnY749f9b0HJ8Oi/awGT+gotjnAovu/71TwbEoCKUnPSdZxM5JiEIwZSQs8bBjwQiFVAnSSAJ38Jy6fl0f5CiyaRkpWccwgDD6FjiQSzMwhFGOp0MVws1PDZwdgWJYw4Oc3YBjwq0+xTYFOYpTMP+TBbZy9kPw12PgvozkQOtwFY2t5MhZISXrei5brmB8OMnz5Xy4CJjzM13ZrVyZQrwCd/MdW79Y8QZWU6MHuX7sih2osSUeSP7MbBMEadC15NqX/MNHhWb31nCcGbGDAL9mvMIYaoJPAbvxzSxgIHZZSW5OGdd/nQMliZyQNTw9BsAo9JCxS58I4zxYyYFBdX8rVEMmwG7DffzkT1L5iwXGIiQsF9hmkovfEVGMFUhJwwUreiZoNgsO5h6QHDPjH7BfUKy2KAxsMvfBB2BelFOopWUcOyzGc1+hIUqGhr5Lm1xsQ4zdOnakB4+KaZr+P4coP6pUO3WobKVmJYfBAyfKdSZrros/hJskM10RxjpYjrgkYltkg2CLpAQP+gQTNfZjfJbRf9P2uYVV9d3BqaxI9u3T2R8WUrNiRZNhih/43WuQlVdxJK669Mmb3kPR404CNxZCLRPsVQycJ9rseXduBkmXTKVmulrE4qqZkFbH8e/Y+0j881PrrCIJbAZsSGJaXLzgw4JfipBTopIH9ru1a2lYvwaJ/J3SoDINPoSPJSJI+HQ4UFW9D7dabG9BQIunxtgHj+QntlwCd1L7Gt9YMqehkC3b/5V4tJesk6EiKQVGJvKQK3fkg2LNIUeQCA/7+o7kN0Ekx9QqpmbV6cBMqslIbk0KKlmjvy6JPKoPgM+vAkbiKYiwV70Lz5BgAD73s3QYGnLQTOyF0cugohf2u2oOrsTGJEr8G+66zQOjQmIp2HUksl8M9gxbbSIMulmv4cOk+dKC9ZcB4HIw+O0qATlpAJxV48GPkqKR5cGjXofJ81FuMJcjHW8I7oOTsY5EHBAzLWwZc43FItiDsNzNduxdBlXGSvTnrpGQddnwQ7B8YgmAdQXApY1NiRlKCHjBgqf22EbshoV7BfpWdPfWTkpVaGO0LVLYqq7EKf26wmWgMOlWi1jL10BFMBKZiggEbGLDEfh9p0EkUBGrbAPdqGEKYFgabuGX2x5O+78G+I4mZkeTfGXQk6UgGcViOoVwCHUniOw0MWGi/ks+AsfaTYL8K9eG7g9Nbk8ZX7KzQg7elpCnYYEaSlojNFaHO30EDHxpJj0QDLmHAXx28D0GmDdSrHHTpKl9Z9crAhkDoOJyUtQe7jiTDtiT1f3yDvKSK07BhBjQM9dBIekjUwYAl9gvqFRSTITfXiOYpWakeHClZW1WwaIfl2DEDGoYm0Tvykhp0K0Oab3a9DfDQyQbc4HG8Y7+gXuWyJzyho79sJc5M6k8l8rHifqsIFt3/FaeCzRD1jwq4YDUvQCsZ0NDbNDAsMOC3dG3l0ElQr3LaGPdmgEW/QsmyZfRgTTOSiAuKfF4SQbCK/V9xY+DCQA50oHFqYMAzFz1AJ6GvPdgPbHjha7BLRZPdndVQstzfsBUVSPQPDBkiFbqHqtSv759xvdGMOa96PD5gwH/Yb6BeWUnhs9+H2GqZ6fPaDrSJ5LpoT8naaaJkuY4kSUu0rREEqzgfq5F9NQ9E6PCsYMDph2sy9QqfO3JUJHRQOqHDfw2mXaGmIPp0FNCh/UNCcY4K3SZLOsemRAea0IC7X7ibTuxXht2A/WZ/DlVPSlZaW1L49d1WiwOf9kILBi5YxzHZWObTf3wnsN5fqhqeHhnkCoZ91aZSr5B8zjsb19IrAxvi7/b/0f640fE9+MhjOYAL1nT5LLmm4EDlICQ9BAaMijVvvwN0Uki9gv1CbmCDZ6qXqTOTwq/3/ysOOjz4bBkLjrcU5IzU5ArJMB1JWO+vVY4GTDDgX7Hvl6yVQifR9wsN0UBTvtSaZGIeJRI6Vt+RtOeC4IjlAC5YhVwVRElEbKLwgfX+qwGb8Sk9sv8GHKCTJIZOEuwXmmwf3x0cYNGU9DXYekIH+e7g09otuJiMoJhrEkVHkg49wplJHIsUqcK/yE4i4Ny/y1xToZMNThDozz3kyqLNa+3BjvpSnNbvwDweOpKSgIfWsekdHprFsJTAQ88bMOVtwL6pUwyddPaLCx30Vw+uhlT0C4QOuzuu/UPwyc9IInZGkntCKM5RoRvJguAS6/2lAefdnnftbBr1CvYLfaXPSxtnJr0EqtTgwKezhE3p8NAIgjXoo+Nx4MBD/82ACQbs7ZdE9jsAF7CNIMaDm+d2oZSyaGPNYf3F0CePh2abgl2UjNpPFbqUXOsmhXppdKDBgP+4vTURTCSlXsF+IYEHR0JHYndwf0iddeChC9l9g0okk1So5egJ5Hc3OpJ+M2DzNOA8S4o+m2isgE5CS++tuxl5aSSOgWn9SeiIh95NeCNzmAYggHQkEishmxJJDxjwcER2QoLRsLFQSw8lpVfaRFi0y8sWWvjQBYvlCKQGi7dKhR6W+RQ8vAZY79GAbcYG/CFnPvvkCcF+oWTFgQ1G6sHG7tRMaDjsKYx+mqWB9WrQoaLiRK25puD4QwyGDgHgNALOzVz64CSmlaXUK9gv9NJrdq/L0B4sKLN3d+LDRo22pYSMRZiZo0QeD83WQ2NG0mjANlMDfkInrdB+sWOgN7ZbbaWN5kaTAfuOJGaudqiHRm2jmrQiw2ONnZxY718fuRpwAnbDQyfR9wu9q0tbSenQigzY4aF3Qjw0cME6NnrFBcEu8CktoSPpacDGUj4Wc21D368YOtnBfqEFEk6Xey1KuaiKgPt/ChaxHhwYNRY69vlDuN7Zf9T7LQLOJSMwUK8AnYT+971X8dtOUxHWiIfecx97QlCE4hwl+7wey63m61ozX+9rfgYspl6N0El8qoAW2nuNbDjSebNR5sCnzVYAxnIOjBlJOnQfOuCZIDjv9Z4aMOVgNFLqFYF6BS2dmOusZNC0dSAOhXJB8DyXI4I7awTBao5aEjQF57zeUwM21zz2hEmgXsF+oaXUWnZuagyA9xudOso4YGQxM0eFblbUFJzzel8mBlxqb4X/aIRk3oEcCPuFlsvIxfiOC4B9F/BJpQGfNmdJHrr/hQpYDkU5Hz4Izna9MzJgT71KsF8C8xla7D0rrZXYr09Abzd6FTuSODy0xcwcJRu/YupdKe/1voyPRrkBj/YL6hX0f8uVhIrs15XcG83+6/DQxOGhw0uKjiQdakOPK82PeO0P3SzjndvUgPV+C/dEfMloVtgv9B13v3DGCBiUdn9Qbb8Oy7HnsBzxLWyRh9Zy/Sy5pmCb6XpnYcDOfsmQHDqJvl9osc33kJVehfB3f9xoV2/BW8M9D8emJHQkKdG9dJubawrulzy/9Z4acKXTgAGdhH7Ofu/WbyrBp9/efnfbjdLyqz+xHGchm7JDHYaWJFApIWNlNxPrPjVgpfZLoF5BP/R6VSyXPmbg+p1Xbjc5+G8MgneSILh/LijGUqFLyRVBhKRHbsVYyg14gE6CegX9QHopxX7t9pCJ/U7w0JYPigi9gCr02bJ1iBEPndV6qzbgNPsl9P1CS975635PGUnjkVNx2OSlk+tIIrYp2F1NWmwmFcdxxVlwvIp2GT2Uh14DlkInQb2CvuG0qWWVB+Hn58Mmn/B3DII3hTAvVeKzkJJwz853ouS33moNWE69ivYL7Aa0XL6ts+w8tqcB7/Kz3wEPvROBsYga4KFVnMqSINj90+TyRNpx/xtNBpwMnYT9Qku+VSNOguMe9/Z7zNN8g7Yks2CLjiQVunE308Gfb7kcFQoN+KMbX1tRhgvQHWjRRBuJuFfGfR8pt5u85QcFG47O6WYkAcuhIjnUsEFwiIry6Ejq9BlwoF4BOgn9iBz1mXj7DVc/U2ygbSmphyYEwVqCYL45IPw0hxlJ3dAP3x8HtR77taBeQT9iv7WVpF4CdtKcD5uc089jPdY5YMCIq4dGmaSOILhlCyQCmzKD0KiZRMAKDNhRr0hMvXIf+2G/0HL22wmZaz7ig/0+8dA7wZHsXtgHirG03FNLlk3p8NDa13s0YA0RcBp0sj8DO9gvtOj2M6Ug+TJSn2G/UywHGUHGqkIeWoXuwgEN2te7Hg2YqP616uvGgN0QQydhv9By+hhuf9y3X280fugC/HeKhxbOSKIOQbCK96VhphQOVy7dxVgTA7ar7r1Kpl4BOgktqEeZgJ3cbXvLgf3+WYz1BJPMpqHLO7abBt0mFIYvj2rt613pMOCrkHpFQ98v7BdaMqFWymYOhhBve0L0+9c89Pn5jGb7BtGRpEIeV8NxOUh38d3UgFeL4PxwX7JNAvUK1ZTQgrpUjvpMLHcj/F8B7/3Kg09HIwiC3c8xI0nHm1NyxJqw3qR2vcv1G3Ay9Qr2Cy2ZfamstPXIUZ9hv7M6MzHwEDEBXadDEdowz6Z09VhK13tqwKscOvLRwX6hn82+CLgbscZ3f0DumdFxx/XxRzw0gmA191cBm5KUdiQ9M2OrnPo12i+oV9AP6PMhvf6ZQH2GeBU+CJ4tj/UPHDOSdOhhmXro4YKrcb2nBry6K2WwX0H6D/YLfYf93oe6Arb4inzpM7RQR1JoEqUOxVhKskgsm9KT0BSu94oN2DUekeEPP0AnoW+x31spnPjrwt9dgcZfuQVHPDRbD22A5VChWxXAhOxrpK4jabUGHKGTJKNeEbAb0MJnRi3FvvihC+g8SguCz5IBDSX6CbUEwa1kQENpSVsJz9SAV3S7uMipV4BOQt+wAV3WzEipzwWoz6/goWn+Abu0JKEjScsbVXFXLgoM11bVn71KA764IYpC6pXrz7QdrsnQkumXRjzzo/+V8wHcq3QHPjksB0kGNKCyQ4fu/KDggAPXtN5TA76t5/STUP/G5YT9QoumyzorxE6639gfYb+vdyQRh+Xwn4pbbEoVL1bFg7F80qPT8zevzoCvtZVR/2J7knKWN/S/q024/9kSQxfeSENvCmLIWJFNiY4kHbpxbMq43lZN8d3KDPijDtBJEkMnYb/QsnkysiSaeeSpz/DR93TY8WxK//P/2Du37lZhHAqX3Oyw7DSEBMj//6ODL2nITCcSpxiMsvc6q+eheWjLZUuy9KnBjiQJOjeG4LDEU4laxvU+r8qA+dBJMJ+hFDoZJnbSf2AHA/27ilhLoEhJFhNJMpJgS1U4w+S9FTGR9GLAmZdxRjGfFewXmlo86nNs1rQlzHOaUvTW/0EtGW+j2iVDd0P0Q0eqsAQc+PdqDJgPnTSRegX7haYOAC0bO7ndwzonw3JsOEPBEjENH1pnIkfs41Fwu/o69NCAbcYG7KlXrMYXA+oVlOJJ6Vi9f7Etdwvq86QmvAsjv+QfHhNJMtQazhC4gImklww425TRUa+U4lKvDLAb0NTPSXwj8LCT2wKdz1NjObYkpiGQkjo0Y0mQmzXVFB3aveu7dZ87XFZgwI56ZdnUK9gvNLXOt2oM9bnA5FECLkdhGK3nDtOAZiwRupIVp/57jsa+6nOH/A3YUa/Y9gvqFTS9mPYb5tN1AepzGgd2O5IsZ+vKHUmwiKrT/QNw4C8GnGEyfwL1Clo4Eq/7wE6xev/c5BGoz4knkhhJsEYzlgiddJg5sMRJ8Ipx4KesDfhSx+yXwfwD9QpKcwvyIkD//RKtz2nz4JIzFKwwkSRE546c+wvXe7UTSTkb8CVQrwybegX7hSaugrELMAaTR7MUog+aToL91cKOJBkBcEU48GM2ZqU48BcDzuro5Lt+TlyDegUtGX/T5Jf+y+aA2vMcKgOmgbTgCu8DEWqjD1AWbFfZenvN1IAf9gvoJLSUbsxb0H9Agfo8lw4big79SILRjCWiDFVz2JRmnc13QwO22fz8303MfRnYA0AnoUS1Iab9OgQEqM9zaqeIJDi+OyzmEWWEwtr31lnqeq9wR9KLAWfyM/lt56BeQUvab8XkXvldeKA+z6z9lkPGchNJaAsRkQTfyVaM0A+9ukzslp0BX+7GjrJfYDegqe235rZeORcoMXk0Pxmr0KH2RfVDY0eSnIhYc4aCb+uqQw8NWOXwdw7UKzZ00sJ+oelDQObouRsPLg+w3yUceF9SvVgukF85pgH60bmlk2BvCevCgQ8NWOdgv9awoZP9pzo8XNDE1a7OV1Y4IaAKSxeO8N9FLJhsxjJhjBETSUICY9eMxcFDr6kZq/25h9XiBjyGegXoJJQkzu70GOrz4Qvp73IOfNwx2ZQVymQidCWbg8L11us5d2izyYAvTcx+2dBJ9FdAUxeENJv67CaPQH1e1oKP+w0Fp7Qha7rj3hZRnmqo0YRIQlsNk6l73L92WQMeQfwD9QpKFGBXxpdWGNyN/iMFvHf5JNjjoQ2DTYmJJBk6kWyccL3NSnDg3c+vsqQBe/tVI6hXsF9o8ke7MszRI099PiL5zWQiiaYF++/WwHJI0Pn+vKRvK6TVKjzi/njfuI7BpeoKI6GTFqR1KNFNyBx/A/U5IxWGxHIEi8ZEkoxIWbPIWHYVzXcDAzbVMm++ZgR0EtQrKElYzaU++72EvvcKyqcUvTXEUHAM7xG5y1BniH7o4CdW528VzcIGfGkejwcDOumpV7BfaGr7bVkxYOjnMRtQn/PDcmzooWDv0VgULEKXmmyW9E+r6XI/dxgacD3/3/E+EjqJwSNocvu9hfyJgb1yk0ew3yxNeGeo10hgU9ZoxhKhmyehUUPBKvuJpHpBA3bUK6X41CtAJ6Hpda047fdx64feYfA3VyzH1hB46DgU3KEZS4IeeGjSNvJO2pYz4AidNGz7BfUKmv4urNnYyf7LDtTnjLEcheUlwRWasWQ8uxU1tGA9Cc3mfO5QDQy4mfOP96BecexXAToJpboLteIMn2PpwgoseF9aHhkLU4wi5FonWQsaMu7bfRqwmdGAR0Anw9EOzn6h6YtY/CDQBuoz/DdzDy4USYe2/p2NZiwRulQ/FvG2F8t0uf4GemDAc+HaTkzqlR/7dZ8BdBKaPny+W579+lsQ1OeVeHBpSD60P06oENKLUGsIDkskoelM+4fU7AZ8qUNFj4XdMKBeQYke3FBXthz71Rj8XU0SfNAMB3b/sCNJRh2rotmU/pI3WTbfmYEBz5GmX0ZSr2C/UAJdDQ+8Eb5fIPddk0pDjCTFoqVGEixCt4iQJUloOSbB8xrww34N7BdaTp76zJk/963PJdx3ZdpTi4JtPN3CRJIInRvGgoZMSWiDbYTJ0ZlP+2Uc/irYL5TyNuTZL6jPq6xD7xSJhw43AMgCMipa5BrReL2za76bz4AvjzDFMhqfQb2C0ug7wtfo5it3Qgz7XWsSTGI5/JAoGjylJMGdB9URJw8qv4mkoQGnjA4cdFIBOgktbL9teE7JwaNgvwd0Pq92KLjQwEN/kk41Jwnub4o2q3OHeQzYQyf1COgksBtQAvu9mRHcq03xdYT9rhnLwXFgbSzWq8nQjbOgITcS2sCAkw2nAzoJZfGAVkz7DUsXjkh/V27Bhw2xpdBjGlTGmAZoVJm1IbYUPpLgjM4dhhlwmsBgDPUK0Ekola4VO/vtP7KD/QpwYL8jicOmrNCMJeMhH0zQvEuCdS7nDufUBsylXsVxaTRFQGnCwNp31jMOQQyWLgibSCJHktSMGEAoraHdqRGHSMbK5NwhsQF76hXLfg2gk1C62lRtRmAn3dIF+K+QJPireAb3b9/IFjuSZITaEbPy7oL7xzwLEtqLAZ9SvPbGQCdhv1CKm7yhUDmDKgwmjyROJNEW3H9tgOUQoY7CQ0fDyQEH/p3OgC8VoJNQBmq59DUVqM/IfaWpoLAcjxQAE0kyCl4VFXDH6708CW1owHZKA/bFZy50EtQrKJW41Gf/htYF3EqkSkOTsTyrEA2gMoJuS/RD27iSY+nmu5cMeLqbbwR0MiQewG5AKXRSg62WFJFB73D0K3giiUqC/U1gW9ShJcjt+qaHgpcnoV1SGLAfxwL1ClrcfmvW2W94ElWJySPJFrwz5FCwZxViIklI6cuNHZJDwSrV9O1yBuzmfpUC9QpaWI5+ysK/+DGUEthJ6Unw1gdaNKahw2mYiCS4Iwdg++/117tZ0IBeDHiK+87bL6CT0OL26+js5G52n/X0/gvq80c0Y1nGgobcWIXQv5uRT4KJOrRLgpc7dzhNa8DOfi2XegX7hVLJLUdhDKDHIpSzX/jvByTBezIJji8mtITKUEsehi5MQhsasP3rTTeGehW6wHGbQ0meOy520r2Ofesz7PczdFAMIpDzaEwkySiEVdQsrA1HUPdlkuCXDPhvP4KzX072+9OUCvuFkuim2fyX/iuWLnxSEnw8lobkQ/uySIXinIy3AYXliGUwtci5w3UqA3bldlCvoOXV34mWz73awXs/LgnWNI/Uv7GxI0mEzvXAdt6Q0MwSJLQXA/5Tom/tGOoV7BdKou96FHYS9vuJ2hniKNjGjmgkwSJ0pZJDuxgJbRIDfkAnDdN+LVocoDT22xiKxB6tVwXqMwz4I7XfUA4c38h3YDlE6B6GwMkLPvu5w+3vBjwaOonsF0pTa+rY1Of+E5sDjOiDk2BFsyn9fQQsh5SDKaItM1rwzDuS/mzAjnpl369AfqFeWdgvlMZ+b+Qy7gF3YwPqMyaSlKW4HAr5ghS1VBIciXjzTiS1fzPg01joJOZ+oTT2e/UbUDgAmP4h2+xgQh9vwQWJh4790JhIEqELiYdegIT2JwN29qsBnYSW17VmYifD0oU9Jo/gwF9uIklx3sjYkSRDN7I/05HQ+n/zTST9wYAjdNLAfqGFFSJB5tIFC/uFogWHHUnUypz+psFEkgh934kthT8ktLm8qnsYsB1pwNcx0EkF7AaUtLTEJMAoLF2AXpLg3U9f/PskGDuShMTqmmpZCif/czVjDQ3Yjqv4caGTBtQrKGlQa3mRoAL1Gfq1GYuYWgs3V4OJJAmKoxJv+6FnJKHdnwZsNTuKqLj2awCdhFJHkHzs5Ab2C/23A38VhlXEswY7kmRUzCqKFfBYVTDDD9MMMuBqhP2Ogk4idITS6EZGs4MqjMXkEfSbCR9ZSXD/X41EQoRaEg8dLFqlP3cYbcCnSL0CdBJaWidLPUgD9JXB5BH0/1RoQ0RxEQ+NiSQZ51Y10Q89Gwmtedx3/X81L3sfA52E/UIpK0m0/bqWCtdTUcJloDdZcGmJfuj41sNEkpDaWR9y6fdgrPBqSXzuUI8x4Esdkl9Gv6l/64F6BaWMYS0nFPSTR9s9PAZ6qwOJ5Yhr61qcqEnQuSH7mEI/dNrFBSMM+FTzqVfKbWRF6xWUyn471r1o49IFUJ8huhtrR7MK7fysQijZCZbDQxtiCtyT0BKGXNXAgJu3P23DbnwOzGfYL5TKfgPWldOG4CaPCnQ+QxwHPmw5bEqNqQ4pSXDLSII9CS1dyPU0YPPOgB12Q+sR0MkWRyVQosfGH9+w2hBUXLoA/4V4zVgqdAy8ZxWaOVmFUEK5Q1XN4bB0qZJgPTDg+zv7VVzqlbdfRIhQIt0qJvXZJTOqOMJ+IX4SvC+ZSXCDDEPG64SJA68ShVwMA3bUq1HQSdgvlEp+6YIyLAA5qM/QeBM+aO5rDk+jiPOsmhqrjc13aUhoerCL4VfwB5d6ZU38JWC/UCqduARU5T5R7lF9hkY7sNuRRMd2rhkLbzoZQT2TTZlkCFwNMuDuV/vlgXYfH+nQow+lilUbY9kAcrOF/UL/ZsF7TZVYHoR7PJQidH9e0rcktAQhlx1kwO2v2a+F/UIZiAFR/3lYIvUZgv7tLHhniKPgeCNaTCTJKK1paqwxfnPyc4c3BjyKegXmM5RUN9bNGGtFGtRn6E/abzxLyJJsSrz0ZKiLyB4q5NITN98NDfilxO0atLn2C+oVlFZXpv2GiUKqAAAgAElEQVS6MNYoUJ+hKSaSqCQ43I9IgkXITySR/dB26jKv+d2AT7Wh9haDegXNVSCquAy2/o2pSxz8QlNMJG0NYyg4OasQmq3IFnDgpAVPOgQ+NODr0H650EkL+4XS2m/DvBt9wlJi8giayIKLjaFXfbgXIHYkyUiC7yRiIFzv+3R16F8MOI5a8qlXsF8o7UOhWNmvmzw6wH6hyRz4uOOMm6dlFUJzHnVVFOM2blebKuQ6/48BR+ik4UMnYb9QKrmlC1ZbLvXZ2S/8F5rOgg8k8+XBKsTDKuWFQy9omC7kejHg00jqFewXSqpzp5nYSU99Pnwh/YUmdmCaeGrSsgqhmUtu1XOb/ZuTf2snCbleDZgLGrKPqWXYL5RObcVcuuB3loD6DCWQ4ThweGU2mEiS8d55kjfeh1wTJMHfQwNmQydjfADsBpT0OMaf6zJ6EfoP/oe9c91OHFei8Ek601YHiWAMBt7/RY91gaQ7xlUOyNji22suP/BMr4VFbe267HqBe8GjCDiVQJyjGauMPHQje1MG3rz9yvVJwOHfFa5XYDaJIM1xjJ8zeQSyEbDTiuDunw0pwSKwl0RwWtBgb607bL8qYEwnwXyuoIrj6L64PgOQowpslTifVkRwEdi0GhHsbr5ybb9c8JSuV/4Pxn8NZKTfk9L1OfRCvEK/ICcBO6tOQ4dCHouCyyiBSQ2gcfufczeJ4K3+fEXXK281hPoFGe+eOtfn5Lvx+kLrFcjHv3/04TFFSGsPxMcicIx24E4qPDQ3XLm2Yy54wXTSYLsBMtLvTjJF/7qR9ZWlCyAr/rOjECOywZajCKwbjTPWTVeug5qAY+c19Auy5n1qq9z46+n3rRO/yF8wHwI+x0nCZDHZODO4KDg5of1wIsm7XrkRx4q5XzDFjVOWv74T4Q3XZzA7Ak4LGgzNWEVg22oWNJgf7eLdNarGK+gXTEO/rcr1OdEvSxfAgwhYuiLGcNnSjFVGUk5kySiCx165RplO+qIc9Asy4qO1SttJ/8gvbCfBRATs+ghYmlAJgoVfdRF56NN5+7MwFDxmImmndr2KzdZ09oHsh1xDv+ERXJ/BRLi6jEFj08BEUiG5OacYCq5GXLnWpvsvxrheQb8gJw7R9krDv92Dv+EFMB0B9xzCk9ar8MRvuwgcJWeC9KHqyrU2Vsqh4HoFJq2yqIw34ucM/oKp8OcKAR+CV2EliWD/KRNJRSDsSBqUCOl9izuSPP2GvDL0C2aR3zFK36vwwBusAB5MwJWPshrDfncfw34woyydE0PU4JVrXStthnwRo8J0EuS+WTZa+vWnEddnMA8FvPr0KhRVMIuCi4BvEx1uU3GxFHz6GKJfN7xs+B/XK+gX5DzTp9TNIi5dCPRL8RfMogYcm21856DQSRP7oZlIKgN7z4niUHB17cqltDnAdBJMRL+HaC4uTx75Qw39gukV8MsAAaeQqrFpwJajGMEgeVO6K1cuP/ersDm4zJFXzP2CnAhLF4xm5WB1dn2m+QpMT8A9c8AXPt0cFG7BPiI3NGMVAZ9EVongfwaHAv0aldiI9LuHfkHWdI7W9Tks4Hr5A/2C2SjgL4JW51VY0cxaim44iHHLOffPlcvTb6V1vfJNqdAvyIqdthwSir+4PoMHQVDA4SyLjTUxqtY0YxUB3zcqeBa4IBvODcwjXK/i/3bPXQ1kzeP4I1w5Hf2GpQsAzDEFHUXRSeOM1X3aomvKkA+a9+27qPyVa+ddr3RiIz4C/YKs8BOUGtvJcByZPALzS0H/q2XXVmnTQDNWOSFM44TW7OvuqVGmk3y7IGsNpVUMtF/wCv2ChxKw0xDwanVK9kaDEbn7uEEEl5HE0yU9nLUW+gXzwTGdNZXr8yuTR+CxBPzWm4Luqeb69liVNyUiuAycRCc0d+4N0LheqWwsAbgJe6Xrs29hsOYFBgCPJ+CeeLnuv1sK/dApFrMjqRARLM5xuDGmk7hegdwn1iQXco3tpMH1GSyKgEN7rDwUXLFcrpx0XnTItTcA00kwEf02ytqvvw5W70wegYUR8Gq1r/zplYaCOxGMLUcR2KqnKQcGljz94noFMh/VVtX5HMaTrIN+wZxrwFf58+xV6CSrhRMRt5Simr9y/Zh+HfQLJqDfY0y06OSvd32GfsEcCPi9N2wOVHH92OdwWjJ6UxqasYqAv3JVP9LADtcrMM0ZPboRrs9h6QL8C5ZJwKvNUSq1xMjrGpqxyqitVda50SI4GZRCvyAzNgej3cIVly78gX7Bcgl4tdqemw2He7EcU5+FRLhjtJF0Y1LP8XjgegVyF0mMchQ9+F6xdAEsnoBXq4PGpqFiIqmYEpuxI5qhL3OYVCFAZuyMzvcqfs7kEVgEAYtpQ+9VKNs0dP86ESOKwEHNwOfcM/QLsl8Ma99mr8jN+APp3pG+YG4E/Ku3C1pRt9tLJoRnfmYiqQh8GBUBX+iX8gPIfSQb0aI+XRv9iWTpApglAX+n0EpDwKuPVrmg4UQdsIRcn0YBu2Q6aaBfkBmbo8qJLVoDOVyfQWEEHOsvRuyH7j5mUXAJArhSzR1V0C+YgH73FytUiX5daH0GYCkp6MoqNatfFFyJ3pQdTbc0Yy0cByumoJPpZI0RKchNv7vQ+qxZwuUnj+i9AkUScPRfNaI3paEjZ+FYW9HlIL7nmsEjkL0cUittJ21YusDkEZgtAb/eRsChPdZoRHBDM9aC9a+xw36UiX4Nthsg+2WwDZUOhTmbzz6/4foMZk3ArufaOOb34F3Q5QUN3VWUfTgLhV/JUFn5BVfQL5iAfsNdT+F71T3xjuszWBoBu3EEHBtkh/shus98epJmrEXKX8lpKHWi7rhggcz46NSvxnYyTmeEySP4FxStgOPPQnDGSiNJLTF6cfK3VjgNOUwnwQQ4WuXSBf/A629cn8HcCbhnumS0Al6FJh2VNyXNWMuTv1aKeN2LPfJNgUnOosb1OagIJo/AIgjY9XDlD34dp5hpHlzQ4H89DXXCBWX8ak3IY9Qb5McunUR56YKPNEwegeciYDlXeY7k2DQsBXul5PAvvSEFDfJWQqzG9iocVlyfwYIJ2Nqf/UgOVuiHTsZx7EhahvxtNF5Dn3a8zJmBXEexTek1p/DdcLg+g6ck4DCvIvRIxB8RE0mLkL/ViA1IFfV9kIl+T6qNv2f6ZfIILAd9TVg/JuAualdxSE9Y1m4NcmnmKT9xuvvbW7W2pb4P7k6/fgyuUg0edaHs1wv0CxZFwO6eBBxuq5IIDhx9IljPW/7qvP7+1h/cq8B9sdlXqqOYXJ9f/gf/giWhujMBr1ZrYyXfwviTImM5Z/lrnBvDv2ezFTrswD0vgnrXZ2fNC67PoAQCNrddWg/CQNLZObihGWuWOMRs3jj+vXh+k9kAd8Ku7g6i6iSGySNcnwEEHBRUHSnYCV07+DfMUf42GrehIUtKvkNwn4PonO4ketdnWp/BIgm4+u5EWd+jhjg8QZqcsSgazlD+DnY/D5khpJd64lsEtyLY21baiyCTR2CR+NOrgG8n4NWm+TRlHdRLROtZhb06DmsP8u/AA/GN16ShwW3h46TygPl0fQYAAv4mgoUtOvFDRPBssI/jRE4yM7veFkMaGtwndgzXsC7ZOmsNrs+gLAJu7nOLbaWtnSmcMz46E/nbSHWDEPHq2sqGoyQ2wE+x+zTNky3YKlyfwXLxX0YCDl2MwjhLCtcIpnnIDrFsb8JKydNgY2pULqShwY+wrpW139BD8k4MB8vVv56Aq3wEvNocxR+Tt8ViIunx8M3PwxMfoXHd+LvS1lgnuyJwqwLjj2Gr7MEPg3LvTB6BZROw6yPg9o73WT/UYhVDwQfsoR8sf4fjXvTZiP5lW8VWGv8wrxSMo9+Tjn6dN6e077g+g6WnoF1fCrqdNLQnEVzTjPVQ+WsE+dtJDpdE7Vb0RnAhRPJKwQh8HL0HgcaBzdOvX7oA/4KFK+DeWNve93fVint10vwoZcPH4CD2q4dEyeX9bBXmRCmvwZcLtOUqp7adTJNH0C8okICru7ew7sSZvhiuDWXDRwiPZjjwned+P+Xs2n4vXFxzpiQNDVSXQBNOoVUsPepOH67PoAgC/u2mIODPuXppmxhOwo+o/lph9sh/2H5h0rXKKDq+b0caGshXdN8nUllN81X3xAvcC8rA755QWuUY4lw7nTclW92nl7/Czch9c9ZYKzc1xP8Ww28gBAfvv6YYPYppl7c/iF9QigLuJeAsIfMoKK0zPzNAOrX8FfjX/i1/RxBwet+koYFwB1TYTiZ5jOszKD4FnUezbGulNyWdO9OFvtBz6oSlVf+W5tUEfF5LSRoaXDuDJy39Vrg+g+cg4FwM6DftmGEfwxCwDbYckxTeQtRzg5sXqm/ydxWb6vQrCv2z3KlAHzaHuN7DyvTbPfGK6zMoLgU9IQGHiSRxKDjUDclaZpcerVwS6N6V2fcxt9VvC47qhu468J1+91acUPyUv9AvKI6AX3prwBn1ys7Ilg8+Uc1EUnb5G+oB0mRY76KMUQR8HkjihYJ/jlGt8r2KeZjXNyaPQIkEbCclYG93I4zbn03/yUPnrbwZyXqjstXuGnmPIeBkdUY3NPiCdTOCfu0brs+gRALuOf4m8yjQuhZynyn6OwqHubAPST0hDXHdmmxv+wxM3fCWYMfGDfAZBNpgKCnTb3gK+gXPk4LOTcC+80LhTcmOpJzVX6NoR18P8bcdxcBJyDDkDc4nUGc76c9hmDyCfwEEfC94839nnZXch0lb5pG/g/ef1IreblZjCDhkmQdFcLD75usHwRdPQb/RSQ3XZ/BsNeDdNCzgJBXm988yQnpn8dEI09h91lcKAjZ2vR9m4PBXTVLj2eEdeSqn2ufRHSsGf8GTEbCZpGF101yC8qCXMFtl74qd8K07jXnVvoe/jd16g46B6n76Y0lDP/kBdCrjjfB5xeQRKJqA39yjCLj7KTrFJIwkxsDYW48TNi8oDLkPvQS8jv//69nt9Ce33KieFmuj9b3yf78TokHhBGwfR8CrTatIQwc9hovD/eSvs9JCDOHr3lwh4G3k5qEEd3yfGJ09KbZNatVTDbG94/oMnpGAq+mse9e10I3hkgomb3mH6m97udHcIn+vKuDtReNcHy9JroO8zmc8f6d039assrSv0C94VgU8YePTUVrQkPqhmUi6g/wVV2Fcs7769tKuE3DIawx5nQUGbslpPBv9HpStVwlvdD4DCHgCEdxI3pSJGQ6UDm+Uv5IFqHpSd5CAQ5O0kUaC6W5/ruO3T3tY1A5qb4RnAAFPgb1iQYP/8dbE7J9/x0ay3gh5BpUw3XQEXA0RsF88KZhyGBYkPdXx07k+Q8DgyQj4vXeic+J0r1dnKmesE4nLn8tfxeYFbfPdqZeAv7wcb7UwyMD+QkVr3bMUP8bTLwQMnoSAnX04Aa+EAdLPBQ2G7p2f6I9qqC/q0hmlr8v2ELD7i4DTvgbnBgaSun8wX/YE8DUmV7lx9AsBAxTwhAjudE7wplSMyIDv8rcZHrd246etT17QDClgn4YedKaMb9PhTFk6vOmszvUZAgYo4EcR8GfAlrwpqR2OrrBbNzx7NHLUeqMiYE/TQy80zDy5mvtUyfAd8aN6nyFggAK2j4mKB403pbcTJmjrI2C0vhrevDDaH7L1JdzhFHRKQ/+fvXNdchvHofDszGbJjEm3ZVm393/RFS/qOLEM0DZFUuJButI/OlVxixQ/AAQOiAX14THS0Me1QTG7DwCG1Q3gf1Yj4EyEuzYBraoaM5LC7aZY6cl38vqBAD59NVT224syIA194NwLr3v1bIolAAyrAsCimAjYu8ySDoJtxCbQkRRy+8tKX+lA6asgAK/1aY/k/bNbTGQ0jmhn7d9WzYxc0AIAhtXJ39UIWGcEcMCseB+0YUZSSPgr+N4j/UZZ2wqA1TqATzdJV4DZL6ShD4ffltt8d70Nq/8MAIbVEAHrtYaSnHC7mW4jTpbDVNDi1KZdmYnuPbLhr3hPlnktAhZPdo0twn7+OVxLMNypQ9l1Cqp89vjtFSJgGFLQhQD4dBnZt9erFkMe+qPwV8l3NZnXAKyf7pqB9KicO9VgLQ+FXyHZ0itt/5Wevq4AMKxWAP9tLwGLArCbkSTYAQ0CHUlk+CsDuqrfzCK0LwHYDEhipjNIDEg6zNYb5wXlda+0+naizwAwrNY74CIB7KbKhmhTtijGWg1/Nff8PhtJtAZgReyar56shvXBONLQB7BBBslOOv/PqbsDwDBEwGUB2N4casXFcPM3NLE85vB7ppvrdemrDwFsPSqtqJbgeRtiQNLurZPsdNG7mcB+AwLAsHoBrB8ArIQqIRZhW1i9Fy1RjPX44IRipSc/0fRsV9w2GsCMMqX3CXClsO+dJ+d1ZGufl3f6+84BAIYhAg6oZ00dyLWsMpb7Qu7y9/BXKzr8Va9LX4UAWFzYuJwlcIul3K1d23kJA/Dr9uZd3TsADAOAf4uQSrrK1Lw2JfpI7w8zehTv5+HvMwBLDp5DAIEV0tD7NNPAz8tOauX03H+rPgCAYdVa0QB2Y2VZbUqNGUl/RJlU+CvU5xXH7wHYpqEFNZ0Baei9brzx11RLroF/fluvfzqNADAMAP51EBYU0TVsP40bq4MuFneSkfh1CiafeysrABaquQQ5CExLMJypHeK3U4zm6fKqCjMA67aybQFgGABcIICdmjDbFKwf3OoKj8EpoPdIR2m4bd4EsBXol7QypUQaemf7ztReCa3DZCebbtVvBIBhAHCRALYjvYOUscaqK3i86DJ5YR5LPmwdwGGr2dgoXJMfEtOudrTv2hdkJ5vucgKAYTASwLK0d5xtLnSRU1NvMRYrfRVTb+qyCuA2/LqQ0MVyLcEtlCl3cuth8CtCZCelud//enZzAgDDAOBSAewHCyjNJbh0X+n9ITvBImqa/iMAszLVH4lkwpImp4zCWZDqs1nS8cnLCQDDAOD716Up71U/s2UeLggWNRZjXXpe+VmJeHLLHwL49NUoqlXZFOtgQNI+si687KT2dYHP7z4AYFid9vOvn3+vzAMuEcBLowM/X6C+ItqboGdX+P6eeHPvPwWwrawj6rWdu4ABSWV7fQa/YbKT8zdqMQFgWLUAlo97XxQJ4F9ihmQQbMBQVycpozD1HWtGTA18rQBYqv6djAbpMiANXa51JrTVbOeRX+IbsxcAYBgA/FYsk9KGkCDYXAZXFDvdVBB/o4aTEQDs09DEdAbzqTFpo1A7a27b3amecr4fAAyrFsG7ArCdkSRYZaz5r1r6WC6TuxfXzMyouEmBGZ76UwC7Bm8qCDY/kUhDl5iLal6RnWTfRQAYVmsE/GNfAD6dOh1Qb2S+qhBzOPtsLVNRHLup50vGALBNQxPKlM53QBq6OC/Y3nmwspN2rmlQLR0ADAOAdwJg+/qzshwmQzodvhjLNWdptiwt+p34OoBfzxebhAbVxGKXGbOuytp0Y0Dp1dJ1Hib7AgDDAOB7APdFHwG3hul5XcBz8ODpJpjZq64xawNNi2skAAcoU87rKKFMWQ5+B0UKmd2pqRjVtbCVA4BhtdoPsdZQUjaAnZYSGwTHkl0sOPyVmgl/ZdTi5w0AfDpLTpRDYkBSMS/eoENkJ/3Oa0MdJwAYVm0ELKLc5iW/+2yZ5Otm2ddiwl832Y/Lw28j6bgO4PcK3+zESW46AwYklWBd84Lqs7wFXx0AwDAA+ONYJq0v3ikm/7qovx8yf3mZOAmiaIOPVgEs4gHYNlKRslh2GBbS0NldvmDVZ9t1/sLNPQAMqxXA/9spgF0Bj1ZcU/D854CShkb6iixeckWqzVZx41XHBLALqDXVEiwwIKmAnFOA7KSvyB9eeucAYBgAvDcAB0hQ+CacoxXxLNJXOp30VcCJKT9I9zO/kVemRDV0Pm+3f0F2Ur06EQUAhlUL4LixTHoSKU6b0p4IRzq7z4zf4Y/BZsNr02tkANtqaEYXa/6GNHS+Cw9GBDZQ9RkAhsF+A7DaMYCdIp7gtSkP1JHEOh0eY8PGPkBkAFtxJa2hTFmgdd+XGkz22fRTvFNzAQDDAOBoR2lam/gBDfboOEgdbUj4K9+JQnID2K4k4UttH9bDiIueANVnYW57brG2EwAMqzcFvafmnTPbG+GPjwMMCjYN0JpWnjQQ23z91gH86QOmC9u9mwVlytRvlwlsNT90wXQeDfG2EwAMQwS8Dxus9800BR9hvqwXraAS7lpu1ft75waYE1PEB7AbtUE0JDmFUdRipdtwfUDl86K7IcZ3VwYAhgHA+wXw6cqfE+6MGPd8ePP6X9tJXz2mJTeIgE92QJIkW4LncKzBgKREr9VkG3952Uk9b0s1vr8sADCsVgD/Z6ujNPlFlQjRpmz2m8FkFbBdmN9eTzsGsAnymekM8hCXCeWbGbqgpdZhspMfib4CwLCKAawOAGA3GEhz2pTy9R7FUsLfiQ9/DX/TrNw6gKM4N18tWVQ3/0BiQFKKdIsMlZ0UL6g+A8Aw2G8A1oeIgE+uI4ksUPJBsN7lLyfp8NfXmaUq9d4QwO5K//k6+ut8tARvaoPDLzfx1/2LjxcDAIYBwHsHsL1ApJWx9Dbj6be3PkB6I2Wd923FF4gGYK7VysXHGJC04fIaX49TfV42XYRlB4BhuAPe4ihNXTUi2aZgvb1KxSbhb2bpqz+se3zGOuKuubQ8gXWLNPRG262Zn7AIVn2O43EBwDBEwHsH8CLaQ+Zq7Q/3JA89kSqNWZyKbjUCjvhMB0XNKHQEhjLlFmZawYJlJyP1hAHAMETAhwCwayUlL6/c6a330k56lvzkheQ9zusRcEwg2mQGNZ3BfCENHf31CVZ9NhnqWCUHADCsVgD/d7UKes+xRWcU8ehaLPdnD78kL32V5Ua0s07OprvGaF5LYjpD0qKzSuzSBcpOmnaCT0ufAWAYADwDWB8MwL4jiWsKNppKxR/fXvqK625u067XZQ3AOvqu6eg+GPurC6Sh4+KXK71y747ZcxGzZAAwrOIIWB8MwAGaFUsSrexU+xz+ak56w8Qi6TOxg+1R2XrXXK0OMdMSjDR0vJdGB8hOOtXnJmrBPQAMQwR8IAAHqDb647vkjiSng19a+PsMwPOxHP1ZWvURRY1n2GVTWZH4bUNUn5fs8xC3gAIAhlUM4ONFwCZ6onX9fwXBQ6HFWKwPkS38fRoBb0DCG5eGNi4KBiR9TMCenWeyeDym4CD21Q0ADKsXwA9jbfQmR2ly88Pt2NkFZYoq2SGLipm8kGnA0yVVBOzS0IpsgTZJ+gkI/egZ9ypEdtJ7rBtUTgDAsFoB/O8jgNUxAGw7kuiSTj89t8COpInvPcopKDKmioDt/0U9CldOhwFJH+X5NY/fpRR/k7pzABhWJ39XAXyQCNglMIO0KUVhScyzoOu4HZC0zLZMo4nOU+2as+JaguefIQ399m0C1zi/PGS1mX4NAAxDBHy4CPjkmkkVrU3pvooarzMxH9ofl2O+TzgmS0HbVEZDSYH58Bhp6Hdd1ADhDf/zrbwcABgGAN8fpcfRN1iCSU7Jopz5E8wogiVqz5p1TRoBuzS0oILgxFLYR3o5QnSv9Mb3HQAwrGIAr9zmHeksmxRTD+1PoEJUlUan06WZbOCY+UPKtG7bjU5DO38FaeiX7Bqs+izVtoUSADAMd8DHjID9QSPZemhdREfSWZJFv9+V25nvCKZHAG/stpmKOqoq3D60CQOSwt8KXi/urvF32nTDAcAwpKCPGgG7QhNuvGkRY955/RDfu5w/q/AYAYuNd83AtgRrJVENHejPjLbxN0B2Us4r3W/8XgDAsFoB/M/xI+CT63RkyOZc/TFnDHWmpRcLUu9aA7Deetcwwti2Jbicq/yi8dspJzvJ4ldHVn0GgGGw+gBsLxH5AQ3zmdRku0hcwl/NpANLkO7KAuDTV0+LctgkdY80NGdd84LsZIoXAgCGAcAHTkHb03sK0aY0J3ieAJMdIOHKZcqQnFgDsEqwazpyDZ1SosSAJH6jBeBXm8sOdUvhzwDAMAA43W1ergyvZGbr+hRvljTmxJyK2jXCFjL7p88E4NNVfotCEPcIoOzzl8DIwwnNzTzydeWJsi0AMKxWqwjAp8vA9l1k6rE1vgF1KnroFKO4mA3AdkASrUxpbi2Rhn6SBmpDVJ8XFydZUTkADEMEfB9HHPUAs9L+pO6eds5/2iCKl77KqvwcCGCdxm3rFKeLNX9DGnrNeelfkZ1M2BcPAMMQAd+/gceNIDpOHtrTLuFNovcKNP2JdEktNqsAFolO7Kskn5fOrdNZqo1+a7O6G+ZESJpsAYBhAHAdALZZOBFA4GQdSWOA9GRpRFkBsFDyku6/p5YQypRrFqz6bM4DmbYXAACG1ZqDrg7AcxAs2Xpjd06lCILn8FeTlWF+3l5ZOdXMADZ5DCoGtg9UQ5nyDnHaazqHhL9N6ipEABhWq/29BmBx7CKWy8RrU1plrH7rKMqUhbE61QXW9bZrAG4S7hojL0o1JFmvBWnoBXBtiOyk32syfaM5AAxDCvru9JJHryI9c023iwxBt/XH4Iqyzcdsiispyg5gm7mXZEvw/NVCmfL0LQOnAnQ3zJSPDKl7ABiGCDhPMjFXEDyEBMHb6j7On4HWA/QhyVDe0ysAwKeb5LShoUxp8Ds6PWdedlLIrYcuAMAwWACAmwr6KK/MeJ3vipStirHOLXcV7W5/C4ziigCwKaej8gfOgZrqxq8ZuhCge+VVn/tMqRYAGFZnCdZfP6sFsNM1ZKcUyq0KoEbuf/cjEovMH6wCOL38xcAqU5bpwKTL08tQ1ef5SbXZbjoAYBgAXB2AbUcSXRnqRQniC/yfGUFeXV7v7+8AFo8C4hn0p860rop7wNWmoc3QBcE2Hi01+BmLxgFgWK0IrhnA9s2ny6BcY4aOfTqNpJrTd4/NUOhjuzSFANj7UBSBTYYc7cUAACAASURBVDF7lfg1Ph5f+7xs/i7zawgAwxAB50smZkMJpwK5HO8xH8ki5USHv0oUmzwtB8CLL6MpZVEl60tDXwPx60VnsvvBADCsRgD/WAdwTYGCDLuMjRcjDJzys/thweVDX6sA7rOd3oqczqBVdWnorz5IdlI53as+t2gYAAwDgO9jmboqVazTwQxoiDaLKCT8lcVJXxUMYHMjTayfx1BfkTLlZbybKMiVGJbQLA0Awyq1dQBXdmlmO5LYeugoJcm89JVrCJmKvgQoC8A2p0C3BJuPW8uApEvH3aosXqXIWvoMAMMQAQPA1jrlaq0U15T74XFlbuaYYFuVHv4WCGD/XJmGpKEK/N5s468Ok51sytDLBoBhtQJYAsD2BP8/e+e6njiuRNEzV6kHC2N8f/8XPUi2GxKMSiYkWNLaX/cvMpkGyl6uUtWuUVpUvrgyf6GUKdtvzf+PvffAlatR885Da2fvXXh9sbIoQze1FMc3cabbnQQaAEYAOGsAO2dDI3tTmi9sapsMqAXrSbP79HeXAHZFDMGZUv30lr2fB5l1fVYhtpPW9bnfzfMIAEYAeDe30ndRZRDKw0vi0D3XtTJMzs9G2MDURzACdt5j1MyLHT1nnjrtBUl26YKR09+593nYUTkAACMAnDuAA3bzzox85jRRSn/nHcQ6ilahC4DN/qLGlqGNtKKwTrUMXY4hrs/LqutuV5PRABhlCuB/FQC+US85Y83eSpsnkgbJcWs2RIjDAeWs1gD8/uyyCRkJTrMMPYThd/qBvfljA2CUL4B3eSt9Wx5RFYKBgXnCO+hceQ0Tl19qYpmUORc7jZrS+0Hv3+HkCwfgUgfD9QfU7sIMACMADIA/JMGSfd+GYvEg/Mr5tXjAsFsAS6WG6ZUqsTL0UUkxe1MA2KMpGABGuQLYAODPWVQteFPOm4pCzTLOUlJtLREKoyMyitgxgKUytEmuDO1cn4NtJ3d5aQNglCuAi7Uz4P6QtRotzgsF38ft7K+3sWvatxRXXfS4CuCdRI19gNIeZ0r31Y2prBtxrc+mENLfeYh9r28bACMADICv1Bxlb0rXDy1aOyyN1ZFbX8UEYFeG1v6BJLO7PqQnHzbGgI2/y/ic6c4RxRMARtmWoHMHcIBpxtIP3Urpr2i9oaNpfo4FwPZQVBmh5p/AgqSynxxUZdtJZcfXj1HFEwBGeWTAAPghO6Uk2MLT42Z/rKXNC8aCoopuTcA6gHdEtLLzLQl2VlCXhDDuMvSpVSG2k/MzXt1EFk8AGGUA4D/MWgm6BcDzjiRvEjxvLnqUv/bSRvQ40193wzRm51HTitsZYnE9efQGq8lQMqj6XDWnAwBGaHcA3nsu80410nCHb6fMuRLXOxTbppkA8KZ/o/YZi87fXLSlnqYKdX2231R72ns8AWAEgAHwWiXTCN6U9jzxvpo5Hc8JnUCxehPHAODDqfP2n7sydFFHWYY+15f3JftezW9+/+7iABjlC+ACAHtvDUHelKa9S3993anLr4y0Fbexb+7TO9ph1LQ39hMPR4Ljq0DYOSu593kJsbGM4ioDwAgALwBuIO/vPGr03sV/38jNrct/L/w30VlfyQDeZdSctfcQYXqljy4gTbjtZB3FIx4ARtkC+C7yDQD+fJgo5Bvzi+1N+muE9FcVMbcANa79J4KosWVo5SWwiawM3d74wEgjctH01wNgBIDJgB/JJrRKSoLNsmSmDXB+jnwlwAqA9xo1rT8HjqwM3QTit1B2ZVc0J0kAGGULYEUGLJcya7Gjeco5hpPbxyPPHlUxT8DEkwEvx/HSluA4euGOlfAgeDscpyMqrQNglC+AV3KZI8z9nEhpwVNjMdUIKFfHOft7U9eNKQO+aHS2G/5+uAjOSo9dwMbfJcDiijAAjDIF8N+rGTAAvlM5irZD7tZnJOtJFXv66+q6OqaoaQRvaPel7bzqcx7D8OvGk4ohrvZ6AIwAMBmwcBvX0uzHlASLmxeG6DfxrAB411Hj5ma9SbDe96H82a6U1saE2U6OsU23AWAEgMmApdLrIC5oKOTeVJ3AhxtZBnxwC5IEZ8odFyasL/kG1+f4AgwAIwBMBiwnIpWw3NdfHExmEW1sGfB0j/c6o7i1QvtsG+51gOuzmQfPI7U2BcAoQ/46AK/0s55h7aObYSH5Q/uNEdJ4tGlXu6D3/d7KShhIsl3sOyxDN1owNf1gOxnn/AIARmTAN7kMABbv42Zj8Xmyvjql8SH00ZWg5zJ0IY0E652F/rEqTIjt5Oz6HGk8AWAEgMmAQ9O/zUnwdAM1yYxX9/GVoOf7fPGYZWbC857K0M71Odh2Mt7HOwCMMgXwfwB4s051gBf+vTFgdzokDODLOzxH8c1p73YGs6PvqRwLaRnXtfUqEtdnAIzQLYANAH7uXC64H3oactEpuYvFCmB3hq+9ZWj7tLSLVL7s54q5ePhrz+PrqJsLADAiAwbAG1KpMTgJnkczT4fEAWziiJqjdv3O3oGkHXRDn5qQ1itnpGmNTSN/ugPACABHlsu8+55RhYxmuvTXRH+D/KwhXgC7BUm+6oX7Tus3L9FtqhDfq7n6XEW/vhsAIwAMgJ+qZprc0t8HAC6iiZpWdKZ8s11KU29wfVZt/NEFgFGmWgGwMkUJXgN07rwu/8uKJJ2erUncALZ+Kv59kRZsbxvpsUsXlApwfXY7B/sUrlUAjADwza0UAAemKsLmX/vhJpf+xg9gd4Tv/d7s+3tPGdq1PofZTtrgSuNKBcAoU/0FgL96J3/A4KSsrz5pXAOwiengolncQT1Lgt/w3Z1m/Iq2k+6fXqdyVASAERkwAH7y3rFmlTBDuTsdsgFwXFFTal/1Yk4whx+vLLgTIAm/U7RV55QuIgCMyIAB8JN3zc+38pTT34cZcBnbm/CZTE2vVD/5npqZrbLrcxGt6zMARggAv1R2R9KHoeC9WSr9BIBVoWOLmuZq0v3QG/rnOHfUW2wn+6TiCQAjABxvLvN29cXtutl5PKRJ9/12SQDYLdZQkjPlzyxIsg9xYfi1pfMhsUc7AIwAcMy30rcnwdfJTeO8xBJOf9MBsDs+UP6BpB8pQ9uBNhXU+Ww/9zG5yxMAIwAMgL+i1vo9a9udqlNzfg4EcBVj1DRKILC9Pr75yyz7gM7naTjK7vRIsLEAACMADIC/dhsdrx/hkPgHmA6A3cY/cST4O2e53dIFHYJfV1hJsq8PAKMc9et/v1YBXJ3g6TO3kd6ub1V1n7qT5ykhALsDfGE7g/nGkZ+22mA7WSVaWAHACAAD4K+Tqbwogw+vXgXwKd7bvycDnU9ev6ftONT12bitoW2qoQWAUaYA/hMAo83PGWkB+FB2s7uUpwxt6te/vaMtfysj7jyaSuR9ulclAEaZIhgAo5cAWBd1xFHTF0sH++Mlwa9eqmE752XX5+XBYEj5mgTAiAw4jVspAsDP0NDrTDnbT72yDO1cn4NtJ+u0u/oAMMoTwP8AYASAD66xTCbw697i7F8aZjtZpd7VB4ARAAbAKBBWVYpR0/oJbF7o7t0urs/S0iObIldN8gEFgFGeAsAIAC9l6Mo/kOT+9C/BjeO5bDt5+ZR1m0FAAWAEgK+30g7GII/KKs2osWVo7R0JNl8/jrWtz8G2k7rP4lkYACNK0AAY5Q1gV4bWXl8sS8WvlISPXbDtpEnfUQ0AIwAMgBEAvpahlfEmwRcCD0//9vGS/QbZTtqfGs+5BBQARpkCWANgtBnACUeNHQ9SXl+sy6v1U2gsh5DB37RdnwEwQhKARxiDMgXw4dAIKwpdb9T21qhTr0Ndny+/vzrmFFAAGGUKYAWA0WsAnEzUlJU0kKQKs/Xd2qULShw8WnyvmrwCCgCjPAH8r7qPfACMBEKlHjWDQGD70iZ3jKMu5N7n34PBbW4BBYBRpgA2ABht1blIPWqOVxuqhxPB4Zx0rs9y+jvbTmZ49QFglCmAi7Vi4gBjkC8DTh7A1mvE04s156pj0JCu3bUk207a1+2l2OVoggOAUbYANgAYvSIDTixqBm/N2Li/Wi5Dn4abjYLe1itbpa7PWQYUAEYAGAAjAHxDBWVzUuMfSBLK0KfWW8u+7euy001NpgEFgBEABsAIAH+qHftcM1xW23nMqk6NNXM2Jsx2smqzDSgAjADw9VbawxgEgEOcKVWhH07sNlWQ78aC34w3oABgBIABMAoFsMkkao7aN49kS8f60YKkY3cBqwp1fe7LnAMKACMADIARAP5cRR7nUvNjfBZmZUHSuZsMJQNsJ1U+SxcAMEIfAXwf+AAYSfdLlc9jWzt1UT0eCb4AVB3vT49l20kzTzN1ZwIKAKM8Abx2K21hDHqcFF4yYJ1R3eSsfb5YZvJu/nAAPlx+OMx2stjoqAWAEUoIwH8AYPTE/VJndXAx3thEPtyeUN6kzDa5DcOvaggnAIwyBvDdrQEAo2cAnHDUNFf/yUfe0KaYytCNKbxG0h/MLLnSADACwGTACAB7y9BBzpSXT6aabTdE20nre0WvBQBGAJgMGG0FcHZRM/qdKZ2q7nc6HGA7OZ6IJACMAPBdLsO5FNoI4PTrJo2/suw6pY0KsJ2c8EvrMwBGAHg1AwbA6BkAp53S2aWC/pFgn3X0jYP05ZLrjkQRAEYAmAwYPZEM6iwf2wZnuyEgNsB2sga/ABghAIwA8LYytOxuJVWfKy4vAIwQJWgEgLeprOURI1+N+vK3pfcKACPkAPz3KoCpkKGNAM6mbtJPrDDbk19Xu+7BLwBGCACjl2bAKpe6ydEUm7PgxfeqKwkeAIyQB8AFAEZ+tTkD+HCqNxJ4wW/N5BEARuhGaxmwAsBoM4BNRlHTbyHwvK2hqLiqADBCYgnaAGAEgH1yC5LCBpLsvkJVGI27HABGKCADBsAIAAtl6C5sJHh2fda4PgNghO5S4FUAGwCMtgK4yOyxrS3sRoog20k10PoMgBG613+rGTDNIsh/BgqA7eIjwfn58ihrt0YNtD4DYIRCAVwAYLQdwNnVTU6j1xdrtp1k6QIARggAo2/OgPOLmuZxGRrXZwCMEABGAPjbVFar3dAOypc/GvwCYIQAMHqlBgC8aFwZCV6QjKU6AEbIo1+rADYAGAHgYHZ8TIKNmV2fiRMAjJBXf60BWAFgtBnAuT622TK0+g2QxXZyZPIIACO0vQStCs3cBNoM4Hwf24bCDiTN6wZt6xWuzwAYoecyYACMxIPPFQDrfKHT2BUmypaelcMvvVcAGCEAjH4KwHlHTdldP4ma3isAjFBQE9YqgCsAjADwNoSMlf0YqhH8AmCEADD6NnVrAM49asrz8XjmygHACAFgBIARAEZov/gFwAgAIwCM0FsA/OcqgJlhRAAYAWCEfh7ANQBGPtWrACZqEABGaAOCVwCsATDy6gSAEQBG6KsZ8D8AGL0IwEQNAsAIAWD0f/buZbltIwigqGU9ACozokjx+f8/GjvLsA2pOQAIyudUVlmyUH3VgyEtwAgwCDDfLsAbTw0CDI3+EGATAQFGgGHSDbiPRunBRCAfYB8MAgwCjAAjwLDsI2gBZqQAe2oQYMhswJ1RStban20IMDQHuF4++H05mwgMbcACjACDAHODDTh8agQYAYZcgDsBJhngIsAIMLQGuAgwAowAw+wBfimOoBknwJ4aBBhSAa7BBnwyERBgBBgmDXCtVYDJBrgKMAIMrRvwxQIswHwa4E6AEWAQYAQYAYZvEuCjicCAbem9uECAQYCZfwMWYAQY2gP8/we/CjA2YAQYbMAsMcDl8s82AUaAoS3ANmDyAbYBI8AwxhH0/p93M4HkBnz01CDAkAlwNEr3JgJXBBgEGL4c4IfwCFqAEWAEGASYxY1LAUaAodFDeAvaO2CSAfbUIMDQvgF3ZWcikNyAO+cmCDA0bsACjAAjwHCLAFcBJh3gKsAIMGQ8CTBpuyjAVYARYLABM3+APTUIMLRuwKW8mQgIMAIMMwe4E2DyAS4CjACDDZhp7aMAVwFGgEGAmT/ANmAEGBJWYYCrAJMMsBcXCDDkvNqAGWkD9tQgwNAc4K2JgAAjwCDALMtRgBFgaA5wDQLcCTDpALs5gABD8wbcCzD5DdhTgwDD160EmLyTACPA0OpRgBknwF5cIMDQGOCu9GsTAQFGgGH2AG8EmCHnKMDOTRBgyLwDFmAEGAEGAeaOA+ypQYBBgBFgBBiWHeCfYYDfTQQGHKIA+7MNAYZEfwWYcQLs3AQBBhswAowAw31uwB8CzJCPMMCeGgQYWjdgAeaTADs3QYChzXMcYAMBAUaAYdINuL8cpb0AI8AIMEya3x/PAkzeRoARYGgNcCfAZL3HAfbBIMCQCnAVYMYIsKcGAYbMJawiwAgwAgzzb8BhgA8GAkMB7i+fGgFGgEGAEWAEGBYf4FoFmGyAiwAjwND8Drh2AowAI8BgA+YuA+zqHgIMyXfAl499X84GAoMBrgKMAENrgDsBZpQAOzdBgCH1DliAyQe4E2AEGEbfgKsA81mAewFGgMERNAKMAMO32YD9wzb82VqAEWBo9RIG+GQgYANGgGHKDfglPIIWYD7ZgIsAI8AwdoBtwOQD7MUFAgztR9BdORqlpDdgV/cQYBghwJDbgDsBRoAhcwYdBbgKMFcE2IsLBBgSHsIA7w0EBmwFGAGGaTbgvXfAJANcfwXYU4MAgw2Y2QPsxQUCDI0BLlWAEWAEGOYPcNkZCAxOSwFGgEGAWUaAqwAjwCDAzB7g4uYAAgwZTwKMACPAIMDcg50AI8DQHOAaBfjNQCAbYHfnEWBo3IA7AeaaDdi5CQIMzUfQAowAI8AgwAgwAgzfzWv4S1gCzJB9+A5YgBFgaA1w2RoIZAPs3AQBhvYNWIARYAQY5g9wJ8AMOQowAgyTBLgXYAQYAYZJPQowYwTYt8cRYBgjwGsDgfQG7M82BBgEmEmdBBgBBgFmIQF2dx4BBgFGgBFgWLZVGOCNADPkHAXYl9cQYMj4GQb43UBgMMDOTRBgEGAEGAGG+zuCFmDyDgKMAMMEAe4EGAFGgGHqANcowOYBAowAw8QbcBVgkj7CADs3QYAhEeBegBFgBBjmzu+PVSfAXBHgKsAIMLQlWIDJ20QBdnUPAYZEf1clCvCHeUA+wD4XBBgSBS7RLWgBRoARYJh2A64CjAAjwHCDDfiSAPOJXoARYGh+B9wJMFmdACPA0LwBCzBpRYARYGhcgAUYAUaA4Qaeg580EmDyAfbtcQQYvANm8gBXAUaAYYoN+GAeIMAIMNwiwH5VkKEAd34/DQEGGzACjADDtwhwLWfzgMEA99XVPQQYBJjbB9gGjABDyioMcD17B8wVG7CnBgGGL3sJN+CTecCA99IHT40NGAEGAeYGAXZ1DwEGAWbqAFcBRoBhggAfzQMGrKMNuAowAgyNAS4CTD7A7s4jwJCwCgNcBRgBRoBhUg/hBrw3DxBgBBgEmGXZhgF2dQ8BBgFm9gAXAUaAoTnAVYBJB7gKMAIMzRvwzjwgvQG7uocAw9etBJhrhqUAI8DQ6EmAEWAEGBYS4CrA5APs5gACDM0b8Jt5gAAjwCDALMvOl9cQYBBgBBgBhvuzEmDGCrCbAwgwJLwKMAKMAMNSArw1DxiwF2AEGAQYAUaAQYD5iwPsxQUCDAmPAowAI8CwiAB3pa7NAwYcBRgBhkk2YAFGgBFgEGDuIsBVgBFgaA1wJ8AMObk5gABDq5+XT30t/bt5wGCAqwAjwCDACDACDALMX+AcPTVVgBFgEGDmD3BxcwABhlSAg+s0vXHAkIMAI8DQqg83YOMAAUaAQYARYAQYvptOgEn7CAPs5gACDKkAFwFGgBFgmFuxASPACDAsJMAb44Ahm/B7wAKMAENCFWCuCHD0jzH4XBBgSAW4CDCjbMA+FwQYMkfQVYAZJcCdzwUBhlSAHUGT1QswAgzNAe5swGT59jgCDCME+P9Pfa1VgBnky2sIMEywAVcbMAKMAMPEVmGAP4wDBBgBBgFGgBFg+GaeowBXAWY4wDW4OSDACDC0BrgcjANyAbYBI8AgwNiAEWC40wCfjQOyAXZ3HgGGzB0sAeaqAPvyGgIM42/ARYCxASPAMK2XMMAn44D0BuzuPAIMAowAI8BwhwGuAsyQ9yjAvj2OAEP7Bnw0DsgG2JfXEGBIWAkwAowAww08CDBp6+inoAUYAYb2AO+NA9IB9uU1BBhSAa4CjAAjwLCIAFcBZjjA0d15AUaAofkIemccMGAbbsC+vIYAw9et4iNoAUaAEWCY1JMAM1KA3Z1HgCEV4OhtngAjwAgwzB/g8mYcMDgrBRgBBgFmIQF2dx4BhuZ3wAKMACPAMKWVDRgBRoDhBl5twKTtBBgBhmkCvDUOSAfY3XkEGAQYAUaA4f4CXEvvDBoBRoBhSo/BQ//7//hZQf5sL8AIMEwQ4Pp7By4bx9DkAuzYBAGGVIAv/e6vS60IMAIMMwf4vwT/+u/DEkzoKMD/sndvS40jaRSFfQIJR2ZRxmDw+7/oKFOipycGlKJKliX7W10RfUFdqbCWdx72DwIGLiPgvA5dC8EgYBAwcDEBV+G7ENz85PTsxYCBArZgAgIGfsDuOwF3h7GiEIz/44OAQcDA3/L41S/9/yxDC8EgYBAwMD6hh+bzkPKx+50gYBAwMOEa9Odp6HjydsC/OX95e5yAQcDAT3iq+wzcbQQ74IqigIO9ChAw8MNd4H4DR9WUIGAQMHCZc1ixuAwdaguM+OREwCBgYBQDb5oQHPtTcGPod+8I9An4twcDAgZ+ug+8Lxg45HVo8xnQciRgEDAwin+7ENx3Jbi9EywEg4BBwMCoCn7Y95/FSp+NxsDmM4CAQcDAyDvB+T5Sfwi2E4zvBey5gICBP94JjoUQnJahjw673j0HAgYBA6PuBK/boFu6EywEEzABg4CBcSW8jb0G7oqxjnb77puagEHAwNisYyhXU5rPQMAEDAIGRuZh23cSK/8sKfgkBN8xFQGDgIELsIufm7193ZSV+Qz3SyBgEDBwkRC8Kd0JztWUH0IwARMwCBgY8SRWGhJcLIeOVTgIwQRMwCBgYFQDPxZDcL4TLAQT8D9fyQgYBAyMsxM8aBlaCCZgAgYBAyOH4Lr/SnBoqyk/vDkIuP0+5rmAgIFxDPy06/b2+g1sSCEBZwHXngsIGBiLx/QJqPrvBDf/e/PyIGACBgEDo7INvSm4vRIcDuYzEHA4eC4gYGDkENw3pVA1JQETMAgYuMRecJrPUPVOSIq5mlIIvncBHz0XEDAwqoBX66p4I0kIJmACBgEDo5PmM/QtQ3d3gs9C8J3wm4BBwMAkIXi1WofCmOB8I6kWggkYIGBgTAM/FYcUttWUZ9WU9yvgkwcDAgYuwTqfeO69E9wYWAi+B54JGAQMzCwEp51gb5I7FbB/eRAwcCkH78ohuDFwbT4DAQMEDIxKGlIYC8VYzX/mMxAwQMDAuOxDYR06n5auzWe4aV6+FLDvXSBg4KIhuB5QTRnNZyBggICBcXeCn/YD7gSHcNTKcV8CNhkaBAxc+ijWal3n486969C1IYV3J+B3DwYEDFyYrpqyNwQ3Bj7ZCb6fVyUBg4CBqUJw34SkLgRHIfiOBBwJGAQMTGDgIfMZakMK7yoB+7oFAgYmYd1/H6mbkFSppiRggICBcXeCN6Xj0Pms1sl8hpvjlYBBwMC1Q3BvOWXbylGpprwPAVvsAAEDk+0FpxBc9Wbg/JHSUUjAAAED47IrjGdQTUnAAAEDlyDNZ6h6JyTlH2pJuiXeCBgEDMyAfSjfCQ7hIATfuoDt9YOAgUn3gbsQ3H8jKR2HdkiWgAECBsZUcJ7P0NvKEXIrx1EIvhHeCRgEDMwlBNe995HyYSzzGQgYIGBgbAM/7EvFWNnAhhTesIAtcICAgauwjt17uLeaUgi+BT4IGAQMzCkHbwu9WG015VE1JQEDBAyMG4JDfzt0bPXsvigBAwQMjMpD28oRC8VY5jMsnPOXAra/DwIGrsgultqhc0R2YJaAAQIGRqXcypH/fAjBBAwQMDBuCC5UU7br0LUQvFxOBAwCBmYagmMpBNdC8M0J2L8nCBiYRQjuL4dOIfkoBC9WwJGAQcDA/GjnM1Sxt5YjF2MZUrhMjgQMAgbmauCn/edxq+9DcG1I4U0J2HMBAQPz2AmuQ389dMz/vXvxEDBAwMCoIXhbns9QNSHY4dnFcSBgEDAwa9blDJz+mM9AwAABA+Pm4G0M5SvBhhQSMEDAwMgGTiG4+n5CQ2w3gqP5DIuiJmAQMDB7Hrb5TnAsjEg6C8ELoiJgEDAw+whcrqbsDmNp5VgOkYBBwMASDDwgBKdWjrMih6XwxT8mAYOAgbmG4EI5dBWi+QwLErAEDAIGlhGCN23xRt9GcArB3kISMAiYgIFRHbwL/bQTkg5CMAGDgAkYGJVSNWV3J9h8hqUKOHouIGBgpuyHFGOF2nyGZQq49lxAwMBsQ3DVfxirreWI5jMQMAiYgIFxt4K3hTvBqimXK+CD5wICBmbMui6H4OZTaD4DAYOACRi4QAiOpTvBQjABg4AJGBjTvzkEV1X5TrD5DLPl95cCPnowIGBg5nTVlKU7wSchmIBBwADGDcElA8d0VqsWggkYBAxgVAOnEFyakJRCsPkMc+T5SwGfPBgQMLAAA692sViM1YRk8xkIGAQMYOSd4M2gYizzGQgYBAxgXFIILpdDV0LwEgRc+aoEAgaWQ5rPULgSnH6qmnIRCZiAQcDAgtgXDJzbocPBfIZZ8ULAIGDgJkJw8UZSMJ9hAQI2SBIEDCyKp30+7txfjBXCUQgmYBAwgBH9W57PkI5DV+YzzF7AVilAwMDSDPywLy5Dp1YO8xnm/KYkYPwlrwQMXIN1sRcrjxEWggkYN8rzx4GAgeuE4G0IpY3gJiQfVVPOV8C+HuHP9Xuuv3kBEDAwSQgOxTHBhhQSMG6Pl1P36ZeAgetQqqbsZ8U7ZgAAIABJREFUirEUHs5zs46A8af6PX5e+ZeAgatRqKbsyqGDakoCxu0spxz69EvAwJQhuCqE4GA+w0wFbHcAP9dvnb9Xx++3nwgYmISnJgS3Qbeg4ForBwFj8Ty/xu4j3fOtm4CByXjchEIxVv75h+PQV+SNgPH3W7/vza9NXdh2ImBg6hBcqqasYjjYCSZgLFi/H82vTB17bz7k36u1tyIwoYFTCO77XpzWrGrzGWYnYF+JMHjr99ym35J+Gx68FIEpHfyUqyn7D2PV5jPMS8AVAWMgr6eh+o2h8kIEpg7Bdez9cHbFWELwdXgnYPz517fj4PTb/JpZgQauEoJjLE5IMp+BgLGs353DoKNXn79UAjBwjRS8Lh3OaO8uaH+YjYDtCKDA74/PuSpD9Jv+0qN3IXAVB2+LH88kYfMZpueDgPEH+j3/q1K27N70lyxAA1cLwfm9/u2n9fOT7PoLAWP2PJ/a78xxyN5viDkmy7/A9XhoWzl6lqHzOvRZCCZgzJqX46d9By0+Z/3un7wCgWuyq0JVheJhLOd/JuX8pYAdiMM3/Dp+O23wO/3W+4cVAQPzDsG5GEs15dQCjgSMoVu/r036rao4WL/N53mze1jxL3D1jeA0pLDqHxScdKCackJOBIyh+k3Xfuv6Z/pd0y8wEwM/FkNwqqYUggkYc+M5Xfut64E7vykoh7BdP6UmAO8+YCY7wYXdo7RlFITgKwvYFyD8Ly/n+ifpN5983j7SLzAvHutQWIXOJ6I/vPMm4UjAKPLrlFeUh3VOdmPAtw8ri8/A3JahV/uCgdvT0AdXYQgYs9DvIR9nHq7fhr2tX2CmIbj/JFZXnWNI4ZUE3Hz98VzwyWvdXvsdtPjc/S3XfoEZs++vset+dnAW6EoJ2HNBp9/Pyo1B+k1LV6HaecEBs2ZdFYqx2gkNqikvzUECxnf8fvtXSV3Zvkm/caPzGZj/ZvA29N4J7j71hhQSMK7D83vbZDVo2G97cIN+gUX4txyCu2pKIfjSAv7iZeq53D0vH+2w34HXfnPL7PZx5egVsAwetkUDpzvBZyF44gRMwHfPr/Nw/ca8aBLCnn6BRYXgAeXQVaiFYAkYE/J66vQ7vHKy2tEvsDADpxAcy9WUhhROKuBAwPdManz+gX5T+q3WWjeA5Tn4aUAITh14QjABYwJ+vx1a/Q72b/O3U+Mz/QJLDMGbEAu1HOke4tm78SLUBIz/6ve9/sHRq7zzGzaPT6sn+gUWquDdkAuGsTafQQLGJXk+heEXj7qFq83jSvoFlkwTgvszcMwx2HyGqRJw7bncoX6PP9Fv6988cAHAojeCu2rK/glJ5jNMJOCKgO+Pl+M/X3UHLz43+hV9gRvgcVMqxso/fPOmnCIBHzyX+9r6zfOOhlc+V2mVZC/9AjeTgvfl49DNn6MQTMAYV7+vh+FLz6mervl7mx39Arcj4NVqXScFx1IxlhBMwBhx6/etHt55FbOpw3a9cvAKuC0e9v3L0N2d4JNqyhHTz5cCPnow97L1+54uGFRDG5/zIhX9AjfJuspfsAvzGaIQTMAYQ78faVWpGlq6ofEZuOll6IHVlEIwAeNv+ZUbnwfqt1ujpl/gpkNwDKGwEZy+h6umJGD8lX6P+dbvwHPPrX93Gp+BG98J3hTuBLdjgk/mM4xyBKf6SsAnD+bGSQefk37/w96ZbTeqa1E0NLZkD8kxxh3//6MXSVA3dUKhTeIGxJyneSm/lJ0wvdSsLTz57ClpfAZYQQjuqjciq2FUUz5CwHaoiAMBJ65f1V37tRL5+hepjAcTwCr2gkXVlMYwnwEBw3RuXcG6vPTKavQLsB5KM1rL0W1JWVo5HiBg9V3AfLVJ9wO/dfPFZPp1lxJsjn4BVkVXTTk2Ick9QZjP8EtOZigBI+BUP+7mz2wTkX79td8tjyOAda1Cf7j5DEpFLkYwnwEBgxh378gVSUpLN9pfP8W9I4BVGjgegv2d4BsP1ocLmIWF9DieW/0qLbx21Om33PphZQCwOgXvotWUvhya+QwIGGL6vdTtL4u08rl9leoHLqBfgPWG4OiEJEUI/s2q5KCAeUNTO3lVdenXihef8wz9AqzbwG4+g6CasqaaEgHDv/TbaHeTSKpf/6piS+sGAGTjvVjuD11IZj7D4wSsEXBK+r26KwPSo1fhRRx8BoCQgwtRTXxNNSUChm97/LW8dKN7iS02PHUA4P8hOFKM5TMy8xkeJmDWExLRb9WXblhJ5aR/0R79AsAXJEMKLfMZfsIZAaf75arqvpyK9Ot3ctSebV8A+A+hmtKO9mJZ5jMgYOg4uoELQv12jc8mL3nSAMBACM5HDdwfxroTgh8hYFbzl37y6hJ6nCd0XgX9EoAB4L+0z4XSuueEjdwJ1oRgBLz6rd9b+6Fq8bnn0PicoV8A+KeBY9WUXTEWIRgBr3vr995+GdXWCOOvX3ym8RkAIpQmWozVZuSKECzngoAT0+/VfYLSyskwb7DV7w79AkA0BI9faaSa8iEC5ivMUhc06on6bf+j8RkARAbe7Y2JGVgzpBABr/PDrOT67ReTaHwGADFbNV7LYYOhCcEybgg4mY9SdyefrST8+hepjMZnAJhC8Vdx3uBp6PbfivkMCHg9HO+m29C10nkLJqfxGQAmh2A7fhirC8GcJPqxgFnBXxafTa9VUfp1nnb6JfoCwFR2u8K3blgzGoIZUigSsEXAC+fU9I3osr1fy7wjAPi5gT8yFQnB4bA0ITjGHQEvXb/X3r6yykl3W56BCwDwcwH7+Qwq1vBjzJUQjIBT3vo91K5IclLnZO70y+ozAPxCwaWJnPcM1ZSE4LHnNwJe9Mfnrv1q8b0jv/icl+gXAB4UgsfLobWxDdWUIzSDAmbdYAknr25Vp18j16+7d4R+AeAhIVhF7gRrw3wGBJyifu/T9Vts0S8APCwE5+MXL0IINg3P638tQSPgZZ68alT7Ocn3fv8cfEa/APAoA7sQPLoDRgge5xpupfz1liHgmeNOXomPXnXl6XsqJwHg0bghhSZyJ7j9585jWyrg9hsL2+Yz5lz19+ys9Nav2aNeAHgG+8ijKPyx5mSvPAEj4Pnq14r1a/svpiXhFwCeFYJ1tJXDPYcuPL2/U39/5xDwfPfsL19aZiStG249o+QJAQBPY+eGFI5VU3b7YFRTDgqYBLwQPi9+NUeoX+X1m2c8HwDguWSREGzC/AZCsCABswc8z4PPN/G0QV8D576RFhmLzwDwdKLVlO1zq5X0lZ3g+BK0QsDz068bNyjsvLK+A87YPfeOAOBlIVhFQrArxiIEI+DFcWgm6Dfs/aoS/QLAa9jJQzA7wREBWwQ8r4PP1x/ol2u/APDaEBw3sLLMZ0DAS+JSd/oVdl65iqwM/QLAy0NwHnlOhd2xK4IZE7AxvC8z4XjTQb/Ce0emH7iAfgHg1QZ2IdiM3dMIBlZUUyLgBej37s8zi/TbvyjffqBfAHiPhLv5DDbyoGI+Q6AaErDlfZkBn01/pFlY+ez0u+ERAABvpBxPDJZqypiANe/L2znVk/TrP8ViQ/QFgPfi5jOo+God8xkQ8Fw5VL7ySqhfv0qt9qRfAJgB+z4TjFZTVoTgYQFXvC9v3fpt9evNK7t3FCon0S8AzIFdPAT7G0lUUyLgGW79nrX43LMNDasmL1l6BoC5KLifzzBel2tMfULA39YzEfAb9XvT4tINv/drXePzjnPPADCnEOzmM9jIMrReewg+IuBZnby6uxoNJddv+z/X+LxDvwAwKwNvokMK3eCfdQ8pbAVsvwu4RoVvOXnlG58n63dH+gWA+ZHZzrOj1ZRrDsEIeD76rYN+jWzcoLc0jc8AMN8cXJjonWC3E7zaaspPBDwPzpWvnBRXPrsf3pLKSQCY80J0ZuIKNusNwcMJ+IoQX6xf7S/z2gmVk6r8QL8AMG9cNaUaK4e2vvJgpfMZPjUCfvuXoEv4ObSyvV//Kp3xmw0AC6A0sWIs/0w7IOCARsCv1O9tkn7dmQWTo18ASCcEuz9sjgg4CJhJFS97/++dfWVHr9yBBRvmHQEALCYEq9idYGX0AQEj4Bdyasz4V8MB/RZOv2z9AsByCNWU1kTuBN/WFoJPCPhta8+Ha/tjp6X6VX6O9R79AsDi2JWxVg5/J7haWQg+KQT8Hv2e6/YHUqxff1tOc+0XAJboXx+Cx7faQjXlDQEzqPHpK/+XapJ+lXInrzZ0TgLAQg2828dDsF7ZfIaTRcBvOHnV61c08Mj+0S/pFwCWG4KVqOFvRSH4ZIYEfEOST9Rvo7q9X9m1X/cBFVtKrwBg6RLei8abV6sJwQcE/OJvPHU/RFCo35Ziw28uACRAZiJDCkMMviBgeIJ+K//TJdz7DY7eo18ASCUEFzY6Jrj9dyVDChHwK9/sqmu8stKDV61+WXcGgJRCsB29ExwMbOx5JQJW3wV8QZaPxw9csNYK5w26j0WX6BcA0mLThmA1fvB0LdWUwwkYAT+aY6tfG+Z+iOYduS+IecmvKgCktggdqilV/DBW+q0cZwT8ioPPFz/sV3jwKqTfIvvg3DMApGjgbTE+IckXY60gBCPgF5y8unX6NegXAOAjhODISuAKqimHBXzGmo9b5G+Cfs2E9EvjMwAkHoLzruVg5DCWNom3QiHgJ7+/1/b9levXfyek8RkAVhGCzdi+XJiQlHQIRsDPxDU+T9j79cevWv3u0C8AJM8mH6/l6G4kJRyCLwj4adz0FP36V9mMykkAWMtC9D5ajJV2NeVlQA/aHLDnr+8d3btTBBMqJ3XGryQArIit6uonR0KwSXc+AwJ+jn4bv6Er0m//05dv+W0EgJWl4H139HR8QlKS1ZRHBPwMPpt+TVnWOeleVWxZeQaA9ZHp8RtJ3YM0ycuxNwT8aE7XUKYmu/irnH4V844AYK0huOhiyIiCW0NfP1chYIuAf7GmcKhNN3FBdu2o/bnT+w3pFwBW6l8fgm1sRFKbk88JClgNJOATJv2Zfs+tfrWS6le5OtTcXfvFvwCwXgVvQjVl7E5wk1YIPg4J2CLgH279umu/Wn7t16Xf3N072uFfAFh3CBaUQyujEwvBd1/TRAJ+gH5vE/VrXePzDvsCAAbeuRBsx0NwGw7t9Zi4gEnAPzl51Wi/+GzknVfu4DOLzwAAnixybyRMSNKH5BPwJ0adpt+6W1G24sJnu6fxGQDgTwrexaopuzvBTTp7wMMJGAFP4VD7ziupfm2nX+QLAPB1IbqMPj2dgdMJwY07WkYC/o1+q3DtV3brNzQ+l8gXAOCbgjc6loGTqqYcEDAJeAIX0+vXSrKvO2ivSsIvAMBgCN6PjijsJyQlMp+hYQn6Fyv4l/DTIDz57AtP85LfMQCAf7GNVVOG9cZLogmYJWjpvaN+Voes8dml35x5RwAAoyl4H78T7OYzJBCCryxB//Dg870b9iu8duR+norsg4PPAACjq9DR+QxhTrC9pCjg9i+OgGMnrxr3RUW69Oz1q/Zc+wUAEBh4IwjBOoH5DEMJ2CLgcc7XLv0Kpw06/ZZc+wUAkIZgwYSk5e8EDwrYIuCxg8/1FP3673E6c9d+0S8AgDAEF5ELSWFC0rKrKYcEbEjA/8Y1Pk/Rb/syP3AB/QIATCAzkRtJYZn6nJyAj4h2+N7RXU85euVflW8/0C8AwFQkIdguOgTXCFh+76jppxhZiXvRLwDAbyjN+IikYGB7SCoBWwQ8oN9rp1/Z4rN/UbHhNwgA4MchOI8XY5nlzmcYTMAaAX+79nv9suIhKt0wttUvw34BAH4fgiPzGdQpFQErBPzfrd9TNaHxOZRu6D3pFwDgV7QRZpv7w1Y2chjrloyAKwT8Vb/nSrrz+6XxmegLAPAIBZc22sqhljmfof7+F0PAf239XtpvKFpJ9eu/qXn9YmAAgFeE4O5O8OJC8BEBj2/93rx+7ZT0W2ToFwDgYQbe7fYu5NpYNWV9QMDp4BqfjbbWTtEvjc8AAI8OwTo+IWlxO8HHakjANQJ2+vWNz2qSfml8BgB4goPdkEIbn3pTfyLgBDh3jc/CYb/+ZSWNzwAAz0nBWxUvxjKLms8wJGBt6tXr91L1nVfCs1dOv6gXAOBpGXhXxEe/tk/s5SRIBDyoX9Nf+xUVXv2PvXNbThyHomhsDBaUZIy5mf//0fGRTHfXhFjHAYwMa1Wl5yFUdUOYLLYu+8hXmfH/BwDAU0NwZp2imnI28xm2NwV8+uhrv+dR+vUjK3P0CwDwdJbhQtJgC/985jMg4P+/IOfwE9QcvXLh5JVDvwAA01D0J14HdoLFahUCnt+13/Za+OzG3TsCAIAJQ7CLFGO19VwFfPlM/cq1X2fU445Ev+UG/QIATEZfTemih7F26YfgrUHA/1z7LY2u88qFgUeGa78AAFMbeJVH26GlmjL5ENyY78L5RAHXx32ffpWNz6WcvFp+MW8QAGByiuGzWH6srk0+BCNgvw7Q7vTpF/0CALw8BA9vFoZqStfOUMDtZ+n3YvTpt7+Clq/WXyw+AwC8yMASgmPl0CbxIYWN+3QBNycfaXVHr/pXSw4+0zkJAPBCVn/rJ4fiUsLzGRr72QJu9tePSrqTz16/S975AAAvZ2NtZEah/GbfbRFwkgefd9fOK71+NwRfAIAkyMp4MVb3+z3V+QzVTQGfP0O/Rl05eS3dKNEvAEAyyHyG4V4sX6t02iLgpO4dHUz42Vht5aSzecHbHQAgHf/GQ3A/oOGAgNM5+HwMYxSc7uBzSeMzAECSLBdRA8ud4Mt2LgI+vrd+G5l3ZLTnnvvG5+yLa0cAAAmG4JiB/Z1gc0DACTzldrR+nW98Rr8AAAkaWELw4O/0cCf4UiPgFz/hU69fXeeVT78F+gUASFjBRTwESytHYiH4cONDwxsL+LCXhlBnlaVX/rVh4AIAQOohOI//Qu8UfUHAr+K4C+lXGX/lUS6jchIAIHkDSwh2kQlJMsOuSlvAzqR5YPvee0dnf5FXe/LZP6jMZNwC+gUASB4JwYPVlM6va7apJ+D3E3Dd+gNVav3Ko8yKdzQAwExS8NpXU5axfUVnmnQEXH5AAt5exjQ+e/26fEX0BQCYEysTN3D3Cz6NXdb6loDfLgH7eUfBqtpzz37eEQAAzIt4NaVNZz7D0R9K+n8Crt5Jv/vra67qnJTPIwb9AgDMksyHYBcrxjokKmD7RgKuq7041TnluWfpnMwLxg0CAMyU5SZ+J7j7/qkhAT9Xv3LvyJRO2fhs/+h3ze4vAMBcQ3B5Y2/1+53gV+8E1++cgLfnXfdhQl96JT+whVz7Rb8AAHPlTzXlsIGNdS8fUvi2CbhpTfdRQln5fB24sEK/AABvEIIVS57dny/eCT6/ZwJuTjIiUtu6EXo3FjQ+AwC8SQjO7eDv/zAhyZ7qFwvYfk/Azcz1u7e9fq2aDY3PAACfFIL9ymeVVgKeu4Cr3d/LXtrG5w3qBQB4qxjsQ3BkTLB96XyGt0vAlRmh33A+2hX0PQMAvJuBvwoXXYaWzeCXGa99LwEfShuaxjR7v33jc8H7FADgHVnlLlqM1dGmI2A7VwHXZztCv3753+UZb1EAgHdlE4bgDW4FW7trkknA5SwF3JzDsF/lwatw7yjj4BUAwLuyjofgcCfYnlMRsJuhgKvLaP26DfeOAADeXMHraDWlL4feNwj4l1u/J9m6Vh686tPvRsYNol8AgLcPwZFerFeF4MsNAVu7nZd+992/Wd155RufTcG1XwCAz8jAy40dHkjrQ7DbbxHw2JNXu37xWRt/u0dn6BcA4HPI4m2IsjJ6RMBj9NuaMenXPyqXxmf0CwDwQTl4oSrG2tcIWKvfi9w6Ujc++wflsvWLfgEAPi8EDxdjeZMcELCG7akfIqjp3Ogd7QcuAADAx2XgWDVlL4oJ5zOcvgu4tGYGAm5OfkPXWdXR59IfQl8seQ8CAHwqhR28kXRtcaoQ8PC13/2/r5bq2pHboF8AgE9mldtoNWX3/bZGwD9u/Yp+vXx1e7/ycufMOwIAIAQ72biMzQk21esEvEtZwNvDzlpTam/9Bv0WHLwCAIBoCO6LsSYJwbcFXKe79Xs0Xr/azkn5qLPI0C8AAAjrIlYOLd93uwlC8H5WAm5aq9ev6/VL4zMAAPT+VYVgOTn09CGF9ZwEXJ28ftWVz33j89ca/QIAwNXAMp8hdnPVdCG4eYWA9ykKuAqNz25E5WQ4+Ix+AQDgX1blcC2HC4OCz5ML2KQo4ENofNbqVx7lGLgAAAA3Q/AiYuBwy/Wp8xlmImA5eWVLpxz3Gx6UfaFfAAD4IQTHqinDtw9PFXCZvICP1/vRuvgrr5rJkC8AAPwcgyUEO0UIfpoQ613qAq7Pf/SrPfds84z3FgAADJOFqgg3VIz1xGrK7U0Bn9Jp3WivMypU+pWT446BCwAAEM/AX8tF5EJSOFJ02n6ggJuLOFW589t5unsq5WbF2jMAAGgMLCHYKe4EHz5NwHLttzTqYb/yGhnuHQEAgN7Aq0VsPoO/E3ypP0jA9WGv168L+s3l3hGtGwAAoFdwYSPzGXw59O7xIXhrkhRwfZR5R0a7+OxXCPIM/QIAwFgDL/PIhaQ+BE8j4MuL9dvuxunXiX7XXyw+AwDAaAN3IdjFirEkBFdvL+DtyYzSrxAOPqNfAAD4BSsTzXmipMfOZ2jK7557qYCbk+1PPjtl4TP6BQCAO1HMZ+iE89D5DI1NSsDVXt155a4tYosl7xwAALg/BA8fh/ZiOj9bwO2L9LsbVTnpX6kNwRcAAO4nVk3Znzh63HyGhAR8MKP1a4o1K88AAPAQMjNcTdkPmj++mYC3Rz/uyGqnDcpLlBe8XQAA4KEheNjATr7/oGrKNATc6dfJuWdt56Sk34UMXCD+AgDAo/zrQ/BwFvR3gh9TTXlbwOdJ9dvIwAUzKv3aDfoFAICHG3ipCMHmMSG4uqG9aQVcXUbot593tFmhXwAAeEoIjkxIkmXoTsKH2Qv4cBqlX1/YWTBwAQAAnhmCXXwp9u4Q/FoBS+PzmPQrf2ToFwAAnmhgmc+g2Aw11b0CLm8I+DiNfk3Qr+7olX9QSeMzAAA8G5nPECti7L4uMxXwWZ5BqdRviMgm+0K/AADwfAo7PJ4hrN2a5i4Bm///DW4CAdfnf56AbufX5SveEQAAMA3Rasog6PNDBfz8BLw9XXs1dZ1X8qhOv8z6BQCAydj0F29+Loe2d81nOEyfgJv91b5q/ZYL0i8AAEwcgnMXvZHkfl9NebDfhyCax3R83F57lnlHTt155RefzYZ5RwAAMDHr9XoTuRNsvaH3zaME7J4n4PrQ6deUTq3f7onlcu2XxWcAAJjawH/mMwxmYPPLEDxlAt4ed16/6spJ0a9c+2XzFwAAXmLg5cZFJySZ3w0pnE7A21b0a5y6crKUgQtr9AsAAC9EV035ixA81RJ0czFev8rF59LPO/KNz+gXAABeGYIXkWZKvwzt9vXYNqqbAq4erd+Tl6ru2m8v6Q2VkwAAkEQIdn/l9OOYYDc2vE4h4GrnjzNr9Wt7/SJfAABIApnPEDGwfO90r4DtYwVcGflHO/Xis/xRIF8AAEiIInJ/ts+Y1Z0JuHyggA/ub12I7uCVLQt+0gAAkFgIzuMXkrr/XOo0BFwfrV6/YbqTzTN+zAAAkGAItsM2Czut+iGF5xsCdo8R8PYYmqxUO78uHHzu9MuxZwAASJGVD8EucifYtfUdAnYPEHDThmG/ynPPvvB6IekX/wIAQKIh2GnuBO+qOxJwc/fJq0uvX6ts3ei+Niv0CwAAybL2IXg4V4ZqyvNvBWzvFfDhNFq/tkC/AACQuoP7+QxuKAQb3XyG9vECPsq8I6MeeCT6LQtaNwAAYBYhuIzoLWy+nicXcH3ejdn79R8kcml8Rr8AADAHA0sIdvFbPdH5DI8VcN2Wev32TyBfyRNCvwAAMBMHZ2Gpechu8t3DdALenqz+4lGPH7iAfgEAYE4OXsRbOToTDs9nuNwSsGt+p99w/lqfft1iyY8RAABmGIKdvxMcMfBgCL4p4HK8gJv9P01ccffK7MQw7wgAAGB+yHyGcmgZOhhxoJryhoBLa7Zjr/3uw1+m8a8Lud2gXwAAmDFFf402chy6eqKA68NOXznZzzvKZd4RO78AADBT1n0IjhVj/RyCT/cKeHvs9GtK9cErCeyLDP0CAMDsFVwML0P7Td0fqylvCninFnBzNuP0KwefM64dAQDAOxhY5jPEJiR1nmwfLuBGrv2aUtd51e/90vgM8F97d7ebuA5GAfQEAk5QPNDp3/T9X/RgBzpMCcShMNLAWuplqKr0Yusz9jZwP+rRVo6UswND8OYbAfwjNz6H4srnsN/4LH4BuBfL5vw9wbsTScdD8POlAZx2XnUhlsZvfm4bvxafAbgfKdNWB+2Op6spv0brZjiARy8TfmnyN8sxxtLGya6rRS8A9zgEh/Fvgruv9zMMB/DzSAC/7k79Tmh87mpLzwDcqVU3EsF5GfqPIXgogJvzAbx5P6j4KIjf9NSs8t8B4H5VzUgxVs7Nw2rKyQG8/jWl8yrmv2a29K8B4K61I9WUuyuS3j6H4M3TcYvHmQD++VFc+JwfTKvic/ELwL3nbx6CYxg/E/xySQD/2MZvbGLxqd/tbw6O/QLwGAncV1PGsTPBH+tzATy48flt+4unxW9TL7Z/k/gF4DGG4DhaDr0dkps8BK8HA/jteOfV6/MufstWn1P8zirxC8CjDcEjxVhpGTrdz1AWwJv3p2nxG1P8tv9ZfAbgoRI4DcFx/Iak7RC8acYDeP2rKf/ud3/d4LI1/QLwaBHctotZwZng2L2PT8Drt7yduTh+k37js/gF4AHH4Pp8M+W+laM5fuQwgH8+55NLRfG7f2S+8P4BeFzLZmwG3v0cB/DH/tzR025SjrFo43O3v+8IAB7YqjuVsQc3JMWTAfzS7CsnY8nwm+K8QBi3AAAB3UlEQVQ3rKw7A0AagsNYOXQcDODNy2flZNHB37zzqvbKAWA3BIcJu6f2Abx57Q8TFX60r5xM8WsABoBdNeX5Wo6hufgptWXFrrTyOcdvJX4B4HcCLy4ZgovjN/aLzxqfAeBoCO66OG0CDqXf/PbTby1+AWB4CI7d5Cl49LLBfvpNFy6IXwAYUHXX1we6xmcAOC3dz3D99A1VCl/xCwCntNX5Vo5p8r7q2dJrBYCxBE73M4SrzL4h7dCaL42+AFCQwPl+hnCF+P287wgAKLDMQ3D8bvwGFy4AwCSrmGbgSyM4hu2HZyl+rT4DQLE2D8ExXjr9pvitxS8ATM/gdtVdMASn0o3tR2aV+AWAi4fgyQmcht9uvmxTgnuJAHBJAu+qKWP5qd/owgUA+L5qSjl0fm6l8RkAvj8HzyctQteiFwCuEcD5fobRVo5cuhFqsy8AXEuupjy7EJ1vG5zVXhUAXFN99nKGPn4rrwkArivfzzA4A8eQ43ee4tfqMwBcOYHT/QxhYNdzit/o3BEA3CiA8zL01wBO8Rtq8QsAt0vg1df7kVL8NrVjvwBwywRuZ3/shf5sfBa/AHDLBF40BzcupI3PqfFZ/ALArR22Ys2WshcA/o5FH8Ghb3wG/mn/A2yZ45UNpaWKAAAAAElFTkSuQmCC;" vertex="1" parent="1">
          <mxGeometry x="430" y="-872.67" width="731" height="667.41" as="geometry" />
        </mxCell>
      </root>
    </mxGraphModel>
  </diagram>
</mxfile>
